<svg width="262" height="189" viewBox="0 0 262 189" fill="none" xmlns="http://www.w3.org/2000/svg">
<path d="M195.043 65.9501C194.983 65.8466 194.921 65.7446 194.856 65.6442C173.285 29.5688 131.911 14.4256 101.388 32.1408C70.6637 49.9727 63.0979 93.3563 84.227 130.128C84.2465 130.163 84.2662 130.198 84.2862 130.232C84.2973 130.251 84.3085 130.27 84.3197 130.289C84.2887 130.236 84.2579 130.182 84.227 130.128C78.2455 119.454 98.0089 96.5384 128.494 78.8449C158.781 61.2668 188.293 55.4343 194.856 65.6442C194.951 65.8034 195.046 65.9631 195.141 66.1231C195.109 66.065 195.076 66.0074 195.043 65.9501Z" fill="url(#paint0_radial_562_1003)"/>
<path d="M90.6401 134.677C87.6989 133.828 85.5201 132.358 84.2862 130.232C78.1171 119.603 97.9097 96.5959 128.494 78.8449C159.079 61.0939 188.874 55.3207 195.043 65.9501C196.277 68.076 196.472 70.6969 195.751 73.6719M195.49 66.7199C174.103 29.8714 132.212 14.2506 101.388 32.1408C70.5633 50.031 63.0487 93.6402 84.4352 130.489" stroke="white" stroke-opacity="0.02" stroke-width="0.5"/>
<ellipse cx="125.851" cy="168.011" rx="7.92398" ry="8.15703" fill="#5F06F1" stroke="#411B92" stroke-width="0.5" stroke-miterlimit="10"/>
<circle cx="202.76" cy="36.3331" r="3.26281" fill="#AD45FF" stroke="#411B92" stroke-width="0.5" stroke-miterlimit="10"/>
<path d="M32.4988 175.087L4.65428 152.679L61.077 119.528L32.4988 175.087Z" fill="url(#paint1_linear_562_1003)"/>
<path d="M60.2428 124.596C57.416 122.54 55.6844 121.686 51.444 122.506C51.018 122.829 50.4393 123.444 50.2521 124.27C50.1305 124.806 50.5478 127.003 52.6386 128.436C54.7294 129.869 58.3445 130.056 59.8663 128.785C60.2414 128.472 60.4573 128.046 60.5654 127.579C60.8081 126.529 60.5069 125.269 60.2428 124.596Z" fill="#AD45FF"/>
<path d="M68.6197 115.117L60.2428 124.596C60.5069 125.269 60.8081 126.529 60.5654 127.579L63.2939 124.681L65.3403 125.704L67.8004 125.438L72.2474 120.532L69.0704 116.728L68.6197 115.117Z" fill="#5F06F1"/>
<path fill-rule="evenodd" clip-rule="evenodd" d="M68.6197 115.117C68.701 115.016 68.3906 114.534 66.4993 113.411C65.9166 113.065 65.2146 112.879 64.483 112.8C62.8404 112.621 61.0489 112.98 60.1238 113.271L57.8919 115.646L51.94 121.978L51.444 122.506C55.6844 121.686 57.416 122.54 60.2428 124.596L68.6197 115.117ZM60.8479 114.852L56.4009 119.758C56.1867 120.334 56.4239 121.219 56.8601 121.446C57.7393 121.904 58.8554 121.227 59.2821 120.829C60.2868 119.89 62.3468 117.331 62.9683 116.558C63.6996 115.65 63.632 115.025 62.7613 114.645C62.0647 114.341 61.1955 114.656 60.8479 114.852Z" fill="#CA87FF"/>
<path d="M49.3236 120.8L51.94 121.978L57.8919 115.646L52.1897 116.618L49.2349 119.98L49.3236 120.8Z" fill="#5F06F1"/>
<path d="M56.4009 119.758L60.8479 114.852C61.1955 114.656 62.0647 114.341 62.7613 114.645C63.632 115.025 63.6996 115.65 62.9683 116.558C62.3468 117.331 60.2868 119.89 59.2821 120.829C58.8554 121.227 57.7393 121.904 56.8601 121.446C56.4239 121.219 56.1867 120.334 56.4009 119.758Z" fill="#4F26F5"/>
<path d="M66.4993 113.411C68.3906 114.534 68.701 115.016 68.6197 115.117L69.0704 116.728C69.1221 116.354 69.2624 115.435 69.4101 114.755C69.5948 113.906 68.6565 112.901 67.7773 112.443C67.074 112.077 65.2881 112.528 64.483 112.8C65.2146 112.879 65.9166 113.065 66.4993 113.411Z" fill="#411B92"/>
<path d="M51.444 122.506C55.6844 121.686 57.416 122.54 60.2428 124.596M51.444 122.506L51.94 121.978M51.444 122.506C51.018 122.829 50.4393 123.444 50.2521 124.27C50.1305 124.806 50.5478 127.003 52.6386 128.436C54.7294 129.869 58.3445 130.056 59.8663 128.785C60.2414 128.472 60.4573 128.046 60.5654 127.579M68.6197 115.117C68.701 115.016 68.3906 114.534 66.4993 113.411C65.9166 113.065 65.2146 112.879 64.483 112.8M68.6197 115.117L60.2428 124.596M68.6197 115.117L69.0704 116.728M60.2428 124.596C60.5069 125.269 60.8081 126.529 60.5654 127.579M51.94 121.978L49.3236 120.8L49.2349 119.98L52.1897 116.618L57.8919 115.646M51.94 121.978L57.8919 115.646M57.8919 115.646L60.1238 113.271C61.0489 112.98 62.8404 112.621 64.483 112.8M61.2474 123.658L63.2939 124.681M69.0704 116.728L72.2474 120.532L67.8004 125.438L65.3403 125.704L63.2939 124.681M69.0704 116.728C69.1221 116.354 69.2624 115.435 69.4101 114.755C69.5948 113.906 68.6565 112.901 67.7773 112.443C67.074 112.077 65.2881 112.528 64.483 112.8M60.5654 127.579L63.2939 124.681M56.4009 119.758L60.8479 114.852C61.1955 114.656 62.0647 114.341 62.7613 114.645C63.632 115.025 63.6996 115.65 62.9683 116.558C62.3468 117.331 60.2868 119.89 59.2821 120.829C58.8554 121.227 57.7393 121.904 56.8601 121.446C56.4239 121.219 56.1867 120.334 56.4009 119.758Z" stroke="#411B92" stroke-width="0.5"/>
<ellipse cx="55.102" cy="125.708" rx="3.02428" ry="1.89275" transform="rotate(25.0963 55.102 125.708)" fill="#CA87FF" stroke="#411B92" stroke-width="0.5"/>
<path d="M236.246 152.086L228.458 133.813L210.793 135.575L236.246 152.086Z" fill="url(#paint2_linear_562_1003)"/>
<path d="M236.246 152.086L242.466 122.077L228.458 133.813L236.246 152.086Z" fill="url(#paint3_linear_562_1003)"/>
<path d="M228.458 133.813L242.466 122.077L224.409 124.311L210.793 135.575L228.458 133.813Z" fill="url(#paint4_linear_562_1003)"/>
<path d="M236.246 152.086L242.466 122.077M236.246 152.086L210.793 135.575M236.246 152.086L228.458 133.813M242.466 122.077L228.458 133.813M242.466 122.077L224.409 124.311L210.793 135.575M210.793 135.575L228.458 133.813" stroke="#411B92" stroke-width="0.5"/>
<path d="M208.623 116.462C204.081 106.774 206.15 96.2154 213.231 92.8956C213.344 92.8423 213.458 92.7891 213.572 92.7358C211.995 93.314 210.808 94.0318 209.35 94.7153C202.269 98.035 200.2 108.594 204.742 118.282C209.285 127.971 218.726 133.132 225.806 129.813C227.415 129.058 228.725 128.651 230.596 127.567C230.938 127.36 231.252 127.144 231.54 126.871C230.977 127.296 230.368 127.673 229.706 127.984C222.615 131.331 213.175 126.17 208.623 116.462Z" fill="#AD45FF" stroke="#411B92" stroke-width="0.5" stroke-miterlimit="10"/>
<path d="M213.572 92.7361C213.458 92.7894 213.345 92.8426 213.231 92.8959C206.151 96.2156 204.081 106.774 208.624 116.463C213.166 126.151 222.607 131.313 229.687 127.993C230.35 127.682 230.958 127.305 231.521 126.88C237.092 122.705 238.413 113.21 234.286 104.407C229.823 94.8886 220.616 89.7324 213.572 92.7361Z" fill="#CA87FF" stroke="#411B92" stroke-width="0.5" stroke-miterlimit="10"/>
<path d="M228.86 124.012C234.495 121.37 236.132 112.975 232.515 105.261C228.898 97.5469 221.398 93.4356 215.762 96.0779C210.127 98.7203 208.49 107.116 212.107 114.83C215.724 122.544 223.224 126.655 228.86 124.012Z" fill="white" stroke="#2912B7" stroke-width="0.5"/>
<path d="M203.993 100.136L207.836 98.6022" stroke="#411B92" stroke-width="0.5"/>
<path d="M202.219 106.21L206.393 104.623" stroke="#411B92" stroke-width="0.5"/>
<path d="M202.808 113.35L206.983 111.763" stroke="#411B92" stroke-width="0.5"/>
<path d="M206.032 120.901L209.762 118.444" stroke="#411B92" stroke-width="0.5"/>
<path d="M211.278 126.845L213.929 124.19" stroke="#411B92" stroke-width="0.5"/>
<path d="M217.02 130.084L218.948 127.436" stroke="#411B92" stroke-width="0.5"/>
<path d="M222.311 130.629L223.492 128.837" stroke="#411B92" stroke-width="0.5"/>
<path d="M241.073 146.82C243.834 144.274 243.372 138.045 238.669 134.1L237.303 132.65C236.261 131.744 233.676 131.54 233.22 133.848C232.763 136.156 234.867 137.207 235.976 137.444C238.629 139.773 238.771 142.209 237.552 143.334C236.494 144.309 234.117 144.387 231.478 142.795C230.647 142.612 228.946 142.636 228.773 144.369C228.6 146.101 229.972 146.992 230.398 147.205C234.926 149.241 239.035 148.7 241.073 146.82Z" fill="#AD45FF"/>
<path d="M238.669 134.1C243.372 138.045 243.834 144.274 241.073 146.82C239.035 148.7 234.926 149.241 230.398 147.205C229.972 146.992 228.6 146.101 228.773 144.369C228.946 142.636 230.647 142.612 231.478 142.795M238.669 134.1C238.018 133.686 236.369 133.092 235.436 134.336C234.69 135.332 235.003 136.789 235.453 137.012C235.637 137.155 235.811 137.3 235.976 137.444M238.669 134.1L237.303 132.65C236.261 131.744 233.676 131.54 233.22 133.848C232.763 136.156 234.867 137.207 235.976 137.444M231.348 142.715C234.038 144.389 236.477 144.325 237.552 143.334C238.771 142.209 238.629 139.773 235.976 137.444" stroke="#411B92" stroke-width="0.5"/>
<circle cx="216.801" cy="137.144" r="0.61283" transform="rotate(5.69277 216.801 137.144)" stroke="#411B92" stroke-width="0.5"/>
<circle cx="226.973" cy="136.56" r="0.61283" transform="rotate(5.69277 226.973 136.56)" stroke="#411B92" stroke-width="0.5"/>
<circle cx="239.62" cy="127.175" r="0.61283" transform="rotate(5.69277 239.62 127.175)" stroke="#411B92" stroke-width="0.5"/>
<path d="M219.398 112.273L219.398 101.355L226.299 108.347L226.765 118.369L219.398 112.273Z" fill="#AD45FF"/>
<path d="M219.398 101.355L219.398 112.273M219.398 101.355L226.299 108.347M219.398 101.355L224.435 111.61M219.398 112.273L226.765 118.369M219.398 112.273L224.435 111.61M226.765 118.369L226.299 108.347M226.765 118.369L224.435 111.61M226.299 108.347L224.435 111.61" stroke="#411B92" stroke-width="0.5"/>
<path d="M80.5548 78.186L82.2014 63.3941L70.0251 58.0393L80.5548 78.186Z" fill="url(#paint5_linear_562_1003)"/>
<path d="M80.5548 78.186L95.6643 60.8935L82.2014 63.3941L80.5548 78.186Z" fill="url(#paint6_linear_562_1003)"/>
<path d="M82.2014 63.3941L95.6643 60.8935L83.0577 55.7024L70.0251 58.0393L82.2014 63.3941Z" fill="url(#paint7_linear_562_1003)"/>
<path d="M80.5548 78.186L95.6643 60.8935M80.5548 78.186L70.0251 58.0393M80.5548 78.186L82.2014 63.3941M95.6643 60.8935L82.2014 63.3941M95.6643 60.8935L83.0577 55.7024L70.0251 58.0393M70.0251 58.0393L82.2014 63.3941" stroke="#411B92" stroke-width="0.5"/>
<path d="M77.6771 39.7433C82.7548 33.5383 90.5602 31.5205 95.0949 35.2313C95.1677 35.2908 95.2404 35.3504 95.3132 35.4099C94.4123 34.5316 93.5429 33.9613 92.6093 33.1973C88.0746 29.4865 80.2692 31.5042 75.1915 37.7093C70.1137 43.9144 69.6802 51.9647 74.2149 55.6756C75.2455 56.5189 75.9447 57.2725 77.2824 58.1858C77.5326 58.3502 77.7805 58.4926 78.058 58.5987C77.5887 58.3558 77.1369 58.0668 76.7126 57.7195C72.1559 54.0108 72.5894 45.9605 77.6771 39.7433Z" fill="#AD45FF" stroke="#411B92" stroke-width="0.5" stroke-miterlimit="10"/>
<path d="M95.3134 35.4106C95.2406 35.3511 95.1679 35.2915 95.0951 35.232C90.5605 31.5212 82.755 33.539 77.6773 39.744C72.5995 45.9491 72.166 53.9994 76.7007 57.7103C77.125 58.0575 77.5768 58.3466 78.0461 58.5895C82.6705 61.0032 89.515 58.8238 94.1284 53.1862C99.1172 47.0897 99.6226 39.199 95.3134 35.4106Z" fill="#CA87FF" stroke="#411B92" stroke-width="0.5" stroke-miterlimit="10"/>
<path d="M79.1233 55.8638C82.7326 58.8174 88.936 57.2068 92.9788 52.2663C97.0217 47.3259 97.3731 40.9265 93.7638 37.9729C90.1545 35.0194 83.9511 36.63 79.9083 41.5704C75.8654 46.5109 75.514 52.9102 79.1233 55.8638Z" fill="white" stroke="#2912B7" stroke-width="0.5"/>
<path d="M87.2127 31.3328L89.4931 33.4335" stroke="#411B92" stroke-width="0.5"/>
<path d="M82.5333 32.0969L84.9566 34.4045" stroke="#411B92" stroke-width="0.5"/>
<path d="M77.899 34.8078L80.3223 37.1154" stroke="#411B92" stroke-width="0.5"/>
<path d="M73.8389 39.4302L76.7061 41.1555" stroke="#411B92" stroke-width="0.5"/>
<path d="M71.5198 44.8969L74.1716 45.8293" stroke="#411B92" stroke-width="0.5"/>
<path d="M71.1888 49.8276L73.6019 50.2739" stroke="#411B92" stroke-width="0.5"/>
<path d="M72.5324 53.5776L74.1258 53.7965" stroke="#411B92" stroke-width="0.5"/>
<path d="M85.6443 76.5275C88.3833 75.8825 90.3756 71.6479 88.7591 67.3413L88.4017 65.8929C88.0552 64.9178 86.4437 63.8328 85.296 65.1706C84.1482 66.5084 85.134 67.9692 85.7703 68.5323C86.6439 71.029 85.8394 72.671 84.6299 72.9558C83.5808 73.2028 82.0006 72.3782 80.8649 70.368C80.39 69.9424 79.2708 69.3318 78.5201 70.3987C77.7695 71.4657 78.3367 72.5522 78.5362 72.8479C80.7414 75.8439 83.6215 77.0039 85.6443 76.5275Z" fill="#AD45FF"/>
<path d="M88.7591 67.3413C90.3756 71.6479 88.3833 75.8825 85.6443 76.5275C83.6215 77.0039 80.7414 75.8439 78.5362 72.8479C78.3367 72.5522 77.7695 71.4657 78.5201 70.3987C79.2708 69.3318 80.39 69.9424 80.8649 70.368M88.7591 67.3413C88.4866 66.8319 87.6295 65.8372 86.5626 66.3055C85.709 66.6801 85.3767 67.7465 85.588 68.0577C85.6554 68.2191 85.7161 68.3774 85.7703 68.5323M88.7591 67.3413L88.4017 65.8929C88.0552 64.9178 86.4437 63.8328 85.296 65.1706C84.1482 66.5084 85.134 67.9692 85.7703 68.5323M80.8092 70.2678C81.9484 72.3507 83.5635 73.2069 84.6299 72.9558C85.8394 72.671 86.6439 71.029 85.7703 68.5323" stroke="#411B92" stroke-width="0.5"/>
<circle cx="73.3684" cy="61.2755" r="0.459189" transform="rotate(35.128 73.3684 61.2755)" stroke="#411B92" stroke-width="0.5"/>
<circle cx="80.221" cy="64.6408" r="0.459189" transform="rotate(35.128 80.221 64.6408)" stroke="#411B92" stroke-width="0.5"/>
<circle cx="91.9295" cy="63.173" r="0.459189" transform="rotate(35.128 91.9295 63.173)" stroke="#411B92" stroke-width="0.5"/>
<path d="M84.3722 44.1818V50H83.3097L80.7784 46.3381H80.7358V50H79.5057V44.1818H80.5852L83.0966 47.8409H83.1477V44.1818H84.3722ZM85.3885 50V44.1818H89.2408V45.196H86.6186V46.5824H88.9851V47.5966H86.6186V50H85.3885ZM89.8466 45.196V44.1818H94.625V45.196H92.8438V50H91.6278V45.196H89.8466Z" fill="#6C1B92"/>
<path d="M154.958 120.423L181.11 165.483L139.914 146.249L125.923 139.717L140.917 137.527L139.503 135.091L138.089 132.656L150.006 129.81L148.239 126.765L145.853 122.655L154.958 120.423Z" fill="#AD45FF"/>
<path d="M168.221 128.192L160.355 114.639L176.592 97.2362L180.056 103.205L172.362 111.95L183.438 131.032L182.772 140.886L172.534 123.247L170.378 125.719L168.221 128.192Z" fill="#5F06F1"/>
<path d="M140.917 137.527L125.923 139.717L123.054 138.378L139.503 135.091L140.917 137.527Z" fill="#8F1EC4"/>
<path d="M181.11 165.483L154.958 120.423L157.403 117.803L163.579 128.444L168.221 128.192L170.378 125.719L182.398 146.429L181.11 165.483Z" fill="#4F26F5"/>
<path d="M180.056 103.205L176.592 97.2362L180.237 93.3304L183.62 99.7182L185.804 96.0087L183.438 131.032L172.362 111.95L180.056 103.205Z" fill="#4F26F5"/>
<path d="M123.054 138.378L108.822 131.734L117.905 129.507L120.471 133.927L129.734 132.011L126.988 127.28L145.853 122.655L148.239 126.765L140.611 128.75L138.089 132.656L139.503 135.091L123.054 138.378Z" fill="#CA87FF"/>
<path d="M160.355 114.639L168.221 128.192L163.579 128.444L157.403 117.803L160.355 114.639Z" fill="#8432D5"/>
<path d="M150.006 129.81L138.089 132.656L140.611 128.75L148.239 126.765L150.006 129.81Z" fill="#4F26F5"/>
<path d="M117.905 129.507L126.988 127.28L129.734 132.011L120.471 133.927L117.905 129.507Z" fill="#4F26F5"/>
<path d="M180.237 93.3304L186.433 86.689L185.804 96.0087L183.62 99.7182L180.237 93.3304Z" fill="#4F26F5"/>
<path d="M108.822 131.734L144.356 102.156L186.433 86.689L180.237 93.3304L176.592 97.2362L160.355 114.639L157.403 117.803L154.958 120.423L145.853 122.655L126.988 127.28L132.414 122.877L123.26 124.982L117.905 129.507L108.822 131.734Z" fill="#8432D5"/>
<path d="M172.534 123.247L182.772 140.886L182.398 146.429L170.378 125.719L172.534 123.247Z" fill="#4F26F5"/>
<path d="M181.11 165.483L154.958 120.423M181.11 165.483L139.914 146.249M181.11 165.483L182.398 146.429M108.822 131.734L144.356 102.156L186.433 86.689M108.822 131.734L123.054 138.378M108.822 131.734L117.905 129.507M154.958 120.423L145.853 122.655M154.958 120.423L157.403 117.803M186.433 86.689L180.237 93.3304M186.433 86.689L185.804 96.0087M145.853 122.655L148.239 126.765M145.853 122.655L126.988 127.28M138.089 132.656L150.006 129.81L148.239 126.765M138.089 132.656L139.503 135.091M138.089 132.656L140.611 128.75L148.239 126.765M125.923 139.717L140.917 137.527L139.503 135.091M125.923 139.717L139.914 146.249M125.923 139.717L123.054 138.378M160.355 114.639L168.221 128.192M160.355 114.639L176.592 97.2362M160.355 114.639L157.403 117.803M168.221 128.192L163.579 128.444L157.403 117.803M168.221 128.192L170.378 125.719M182.772 140.886L172.534 123.247L170.378 125.719M182.772 140.886L183.438 131.032M182.772 140.886L182.398 146.429M139.914 146.249L156.587 143.899L160.474 150.597L167.25 149.895L160.899 138.954L165.188 138.093M176.592 97.2362L180.056 103.205L172.362 111.95L183.438 131.032M176.592 97.2362L180.237 93.3304M183.438 131.032L185.804 96.0087M123.054 138.378L139.503 135.091M170.378 125.719L182.398 146.429M117.905 129.507L123.26 124.982L132.414 122.877L126.988 127.28M117.905 129.507L126.988 127.28M117.905 129.507L120.471 133.927L129.734 132.011L126.988 127.28M180.237 93.3304L183.62 99.7182L185.804 96.0087" stroke="#411B92" stroke-width="0.5"/>
<path d="M199.718 64.6131C204.831 73.4224 182.116 96.1531 148.982 115.383C115.849 134.614 84.8436 143.062 79.7308 134.252C74.6179 125.443 97.3333 102.712 130.467 83.482C163.601 64.2516 194.605 55.8037 199.718 64.6131Z" fill="#7A37D0" stroke="url(#paint8_linear_562_1003)" stroke-width="0.5"/>
<g filter="url(#filter0_i_562_1003)">
<ellipse cx="139.924" cy="98.6814" rx="65.5125" ry="16.2405" transform="rotate(-30.1304 139.924 98.6814)" fill="#A45EFD"/>
</g>
<ellipse cx="139.924" cy="98.6814" rx="65.5125" ry="16.2405" transform="rotate(-30.1304 139.924 98.6814)" stroke="url(#paint9_linear_562_1003)" stroke-width="0.5"/>
<g filter="url(#filter1_d_562_1003)">
<path d="M109.951 42.3812L138.487 91.5482L162.71 83.0318L181.045 76.5854L109.951 42.3812Z" fill="url(#paint10_linear_562_1003)"/>
<path d="M103.147 121.797L148.704 109.151L138.487 91.5482L129.663 99.1009L103.147 121.797Z" fill="url(#paint11_linear_562_1003)"/>
<path d="M138.487 91.5482L148.704 109.151L181.045 76.5854L162.71 83.0318L138.487 91.5482Z" fill="url(#paint12_linear_562_1003)"/>
<path d="M109.951 42.3812L103.147 121.797L129.663 99.1009L138.487 91.5482L109.951 42.3812Z" fill="url(#paint13_linear_562_1003)"/>
<path d="M109.951 42.3812L103.147 121.797M109.951 42.3812L148.704 109.151M109.951 42.3812L181.045 76.5854M109.951 42.3812L138.487 91.5482M103.147 121.797L148.704 109.151M103.147 121.797L129.663 99.1009L138.487 91.5482M148.704 109.151L181.045 76.5854M148.704 109.151L138.487 91.5482M181.045 76.5854L162.71 83.0318L138.487 91.5482" stroke="#731B92" stroke-opacity="0.74" stroke-width="0.5"/>
<ellipse cx="141.674" cy="99.1378" rx="25.0565" ry="4.06321" transform="rotate(-30.1304 141.674 99.1378)" fill="url(#paint14_linear_562_1003)"/>
<ellipse cx="137.529" cy="85.7427" rx="24.8112" ry="4.78734" transform="rotate(-13.1304 137.529 85.7427)" fill="url(#paint15_linear_562_1003)" stroke="#731B92" stroke-opacity="0.74" stroke-width="0.5"/>
<path fill-rule="evenodd" clip-rule="evenodd" d="M138.393 90.0381C151.737 86.9253 162.068 82.3145 161.468 79.7396C161.435 79.6017 161.373 79.4725 161.28 79.3518L161.36 79.3326L163.439 86.5398C164.039 89.1146 153.708 93.7254 140.364 96.8383C127.019 99.9511 115.714 100.387 115.114 97.8124L113.352 91.4281C115.055 93.5278 125.818 92.9713 138.393 90.0381Z" fill="url(#paint16_linear_562_1003)"/>
<path d="M161.468 79.7396L161.224 79.7964L161.224 79.7964L161.468 79.7396ZM138.393 90.0381L138.336 89.7947L138.336 89.7947L138.393 90.0381ZM161.28 79.3518L161.222 79.1087L160.848 79.1984L161.082 79.5036L161.28 79.3518ZM161.36 79.3326L161.6 79.2633L161.534 79.0337L161.302 79.0895L161.36 79.3326ZM163.439 86.5398L163.683 86.4829L163.679 86.4705L163.439 86.5398ZM115.114 97.8124L115.357 97.7556L115.355 97.7459L115.114 97.8124ZM113.352 91.4281L113.546 91.2706L113.111 91.4946L113.352 91.4281ZM161.224 79.7964C161.278 80.0264 161.217 80.309 160.988 80.6556C160.758 81.0021 160.375 81.3862 159.839 81.7994C158.77 82.6247 157.138 83.5303 155.058 84.4588C150.9 86.3143 144.998 88.2407 138.336 89.7947L138.449 90.2816C145.132 88.7227 151.067 86.7873 155.261 84.9154C157.357 83.9803 159.029 83.0559 160.145 82.1952C160.702 81.7654 161.132 81.3425 161.404 80.9319C161.677 80.5213 161.808 80.0966 161.711 79.6828L161.224 79.7964ZM161.082 79.5036C161.155 79.5988 161.201 79.6962 161.224 79.7964L161.711 79.6828C161.67 79.5073 161.591 79.3461 161.479 79.2L161.082 79.5036ZM161.302 79.0895L161.222 79.1087L161.339 79.5949L161.419 79.5757L161.302 79.0895ZM163.679 86.4705L161.6 79.2633L161.12 79.4019L163.199 86.6091L163.679 86.4705ZM140.421 97.0818C147.104 95.5228 153.038 93.5875 157.233 91.7156C159.328 90.7805 161.001 89.856 162.116 88.9954C162.673 88.5656 163.103 88.1427 163.375 87.7321C163.648 87.3215 163.779 86.8967 163.682 86.483L163.195 86.5966C163.249 86.8266 163.189 87.1091 162.959 87.4557C162.729 87.8023 162.346 88.1863 161.811 88.5995C160.741 89.4249 159.109 90.3304 157.029 91.259C152.872 93.1144 146.969 95.0409 140.307 96.5948L140.421 97.0818ZM114.87 97.8692C114.967 98.2829 115.272 98.6059 115.698 98.8536C116.124 99.1013 116.697 99.2903 117.387 99.4293C118.768 99.7076 120.677 99.7965 122.969 99.7081C127.559 99.531 133.738 98.6407 140.421 97.0818L140.307 96.5948C133.645 98.1488 127.499 99.0329 122.95 99.2084C120.673 99.2963 118.81 99.206 117.485 98.9391C116.822 98.8055 116.309 98.6305 115.95 98.4214C115.59 98.2123 115.411 97.9856 115.357 97.7556L114.87 97.8692ZM113.111 91.4946L114.873 97.8789L115.355 97.7459L113.593 91.3616L113.111 91.4946ZM138.336 89.7947C132.059 91.2588 126.24 92.1285 121.782 92.3708C119.552 92.492 117.672 92.4558 116.249 92.2615C115.537 92.1644 114.947 92.0287 114.489 91.8573C114.027 91.6847 113.719 91.4839 113.546 91.2706L113.158 91.5856C113.411 91.8972 113.812 92.1383 114.314 92.3257C114.819 92.5144 115.448 92.6568 116.181 92.7569C117.648 92.9572 119.563 92.9922 121.809 92.8701C126.303 92.6258 132.152 91.7506 138.449 90.2816L138.336 89.7947Z" fill="#731B92" fill-opacity="0.74"/>
<path d="M148.585 109.012L110.208 42.918L181.099 76.498L148.585 109.012Z" fill="url(#paint17_linear_562_1003)" fill-opacity="0.03"/>
</g>
<path d="M148.741 114.969C181.875 95.7388 204.636 73.0871 199.58 64.3752L202.584 69.5512C207.64 78.263 184.879 100.915 151.746 120.145C118.612 139.376 87.6529 147.902 82.5966 139.191L79.5925 134.015C84.6488 142.727 115.608 134.2 148.741 114.969Z" fill="#CA87FF" stroke="url(#paint18_linear_562_1003)" stroke-width="0.5"/>
<path d="M192.074 105.759C192.644 101.753 188.111 96.5538 181.614 96.0725L179.526 95.6648C178.065 95.53 175.805 96.9977 176.969 99.3241C178.133 101.651 180.563 101.237 181.632 100.739C185.366 101.102 187.107 103.16 186.855 104.929C186.637 106.463 184.735 108.047 181.505 108.326C180.7 108.694 179.318 109.8 180.332 111.438C181.345 113.076 183.067 112.987 183.559 112.904C188.637 111.813 191.653 108.717 192.074 105.759Z" fill="#AD45FF"/>
<path d="M181.614 96.0725C188.111 96.5538 192.644 101.753 192.074 105.759C191.653 108.717 188.637 111.813 183.559 112.904C183.067 112.987 181.345 113.076 180.332 111.438C179.318 109.8 180.7 108.694 181.505 108.326M181.614 96.0725C180.804 96.1228 179.053 96.6498 179.116 98.3418C179.166 99.6955 180.396 100.781 180.914 100.691C181.161 100.7 181.401 100.716 181.632 100.739M181.614 96.0725L179.526 95.6648C178.065 95.53 175.805 96.9977 176.969 99.3241C178.133 101.651 180.563 101.237 181.632 100.739M181.345 108.338C184.672 108.1 186.633 106.488 186.855 104.929C187.107 103.16 185.366 101.102 181.632 100.739" stroke="#411B92" stroke-width="0.5"/>
<path d="M110.137 41.9791L148.781 109.013L168.769 89.0244L181.232 76.1833L110.137 41.9791Z" fill="url(#paint19_linear_562_1003)"/>
<defs>
<filter id="filter0_i_562_1003" x="82.4224" y="62.6631" width="115.004" height="73.0371" filterUnits="userSpaceOnUse" color-interpolation-filters="sRGB">
<feFlood flood-opacity="0" result="BackgroundImageFix"/>
<feBlend mode="normal" in="SourceGraphic" in2="BackgroundImageFix" result="shape"/>
<feColorMatrix in="SourceAlpha" type="matrix" values="0 0 0 0 0 0 0 0 0 0 0 0 0 0 0 0 0 0 127 0" result="hardAlpha"/>
<feOffset dy="4"/>
<feGaussianBlur stdDeviation="0.5"/>
<feComposite in2="hardAlpha" operator="arithmetic" k2="-1" k3="1"/>
<feColorMatrix type="matrix" values="0 0 0 0 0.105882 0 0 0 0 0.223529 0 0 0 0 0.572549 0 0 0 1 0"/>
<feBlend mode="normal" in2="shape" result="effect1_innerShadow_562_1003"/>
</filter>
<filter id="filter1_d_562_1003" x="102.867" y="41.999" width="78.603" height="80.1348" filterUnits="userSpaceOnUse" color-interpolation-filters="sRGB">
<feFlood flood-opacity="0" result="BackgroundImageFix"/>
<feColorMatrix in="SourceAlpha" type="matrix" values="0 0 0 0 0 0 0 0 0 0 0 0 0 0 0 0 0 0 127 0" result="hardAlpha"/>
<feOffset/>
<feComposite in2="hardAlpha" operator="out"/>
<feColorMatrix type="matrix" values="0 0 0 0 0 0 0 0 0 0 0 0 0 0 0 0 0 0 0.25 0"/>
<feBlend mode="normal" in2="BackgroundImageFix" result="effect1_dropShadow_562_1003"/>
<feBlend mode="normal" in="SourceGraphic" in2="effect1_dropShadow_562_1003" result="shape"/>
</filter>
<radialGradient id="paint0_radial_562_1003" cx="0" cy="0" r="1" gradientUnits="userSpaceOnUse" gradientTransform="translate(156.124 126.451) rotate(-120.13) scale(120.846 185.809)">
<stop offset="0.0374739" stop-color="#C387FF"/>
<stop offset="0.585373" stop-color="#CA87FF" stop-opacity="0"/>
<stop offset="1" stop-color="#D987FF" stop-opacity="0.44"/>
</radialGradient>
<linearGradient id="paint1_linear_562_1003" x1="17.6861" y1="164.989" x2="59.9588" y2="121.973" gradientUnits="userSpaceOnUse">
<stop stop-color="#B587FF" stop-opacity="0"/>
<stop offset="0.407104" stop-color="#AD87FF" stop-opacity="0.33"/>
<stop offset="0.70171" stop-color="#AD87FF" stop-opacity="0.75"/>
</linearGradient>
<linearGradient id="paint2_linear_562_1003" x1="236.497" y1="151.979" x2="224.826" y2="124.594" gradientUnits="userSpaceOnUse">
<stop stop-color="#6A45FF"/>
<stop offset="0.707718" stop-color="#8C45FF"/>
<stop offset="0.870217" stop-color="#B845FF"/>
</linearGradient>
<linearGradient id="paint3_linear_562_1003" x1="236.497" y1="151.979" x2="224.826" y2="124.594" gradientUnits="userSpaceOnUse">
<stop stop-color="#6A45FF"/>
<stop offset="0.707718" stop-color="#8C45FF"/>
<stop offset="0.870217" stop-color="#B845FF"/>
</linearGradient>
<linearGradient id="paint4_linear_562_1003" x1="230.718" y1="137.744" x2="226.582" y2="102.369" gradientUnits="userSpaceOnUse">
<stop stop-color="#D187FF"/>
<stop offset="0.707718" stop-color="#9745FF"/>
<stop offset="0.870217" stop-color="#9745FF"/>
</linearGradient>
<linearGradient id="paint5_linear_562_1003" x1="80.7583" y1="78.2086" x2="83.2261" y2="56.0404" gradientUnits="userSpaceOnUse">
<stop stop-color="#6A45FF"/>
<stop offset="0.707718" stop-color="#8C45FF"/>
<stop offset="0.870217" stop-color="#B845FF"/>
</linearGradient>
<linearGradient id="paint6_linear_562_1003" x1="80.7583" y1="78.2086" x2="83.2261" y2="56.0404" gradientUnits="userSpaceOnUse">
<stop stop-color="#6A45FF"/>
<stop offset="0.707718" stop-color="#8C45FF"/>
<stop offset="0.870217" stop-color="#B845FF"/>
</linearGradient>
<linearGradient id="paint7_linear_562_1003" x1="82.2289" y1="66.7916" x2="92.5557" y2="42.1839" gradientUnits="userSpaceOnUse">
<stop stop-color="#D187FF"/>
<stop offset="0.707718" stop-color="#9745FF"/>
<stop offset="0.870217" stop-color="#9745FF"/>
</linearGradient>
<linearGradient id="paint8_linear_562_1003" x1="147.403" y1="112.663" x2="130.327" y2="83.2404" gradientUnits="userSpaceOnUse">
<stop stop-color="#571B92"/>
<stop offset="1" stop-color="#4F1B92" stop-opacity="0"/>
</linearGradient>
<linearGradient id="paint9_linear_562_1003" x1="142.012" y1="111.064" x2="142.012" y2="82.4733" gradientUnits="userSpaceOnUse">
<stop stop-color="#411B92"/>
<stop offset="1" stop-color="#3A1B92" stop-opacity="0"/>
</linearGradient>
<linearGradient id="paint10_linear_562_1003" x1="172.177" y1="82.2164" x2="113.281" y2="42.7975" gradientUnits="userSpaceOnUse">
<stop stop-color="#8A06F1"/>
<stop offset="0.78125" stop-color="#A606F1" stop-opacity="0"/>
</linearGradient>
<linearGradient id="paint11_linear_562_1003" x1="178.497" y1="78.94" x2="97.5266" y2="135.722" gradientUnits="userSpaceOnUse">
<stop offset="0.317708" stop-color="#6D06F1" stop-opacity="0"/>
<stop offset="0.920425" stop-color="#8A06F1"/>
</linearGradient>
<linearGradient id="paint12_linear_562_1003" x1="169.134" y1="91.8127" x2="128.269" y2="54.4564" gradientUnits="userSpaceOnUse">
<stop stop-color="#8A06F1" stop-opacity="0.62"/>
<stop offset="1" stop-color="#6D06F1" stop-opacity="0"/>
</linearGradient>
<linearGradient id="paint13_linear_562_1003" x1="46.1995" y1="94.0282" x2="122.442" y2="108.983" gradientUnits="userSpaceOnUse">
<stop offset="0.50422" stop-color="#A606F1"/>
<stop offset="0.957598" stop-color="#B406F1" stop-opacity="0"/>
</linearGradient>
<linearGradient id="paint14_linear_562_1003" x1="104.089" y1="99.1378" x2="160.912" y2="87.2659" gradientUnits="userSpaceOnUse">
<stop stop-color="#B587FF" stop-opacity="0"/>
<stop offset="1" stop-color="#1B0E2F"/>
</linearGradient>
<linearGradient id="paint15_linear_562_1003" x1="110.483" y1="90.2443" x2="156.798" y2="84.2282" gradientUnits="userSpaceOnUse">
<stop stop-color="#8C45FF"/>
<stop offset="0.754168" stop-color="#EDC7FF"/>
</linearGradient>
<linearGradient id="paint16_linear_562_1003" x1="119.796" y1="105.963" x2="160.455" y2="81.5821" gradientUnits="userSpaceOnUse">
<stop stop-color="#DAACCD"/>
<stop offset="0.390625" stop-color="#9A68ED"/>
<stop offset="0.635417" stop-color="#B76DF1"/>
<stop offset="1" stop-color="#B627B9"/>
</linearGradient>
<linearGradient id="paint17_linear_562_1003" x1="130.996" y1="85.0263" x2="162.444" y2="78.6301" gradientUnits="userSpaceOnUse">
<stop stop-color="white"/>
<stop offset="1" stop-color="#CA87FF"/>
</linearGradient>
<linearGradient id="paint18_linear_562_1003" x1="147.18" y1="112.279" x2="130.292" y2="83.1817" gradientUnits="userSpaceOnUse">
<stop stop-color="#4F1B92"/>
<stop offset="1" stop-color="#571B92" stop-opacity="0"/>
</linearGradient>
<linearGradient id="paint19_linear_562_1003" x1="139.986" y1="94.3546" x2="154.378" y2="62.3736" gradientUnits="userSpaceOnUse">
<stop stop-color="#8A06F1" stop-opacity="0.35"/>
<stop offset="0.78125" stop-color="#8A06F1" stop-opacity="0"/>
</linearGradient>
</defs>
</svg>
