<svg width="254" height="171" viewBox="0 0 254 171" fill="none" xmlns="http://www.w3.org/2000/svg">
<g clip-path="url(#clip0_562_683)">
<path d="M119.836 158.567C157.676 158.567 188.352 140.709 188.352 118.68C188.352 96.6517 157.676 78.7939 119.836 78.7939C81.9954 78.7939 51.3196 96.6517 51.3196 118.68C51.3196 140.709 81.9954 158.567 119.836 158.567Z" fill="white" stroke="#481B92" stroke-width="0.5" stroke-miterlimit="22.9256" stroke-linecap="round" stroke-linejoin="round"/>
<path d="M119.836 157.098C156.325 157.098 185.905 139.898 185.905 118.68C185.905 97.4621 156.325 80.2617 119.836 80.2617C83.3469 80.2617 53.7666 97.4621 53.7666 118.68C53.7666 139.898 83.3469 157.098 119.836 157.098Z" fill="#BC87FF" stroke="#481B92" stroke-width="0.5" stroke-miterlimit="22.9256" stroke-linecap="round" stroke-linejoin="round"/>
<path d="M119.836 153.183C150.108 153.183 174.649 139.05 174.649 121.616C174.649 104.183 150.108 90.0498 119.836 90.0498C89.5634 90.0498 65.0227 104.183 65.0227 121.616C65.0227 139.05 89.5634 153.183 119.836 153.183Z" fill="white" stroke="#481B92" stroke-width="0.5" stroke-miterlimit="22.9256" stroke-linecap="round" stroke-linejoin="round"/>
<path d="M119.591 144.374C141.89 144.374 159.967 134.404 159.967 122.106C159.967 109.808 141.89 99.8379 119.591 99.8379C97.2924 99.8379 79.2156 109.808 79.2156 122.106C79.2156 134.404 97.2924 144.374 119.591 144.374Z" fill="#BC87FF" stroke="#481B92" stroke-width="0.5" stroke-miterlimit="22.9256" stroke-linecap="round" stroke-linejoin="round"/>
<path fill-rule="evenodd" clip-rule="evenodd" d="M188.352 130.133C188.352 152.054 157.675 169.823 119.836 169.823C81.9974 169.823 51.3196 152.054 51.3196 130.133V119.106C51.8152 140.775 82.2948 158.252 119.824 158.252C157.459 158.252 187.997 140.676 188.335 118.925L188.352 130.133Z" fill="#8126F5" stroke="#481B92" stroke-width="0.5" stroke-miterlimit="22.9256" stroke-linecap="round" stroke-linejoin="round"/>
<path fill-rule="evenodd" clip-rule="evenodd" d="M134.046 168.975C129.474 169.527 124.733 169.823 119.876 169.823C115.45 169.823 111.123 169.579 106.931 169.115L104.149 161.623L87.9324 159.318L80.1943 151.054C91.3903 155.636 105.082 158.331 119.864 158.331C135.498 158.331 149.907 155.317 161.435 150.247L153.027 159.231L136.81 161.536L134.046 168.975Z" fill="#8126F5" stroke="#481B92" stroke-width="0.5" stroke-miterlimit="22.9256" stroke-linecap="round" stroke-linejoin="round"/>
<path fill-rule="evenodd" clip-rule="evenodd" d="M72.3638 104.408L90.7015 110.605L109.558 104.466L90.6367 98.8594L72.3638 104.408Z" fill="#8145FF" stroke="#481B92" stroke-width="0.5" stroke-miterlimit="22.9256" stroke-linecap="round" stroke-linejoin="round"/>
<path fill-rule="evenodd" clip-rule="evenodd" d="M72.6344 104.243L90.4717 110.518L90.2068 143.395L72.3638 136.084L72.6344 104.243Z" fill="#8126F5" stroke="#481B92" stroke-width="0.5" stroke-miterlimit="22.9256" stroke-linecap="round" stroke-linejoin="round"/>
<path fill-rule="evenodd" clip-rule="evenodd" d="M109.558 104.243L90.7377 110.518L90.4717 143.395L109.292 136.685L109.558 104.243Z" fill="#8145FF" stroke="#481B92" stroke-width="0.5" stroke-miterlimit="22.9256" stroke-linecap="round" stroke-linejoin="round"/>
<path fill-rule="evenodd" clip-rule="evenodd" d="M61.1781 117.718C62.7835 119.498 63.5034 121.46 62.7892 122.089C62.0751 122.725 60.1954 121.795 58.5899 120.009C56.9845 118.228 56.2646 116.266 56.9788 115.637C57.6929 115.002 59.5726 115.932 61.1781 117.718Z" fill="#D006F1" stroke="#481B92" stroke-width="0.5" stroke-miterlimit="22.9256" stroke-linecap="round" stroke-linejoin="round"/>
<path fill-rule="evenodd" clip-rule="evenodd" d="M179.473 116.739C177.867 118.52 177.147 120.482 177.861 121.111C178.576 121.746 180.455 120.816 182.061 119.03C183.666 117.25 184.386 115.288 183.672 114.659C182.958 114.024 181.078 114.953 179.473 116.739Z" fill="#D006F1" stroke="#481B92" stroke-width="0.5" stroke-miterlimit="22.9256" stroke-linecap="round" stroke-linejoin="round"/>
<path fill-rule="evenodd" clip-rule="evenodd" d="M133.167 97.9239C133.167 97.9124 133.173 98.0269 133.173 97.8838C133.173 97.7407 132.604 97.3916 131.906 97.3916C131.207 97.3916 130.638 97.7407 130.638 97.8838C130.638 98.0269 130.638 97.9124 130.644 97.9239H130.638L130.603 113.863C130.603 117.996 134.065 121.372 138.302 121.372H142.169H142.186C142.544 121.372 142.838 120.829 142.838 120.159C142.838 119.501 142.556 118.963 142.204 118.946H142.186H139.082C135.837 118.946 133.179 116.353 133.179 113.188L133.167 97.9239Z" fill="#481B92" stroke="#481B92" stroke-width="0.5" stroke-miterlimit="22.9256" stroke-linecap="round" stroke-linejoin="round"/>
<path fill-rule="evenodd" clip-rule="evenodd" d="M66.7 66.4748C66.7 68.644 63.7064 70.4039 60.0111 70.4039C56.3159 70.4039 53.3223 68.644 53.3223 66.4748V64.7382C53.369 66.8841 56.3451 68.6147 60.0111 68.6147C63.6888 68.6147 66.6708 66.8724 66.7 64.7207V66.4748Z" fill="#D006F1" stroke="#481B92" stroke-width="0.5" stroke-miterlimit="22.9256" stroke-linecap="round" stroke-linejoin="round"/>
<path fill-rule="evenodd" clip-rule="evenodd" d="M60.0053 68.6151C63.6888 68.6151 66.6941 66.8493 66.6941 64.6859C66.6941 62.5226 63.6888 60.7568 60.0053 60.7568C56.3217 60.7568 53.3164 62.5226 53.3164 64.6859C53.3164 66.8493 56.3217 68.6151 60.0053 68.6151Z" fill="#D006F1" stroke="#481B92" stroke-width="0.5" stroke-miterlimit="22.9256" stroke-linecap="round" stroke-linejoin="round"/>
<path fill-rule="evenodd" clip-rule="evenodd" d="M61.597 87.1133V120.882L58.1711 117.932L58.3817 87.1959C58.8474 87.3552 59.3514 87.4437 59.8809 87.4437C60.4933 87.4437 61.0738 87.3257 61.597 87.1133Z" fill="#D006F1" stroke="#481B92" stroke-width="0.5" stroke-miterlimit="22.9256" stroke-linecap="round" stroke-linejoin="round"/>
<path fill-rule="evenodd" clip-rule="evenodd" d="M61.2367 79.7725C62.8608 80.2582 64.0441 81.7923 64.0441 83.6048C64.0441 85.8141 62.2924 87.6029 60.1288 87.6029C57.9653 87.6029 56.2136 85.8141 56.2136 83.6048C56.2136 81.7923 57.3969 80.2582 59.021 79.7725C59.3284 80.6195 60.9757 80.6609 61.2367 79.7725Z" fill="#D006F1" stroke="#481B92" stroke-width="0.5" stroke-miterlimit="22.9256" stroke-linecap="round" stroke-linejoin="round"/>
<path fill-rule="evenodd" clip-rule="evenodd" d="M61.1077 70.4736V79.6286C60.8265 80.4928 59.012 80.4524 58.6606 79.6286V70.4736C59.0568 70.5082 59.4657 70.5255 59.8809 70.5255C60.2962 70.5255 60.7115 70.5082 61.1077 70.4736Z" fill="#D006F1" stroke="#481B92" stroke-width="0.5" stroke-miterlimit="22.9256" stroke-linecap="round" stroke-linejoin="round"/>
<path fill-rule="evenodd" clip-rule="evenodd" d="M174.16 71.2306C174.16 73.3998 177.153 75.1598 180.849 75.1598C184.544 75.1598 187.537 73.3998 187.537 71.2306V69.4941C187.491 71.6399 184.515 73.3706 180.849 73.3706C177.171 73.3706 174.189 71.6282 174.16 69.4766V71.2306Z" fill="#D006F1" stroke="#481B92" stroke-width="0.5" stroke-miterlimit="22.9256" stroke-linecap="round" stroke-linejoin="round"/>
<path fill-rule="evenodd" clip-rule="evenodd" d="M180.854 73.3768C184.538 73.3768 187.543 71.611 187.543 69.4477C187.543 67.2843 184.538 65.5186 180.854 65.5186C177.171 65.5186 174.165 67.2843 174.165 69.4477C174.159 71.611 177.165 73.3768 180.854 73.3768Z" fill="#D006F1" stroke="#481B92" stroke-width="0.5" stroke-miterlimit="22.9256" stroke-linecap="round" stroke-linejoin="round"/>
<path fill-rule="evenodd" clip-rule="evenodd" d="M179.377 99.0527V119.118L182.313 117.365L182.133 99.1018C181.733 99.1965 181.302 99.2491 180.848 99.2491C180.323 99.2491 179.831 99.179 179.377 99.0527Z" fill="#D006F1" stroke="#481B92" stroke-width="0.5" stroke-miterlimit="22.9256" stroke-linecap="round" stroke-linejoin="round"/>
<path fill-rule="evenodd" clip-rule="evenodd" d="M179.737 91.7119C178.113 92.1976 176.93 93.7317 176.93 95.5442C176.93 97.7536 178.681 99.5424 180.845 99.5424C183.008 99.5424 184.76 97.7536 184.76 95.5442C184.76 93.7317 183.577 92.1976 181.953 91.7119C181.645 92.5589 179.998 92.6004 179.737 91.7119Z" fill="#D006F1" stroke="#481B92" stroke-width="0.5" stroke-miterlimit="22.9256" stroke-linecap="round" stroke-linejoin="round"/>
<path fill-rule="evenodd" clip-rule="evenodd" d="M179.866 73.1143H179.882H179.866ZM179.866 74.9373V92.0357C180.091 92.9293 181.543 92.8876 181.824 92.0357V74.9373C181.507 74.973 181.18 74.9909 180.848 74.9909C180.51 74.9909 180.188 74.973 179.866 74.9373Z" fill="#D006F1" stroke="#481B92" stroke-width="0.5" stroke-miterlimit="22.9256" stroke-linecap="round" stroke-linejoin="round"/>
<path fill-rule="evenodd" clip-rule="evenodd" d="M71.7458 124.231C73.7805 124.231 75.4352 123.26 75.4352 122.079C75.4352 120.898 73.7747 119.928 71.7458 119.928C69.7111 119.928 68.0564 120.898 68.0564 122.079C68.0564 123.26 69.7111 124.231 71.7458 124.231Z" fill="#EFD8FD" stroke="#481B92" stroke-width="0.5" stroke-miterlimit="22.9256" stroke-linecap="round" stroke-linejoin="round"/>
<path fill-rule="evenodd" clip-rule="evenodd" d="M167.805 124.231C169.84 124.231 171.494 123.26 171.494 122.079C171.494 120.898 169.834 119.928 167.805 119.928C165.77 119.928 164.115 120.898 164.115 122.079C164.115 123.26 165.77 124.231 167.805 124.231Z" fill="#EFD8FD" stroke="#481B92" stroke-width="0.5" stroke-miterlimit="22.9256" stroke-linecap="round" stroke-linejoin="round"/>
<path fill-rule="evenodd" clip-rule="evenodd" d="M119.772 150.958C121.807 150.958 123.462 149.987 123.462 148.806C123.462 147.619 121.801 146.654 119.772 146.654C117.738 146.654 116.083 147.625 116.083 148.806C116.083 149.993 117.738 150.958 119.772 150.958Z" fill="#EFD8FD" stroke="#481B92" stroke-width="0.5" stroke-miterlimit="22.9256" stroke-linecap="round" stroke-linejoin="round"/>
<path d="M188.384 52.4392C189.597 47.0115 187.24 41.8609 183.129 40.9417C183.063 40.927 182.997 40.9122 182.931 40.8975C183.827 41.0202 184.536 41.2563 185.382 41.4456C189.493 42.3648 191.851 47.5154 190.637 52.9431C189.423 58.3708 185.097 62.0271 180.986 61.1078C180.052 60.8989 179.316 60.8342 178.205 60.486C178.001 60.4182 177.81 60.3423 177.626 60.2347C177.973 60.3897 178.337 60.5155 178.722 60.6015C182.841 61.5338 187.168 57.8775 188.384 52.4392Z" fill="#8145FF" stroke="#481B92" stroke-width="0.5" stroke-miterlimit="10"/>
<path d="M182.931 40.8978C182.997 40.9125 183.063 40.9272 183.129 40.942C187.24 41.8612 189.597 47.0118 188.384 52.4395C187.17 57.8673 182.844 61.5235 178.733 60.6043C178.348 60.5183 177.984 60.3925 177.637 60.2374C174.214 58.7181 172.378 54.0276 173.48 49.0962C174.673 43.7635 178.877 40.1355 182.931 40.8978Z" fill="#BC87FF" stroke="#481B92" stroke-width="0.5" stroke-miterlimit="10"/>
<path d="M178.687 58.4869C175.414 57.7553 173.545 53.6589 174.511 49.3374C175.477 45.0159 178.913 42.1057 182.186 42.8373C185.458 43.569 187.327 47.6654 186.361 51.9869C185.395 56.3084 181.959 59.2186 178.687 58.4869Z" fill="white" stroke="#5B12B7" stroke-width="0.5"/>
<path d="M188.843 43.6226L186.644 43.2599" stroke="#481B92" stroke-width="0.5"/>
<path d="M190.505 46.5211L188.126 46.1677" stroke="#481B92" stroke-width="0.5"/>
<path d="M191.057 50.2213L188.677 49.8679" stroke="#481B92" stroke-width="0.5"/>
<path d="M190.277 54.4168L188.026 53.572" stroke="#481B92" stroke-width="0.5"/>
<path d="M188.243 58.0145L186.534 56.9515" stroke="#481B92" stroke-width="0.5"/>
<path d="M185.624 60.2896L184.294 59.1515" stroke="#481B92" stroke-width="0.5"/>
<path d="M182.917 61.1431L182.081 60.3595" stroke="#481B92" stroke-width="0.5"/>
<path d="M184.018 52.7614C184.225 52.3206 183.142 51.3949 181.518 50.5583L181.843 49.8592L183.921 50.7952L184.598 49.3407L178.92 46.7788L178.243 48.2333L180.321 49.1693L179.997 49.8748C178.313 49.2294 176.924 49.0388 176.723 49.4722C176.522 49.9057 177.577 50.8162 179.168 51.6449L177.995 54.1558L179.523 54.8447L180.69 52.341C182.391 53.0036 183.812 53.2021 184.018 52.7614ZM180.17 51.5502C178.387 50.7445 177.059 49.8301 177.209 49.5019C177.338 49.2289 178.481 49.4635 179.917 50.0299L179.524 50.8759C180.019 51.1316 180.528 51.3591 181.046 51.5658L181.444 50.7125C182.849 51.4202 183.806 52.1378 183.679 52.4171C183.522 52.7463 181.952 52.356 180.17 51.5502Z" fill="#8145FF"/>
<path d="M190.433 67.2406C199.094 61.787 201.695 50.3443 196.241 41.6828C190.787 33.0212 179.345 30.4207 170.683 35.8743C162.022 41.328 159.421 52.7706 164.875 61.4322C170.328 70.0937 181.771 72.6943 190.433 67.2406Z" fill="url(#paint0_radial_562_683)" stroke="#5E1B92" stroke-opacity="0.16" stroke-miterlimit="22.9256" stroke-linecap="round" stroke-linejoin="round"/>
<path d="M68.7827 62.0807C77.9438 56.3125 80.6943 44.2099 74.9261 35.0488C69.1579 25.8877 57.0554 23.1372 47.8943 28.9054C38.7332 34.6736 35.9827 46.7761 41.7509 55.9372C47.519 65.0983 59.6216 67.8489 68.7827 62.0807Z" fill="url(#paint1_radial_562_683)" stroke="#5E1B92" stroke-opacity="0.16" stroke-width="0.5" stroke-miterlimit="22.9256" stroke-linecap="round" stroke-linejoin="round"/>
<path fill-rule="evenodd" clip-rule="evenodd" d="M81.405 109.351L83.3052 110.538L85.6265 110.695L86.9596 112.865L89.0469 114.426L89.5147 117.086L90.8887 119.682L90.38 122.22L90.7308 125.266L89.3568 127.102L88.6025 129.897L86.6848 130.61L85.0008 132.51L81.8844 132.89L83.5684 130.984L85.4861 130.277L86.2404 127.482L87.6144 125.646L87.2636 122.6L87.7723 120.062L86.3983 117.46L85.9305 114.8L83.849 113.245L82.5101 111.075L80.1947 110.912L78.2944 109.725L81.405 109.351Z" fill="#8145FF" stroke="#481B92" stroke-width="0.5" stroke-miterlimit="22.9256" stroke-linecap="round" stroke-linejoin="round"/>
<path fill-rule="evenodd" clip-rule="evenodd" d="M78.2943 109.725L80.1946 110.912L82.51 111.075L83.8489 113.244L85.9304 114.8L86.3982 117.46L87.7722 120.062L87.2635 122.6L87.6143 125.646L86.2403 127.482L85.486 130.277L83.5683 130.984L81.8843 132.89L79.8613 132.311L77.6278 132.89L75.9556 131.159L73.6928 130.277L72.7632 127.786L70.9799 125.646L71.0032 122.968L70.1145 120.062L71.0851 117.811L71.2897 114.8L72.9853 113.49L74.2424 111.075L76.2713 111.005L78.2943 109.725Z" fill="#BC87FF" stroke="#481B92" stroke-width="0.5" stroke-miterlimit="22.9256" stroke-linecap="round" stroke-linejoin="round"/>
<path fill-rule="evenodd" clip-rule="evenodd" d="M78.3527 113.408C78.4872 113.408 78.6217 113.414 78.7503 113.426C75.7976 113.718 73.7395 117.179 74.0962 121.418C74.4704 125.845 77.3354 129.429 80.4986 129.429C81.0014 129.429 81.4808 129.335 81.9369 129.166C81.2703 129.61 80.5161 129.85 79.6975 129.85C76.5343 129.85 73.6694 126.166 73.2952 121.629C72.9268 117.086 75.1895 113.408 78.3527 113.408Z" fill="white" stroke="#481B92" stroke-width="0.5" stroke-miterlimit="22.9256" stroke-linecap="round" stroke-linejoin="round"/>
<path fill-rule="evenodd" clip-rule="evenodd" d="M79.1538 113.408C82.3169 113.408 85.1819 116.992 85.5561 121.418C85.9303 125.845 83.6617 129.429 80.4986 129.429C77.3354 129.429 74.4704 125.845 74.0962 121.418C73.7278 116.992 75.9906 113.408 79.1538 113.408Z" fill="white" stroke="#481B92" stroke-width="0.5" stroke-miterlimit="22.9256" stroke-linecap="round" stroke-linejoin="round"/>
<path fill-rule="evenodd" clip-rule="evenodd" d="M76.3531 131.569C75.7743 135.744 74.7452 139.649 73.5408 143.444C74.7979 142.918 76.0549 142.392 77.3062 141.865C78.2709 141.462 79.2298 141.058 80.1945 140.655C81.8141 142.432 83.4337 144.21 85.0533 145.987C87.1758 140.637 88.5907 135.048 88.8246 129.066L88.6024 129.891L86.6846 130.604L84.9949 132.504L81.8785 132.884L79.8554 132.311L77.6219 132.884L76.3531 131.569Z" fill="#D006F1" stroke="#481B92" stroke-width="0.5" stroke-miterlimit="22.9256" stroke-linecap="round" stroke-linejoin="round"/>
<path fill-rule="evenodd" clip-rule="evenodd" d="M76.8735 123.536C77.4758 123.085 77.9962 122.682 78.4347 122.337C78.8732 121.992 79.2415 121.682 79.5339 121.407C79.8262 121.132 80.0426 120.881 80.1829 120.653C80.3232 120.425 80.3934 120.197 80.3934 119.981C80.3934 119.601 80.3115 119.314 80.1537 119.109C79.9958 118.911 79.6801 118.764 79.2123 118.671C78.9375 118.618 78.651 118.589 78.3411 118.595C78.0312 118.595 77.6921 118.642 77.3179 118.735V116.63C77.6512 116.554 78.0254 116.519 78.4405 116.525C78.8556 116.537 79.2766 116.584 79.7034 116.665C80.6623 116.852 81.4049 117.227 81.9253 117.782C82.4457 118.338 82.7088 119.045 82.7088 119.905C82.7088 120.255 82.6854 120.577 82.6386 120.863C82.5918 121.15 82.4866 121.431 82.3229 121.711C82.1591 121.992 81.9194 122.29 81.5979 122.6C81.2763 122.91 80.8436 123.267 80.2998 123.652L79.7385 124.056V124.138L82.7906 124.74V126.827L76.8735 125.664V123.536Z" fill="#8145FF" stroke="#481B92" stroke-width="0.5" stroke-miterlimit="10" stroke-linecap="round" stroke-linejoin="round"/>
<path fill-rule="evenodd" clip-rule="evenodd" d="M73.5408 143.444L73.9091 144.239L80.7909 141.31L80.1945 140.661L73.5408 143.444Z" fill="#D006F1" stroke="#481B92" stroke-width="0.5" stroke-miterlimit="22.9256" stroke-linecap="round" stroke-linejoin="round"/>
<path fill-rule="evenodd" clip-rule="evenodd" d="M89.4384 126.997C89.877 133.896 88.1112 141.234 85.5619 146.906C85.3164 146.461 85.3047 146.438 85.0591 145.994C87.1815 140.644 88.5965 135.054 88.8303 129.073L89.3624 127.108L89.4384 126.997Z" fill="#D006F1" stroke="#481B92" stroke-width="0.5" stroke-miterlimit="22.9256" stroke-linecap="round" stroke-linejoin="round"/>
<path fill-rule="evenodd" clip-rule="evenodd" d="M140.019 94.5188C140.019 94.5069 140.025 94.6261 140.025 94.4771C140.025 94.3282 139.455 93.9648 138.757 93.9648C138.059 93.9648 137.49 94.3282 137.49 94.4771C137.49 94.6261 137.49 94.5069 137.495 94.5188H137.49L137.454 111.109C137.454 115.41 140.917 118.924 145.153 118.924H149.02H149.038C149.396 118.924 149.689 118.358 149.689 117.662C149.689 116.976 149.408 116.417 149.056 116.399H149.038H145.934C142.689 116.399 140.03 113.7 140.03 110.406L140.019 94.5188Z" fill="#481B92" stroke="#481B92" stroke-width="0.5" stroke-miterlimit="22.9256" stroke-linecap="round" stroke-linejoin="round"/>
<path fill-rule="evenodd" clip-rule="evenodd" d="M128.156 122.006C128.156 124.9 124.647 127.244 120.325 127.244C115.998 127.244 112.495 124.9 112.495 122.006V116.501C112.553 119.36 116.038 121.669 120.325 121.669C124.63 121.669 128.121 119.348 128.156 116.478V122.006Z" fill="#7B1EC4" stroke="#481B92" stroke-width="0.5" stroke-miterlimit="22.9256" stroke-linecap="round" stroke-linejoin="round"/>
<path fill-rule="evenodd" clip-rule="evenodd" d="M120.325 121.372C124.642 121.372 128.156 119.067 128.156 116.233C128.156 113.406 124.636 111.095 120.325 111.095C116.009 111.095 112.495 113.4 112.495 116.233C112.489 119.061 116.009 121.372 120.325 121.372Z" fill="white" stroke="#481B92" stroke-width="0.5" stroke-miterlimit="22.9256" stroke-linecap="round" stroke-linejoin="round"/>
<path fill-rule="evenodd" clip-rule="evenodd" d="M128.156 116.372C128.156 119.135 124.647 121.372 120.325 121.372C115.998 121.372 112.495 119.135 112.495 116.372V111.117C112.553 113.846 116.038 116.05 120.325 116.05C124.63 116.05 128.121 113.835 128.156 111.095V116.372Z" fill="#7B1EC4" stroke="#481B92" stroke-width="0.5" stroke-miterlimit="22.9256" stroke-linecap="round" stroke-linejoin="round"/>
<path fill-rule="evenodd" clip-rule="evenodd" d="M120.325 115.988C124.642 115.988 128.156 113.683 128.156 110.85C128.156 108.022 124.636 105.711 120.325 105.711C116.009 105.711 112.495 108.016 112.495 110.85C112.489 113.683 116.009 115.988 120.325 115.988Z" fill="#8145FF" stroke="#481B92" stroke-width="0.5" stroke-miterlimit="22.9256" stroke-linecap="round" stroke-linejoin="round"/>
<path fill-rule="evenodd" clip-rule="evenodd" d="M125.709 109.946C125.709 111.393 123.405 112.562 120.57 112.562C117.729 112.562 115.431 111.387 115.431 109.946V107.19C115.468 108.62 117.753 109.772 120.57 109.772C123.393 109.772 125.685 108.614 125.709 107.179V109.946Z" fill="#7B1EC4" stroke="#481B92" stroke-width="0.5" stroke-miterlimit="22.9256" stroke-linecap="round" stroke-linejoin="round"/>
<path fill-rule="evenodd" clip-rule="evenodd" d="M120.57 110.116C123.399 110.116 125.709 108.797 125.709 107.18C125.709 105.562 123.399 104.243 120.57 104.243C117.741 104.243 115.431 105.562 115.431 107.18C115.425 108.797 117.735 110.116 120.57 110.116Z" fill="#8145FF" stroke="#481B92" stroke-width="0.5" stroke-miterlimit="22.9256" stroke-linecap="round" stroke-linejoin="round"/>
<path fill-rule="evenodd" clip-rule="evenodd" d="M116.905 90.0498H124.24V106.665V106.683C124.24 107.769 122.601 108.647 120.579 108.647C118.556 108.647 116.917 107.769 116.917 106.683V106.665H116.899V90.0498H116.905Z" fill="#7B1EC4" stroke="#481B92" stroke-width="0.5" stroke-miterlimit="22.9256" stroke-linecap="round" stroke-linejoin="round"/>
<path fill-rule="evenodd" clip-rule="evenodd" d="M118.247 102.259C106.988 101.913 98.0178 97.9111 97.3607 92.9167C97.3255 92.5765 97.3196 92.2591 97.3255 92.1627V81.1478C97.5191 86.6581 106.437 91.1593 117.783 91.6468C118.998 91.6978 120.2 91.7035 121.415 91.6638C132.99 91.284 142.154 86.7318 142.348 81.1478V92.1684C142.354 92.2647 142.319 92.843 142.313 92.9223C141.661 97.8941 132.75 101.885 121.55 102.259C120.453 102.293 119.35 102.293 118.247 102.259ZM97.3255 80.7907V80.751V80.7907Z" fill="#7B1EC4" stroke="#481B92" stroke-width="0.5" stroke-miterlimit="22.9256" stroke-linecap="round" stroke-linejoin="round"/>
<path d="M119.836 91.5182C132.269 91.5182 142.349 86.5882 142.349 80.5067C142.349 74.4252 132.269 69.4951 119.836 69.4951C107.403 69.4951 97.3235 74.4252 97.3235 80.5067C97.3235 86.5882 107.403 91.5182 119.836 91.5182Z" fill="#8145FF" stroke="#481B92" stroke-width="0.5" stroke-miterlimit="22.9256" stroke-linecap="round" stroke-linejoin="round"/>
<path fill-rule="evenodd" clip-rule="evenodd" d="M146.246 12.2354C146.258 12.5182 146.264 12.8069 146.264 13.0956L146.246 35.2903C146.235 47.9107 134.91 58.2392 121.051 58.2392C107.197 58.2392 95.8437 47.9107 95.8552 35.2903L95.8726 13.5551C96.5902 20.7256 107.585 26.4171 121.039 26.4171C134.956 26.4171 146.241 20.3249 146.241 12.8069C146.241 12.6124 146.229 12.4239 146.217 12.2354H146.246V12.2354Z" fill="#8145FF" stroke="#481B92" stroke-width="0.5" stroke-miterlimit="22.9256" stroke-linecap="round" stroke-linejoin="round"/>
<path fill-rule="evenodd" clip-rule="evenodd" d="M118.835 84.65C111.74 84.4346 106.078 81.98 105.667 78.9189C105.643 78.7091 105.643 78.5164 105.643 78.454V71.6969C105.765 75.0811 111.387 77.8418 118.539 78.1423C119.305 78.1763 120.065 78.1763 120.831 78.1536C128.129 77.9212 133.907 75.1265 134.029 71.6969V78.454C134.029 78.5107 134.011 78.8679 134.005 78.9189C133.594 81.9687 127.978 84.4176 120.918 84.65C120.222 84.6727 119.531 84.6727 118.835 84.65ZM105.643 71.4758V71.4531V71.4758Z" fill="#8145FF" stroke="#481B92" stroke-width="0.5" stroke-miterlimit="22.9256" stroke-linecap="round" stroke-linejoin="round"/>
<path fill-rule="evenodd" clip-rule="evenodd" d="M119.836 78.3048C127.654 78.3048 134.029 75.2242 134.029 71.4532C134.029 67.6762 127.654 64.6016 119.836 64.6016C112.018 64.6016 105.643 67.6821 105.643 71.4532C105.643 75.2242 112.018 78.3048 119.836 78.3048Z" fill="#BC87FF" stroke="#481B92" stroke-width="0.5" stroke-miterlimit="22.9256" stroke-linecap="round" stroke-linejoin="round"/>
<path fill-rule="evenodd" clip-rule="evenodd" d="M125.415 58.289C124.948 62.8214 125.185 67.2611 126.143 71.6023C126.374 72.6339 125.835 73.2078 125.344 73.5265C124.019 74.3727 122.066 74.9175 119.836 74.877C117.605 74.9175 115.653 74.3727 114.327 73.5265C113.836 73.2135 113.298 72.6339 113.529 71.6023C114.529 67.093 114.742 62.4737 114.197 57.75C116.422 58.3006 118.765 58.5962 121.179 58.5962C122.623 58.602 124.037 58.4919 125.415 58.289Z" fill="#8126F5" stroke="#481B92" stroke-width="0.5" stroke-miterlimit="22.9256" stroke-linecap="round" stroke-linejoin="round"/>
<path d="M121.059 26.9171C134.979 26.9171 146.264 20.8916 146.264 13.4586C146.264 6.02561 134.979 0 121.059 0C107.14 0 95.8552 6.02561 95.8552 13.4586C95.8552 20.8916 107.14 26.9171 121.059 26.9171Z" fill="#8145FF" stroke="#481B92" stroke-width="0.5" stroke-miterlimit="22.9256" stroke-linecap="round" stroke-linejoin="round"/>
<path fill-rule="evenodd" clip-rule="evenodd" d="M98.3021 6.81273C95.4494 5.73868 92.6025 4.67046 89.7497 3.59641C89.0132 3.41546 88.1772 3.36293 87.1776 3.5147C85.5583 4.44282 83.9332 5.37093 82.3139 6.29905C75.8076 12.4748 90.5506 31.9653 95.4318 36.7052C95.4026 36.2615 95.3851 35.8179 95.3851 35.3684L95.3909 30.8388C92.5323 26.992 90.0186 22.8009 87.996 18.1078C87.1191 16.1932 86.7333 14.2844 87.0782 12.3698C87.3413 11.5234 87.9492 11.0447 88.8202 10.8521C91.0066 12.0662 93.1929 13.2862 95.3851 14.5003L95.4026 14.4478V13.8349C95.3792 13.5897 95.3617 13.3446 95.3617 13.0936C95.3734 10.8287 96.4314 8.69231 98.3021 6.81273ZM95.4143 13.8466C95.4201 13.8991 95.426 13.9517 95.4318 13.9984C95.426 13.9458 95.4201 13.8991 95.4143 13.8466Z" fill="#8126F5" stroke="#481B92" stroke-width="0.5" stroke-miterlimit="22.9256" stroke-linecap="round" stroke-linejoin="round"/>
<path fill-rule="evenodd" clip-rule="evenodd" d="M98.3022 7.08128C95.4727 5.92207 92.649 4.76915 89.8195 3.60994C89.0889 3.41464 88.2598 3.35795 87.2683 3.52175C85.726 4.48566 84.1837 5.44326 82.6414 6.40717C83.9923 5.97246 85.3491 5.73936 86.7001 5.95356L95.9714 10.7668L95.9946 10.7038C96.1221 10.3762 96.2613 10.0612 96.4236 9.73991L96.4526 9.68321C96.5628 9.46901 96.6846 9.24849 96.8179 9.04059L96.8527 8.98389C97.044 8.67519 97.2528 8.3728 97.4789 8.07039L97.5195 8.01368C97.5891 7.91918 97.6644 7.82469 97.7398 7.73649L97.7862 7.67977C97.9486 7.47817 98.1225 7.28289 98.3022 7.08759V7.08128Z" fill="#8145FF" stroke="#481B92" stroke-width="0.5" stroke-miterlimit="22.9256" stroke-linecap="round" stroke-linejoin="round"/>
<path fill-rule="evenodd" clip-rule="evenodd" d="M91.5312 12.6096C91.5312 12.6096 90.836 15.0709 92.9888 19.1086C94.1597 21.3003 95.1721 22.9881 95.8551 24.0781L95.849 31.3214C92.8668 27.4595 90.2444 23.2518 88.1343 18.5402C87.2195 16.618 86.8169 14.7017 87.1768 12.7795C87.4512 11.9298 88.0855 11.4492 88.9942 11.2559L91.5312 12.6096Z" fill="#7B1EC4" stroke="#481B92" stroke-width="0.5" stroke-miterlimit="22.9256" stroke-linecap="round" stroke-linejoin="round"/>
<path fill-rule="evenodd" clip-rule="evenodd" d="M99.2958 104.668C99.2958 104.68 99.3014 104.698 99.3014 104.71C99.3014 104.99 98.755 105.222 98.0846 105.222C97.4142 105.222 96.8678 104.996 96.8678 104.71C96.8678 104.698 96.8678 104.68 96.8734 104.668H96.8678L96.834 99.3253C96.834 95.0293 100.158 91.5187 104.225 91.5187H107.937H107.954C108.298 91.5068 108.58 92.0899 108.58 92.7802C108.58 93.4704 108.309 94.0237 107.971 94.0416H107.954H104.974C101.859 94.0416 99.307 96.737 99.307 100.027L99.2958 104.668Z" fill="#A508EF" stroke="#481B92" stroke-width="0.5" stroke-miterlimit="22.9256" stroke-linecap="round" stroke-linejoin="round"/>
<path d="M121.304 23.4917C133.467 23.4917 143.327 18.6712 143.327 12.7249C143.327 6.7785 133.467 1.95801 121.304 1.95801C109.141 1.95801 99.281 6.7785 99.281 12.7249C99.281 18.6712 109.141 23.4917 121.304 23.4917Z" fill="#7B1EC4" stroke="#481B92" stroke-width="0.5" stroke-miterlimit="22.9256" stroke-linecap="round" stroke-linejoin="round"/>
<path fill-rule="evenodd" clip-rule="evenodd" d="M141.289 23.6293L141.254 23.5592L144.733 21.5361L151.205 24.407C161.613 30.3942 161.221 44.0818 150.796 47.5315C157.883 42.5616 156.947 31.5285 147.855 26.3014L141.289 23.6293Z" stroke="#481B92" stroke-width="0.5" stroke-miterlimit="22.9256" stroke-linecap="round" stroke-linejoin="round"/>
<path fill-rule="evenodd" clip-rule="evenodd" d="M140.704 44.5847C141.435 43.7954 142.166 43.0061 142.897 42.2167C147.446 43.0879 148.767 39.6967 149.334 35.3057C149.732 39.0945 147.44 43.7311 144.359 44.4444C142.324 44.5672 141.558 44.5789 140.704 44.5847Z" stroke="#481B92" stroke-width="0.5" stroke-miterlimit="22.9256" stroke-linecap="round" stroke-linejoin="round"/>
<path fill-rule="evenodd" clip-rule="evenodd" d="M140.751 49.9643C157.491 50.8706 160.116 33.3532 147.855 26.3019C145.639 25.4014 143.417 24.4952 141.201 23.5947C141.201 25.1266 141.201 26.6585 141.201 28.1904C143.33 29.3247 145.452 30.459 147.58 31.5992C151.375 34.9611 148.621 43.4625 144.359 44.4507C142.324 44.5676 141.558 44.5851 140.704 44.591C140.716 45.5148 140.745 48.4792 140.751 49.9643Z" stroke="#481B92" stroke-width="0.5" stroke-miterlimit="22.9256" stroke-linecap="round" stroke-linejoin="round"/>
<path fill-rule="evenodd" clip-rule="evenodd" d="M126.222 121.12L144.4 127.376L163.092 121.178L144.341 115.519L126.222 121.12Z" fill="#D006F1" stroke="#481B92" stroke-width="0.5" stroke-miterlimit="22.9256" stroke-linecap="round" stroke-linejoin="round"/>
<path fill-rule="evenodd" clip-rule="evenodd" d="M126.222 121.12L144.341 127.353V148.712L126.222 141.45V121.12Z" fill="#D006F1" stroke="#481B92" stroke-width="0.5" stroke-miterlimit="22.9256" stroke-linecap="round" stroke-linejoin="round"/>
<path fill-rule="evenodd" clip-rule="evenodd" d="M163.361 121.12L144.341 127.353V148.712L163.361 138.83V121.12Z" fill="#D006F1" stroke="#481B92" stroke-width="0.5" stroke-miterlimit="22.9256" stroke-linecap="round" stroke-linejoin="round"/>
<path fill-rule="evenodd" clip-rule="evenodd" d="M141.405 23.6228L141.37 23.5528L144.86 21.5342L151.353 24.3987C161.794 30.3728 161.401 44.0304 150.943 47.4725C158.052 42.5135 157.113 31.5046 147.992 26.289L141.405 23.6228Z" fill="#8145FF" stroke="#481B92" stroke-width="0.5" stroke-miterlimit="22.9256" stroke-linecap="round" stroke-linejoin="round"/>
<path fill-rule="evenodd" clip-rule="evenodd" d="M140.88 44.536C141.581 43.745 142.282 42.9539 142.983 42.1629C147.346 43.036 148.613 39.6376 149.157 35.2373C149.538 39.0341 147.34 43.6805 144.385 44.3953C142.433 44.5184 141.699 44.5301 140.88 44.536Z" fill="#7B1EC4" stroke="#481B92" stroke-width="0.5" stroke-miterlimit="22.9256" stroke-linecap="round" stroke-linejoin="round"/>
<path fill-rule="evenodd" clip-rule="evenodd" d="M140.927 49.885C157.556 50.7922 160.164 33.2587 147.984 26.2008C145.782 25.2996 143.575 24.3925 141.374 23.4912C141.374 25.0245 141.374 26.5578 141.374 28.0911C143.488 29.2265 145.596 30.3618 147.711 31.503C151.48 34.8681 148.745 43.3773 144.51 44.3663C142.489 44.4834 141.728 44.5009 140.88 44.5068C140.892 45.4315 140.921 48.3986 140.927 49.885Z" fill="#8126F5" stroke="#481B92" stroke-width="0.5" stroke-miterlimit="22.9256" stroke-linecap="round" stroke-linejoin="round"/>
<path fill-rule="evenodd" clip-rule="evenodd" d="M109.64 86.2218C108.909 91.4606 107.623 96.3662 106.109 101.131C107.687 100.471 109.26 99.81 110.839 99.1493C112.049 98.6465 113.254 98.1378 114.464 97.635C116.499 99.8685 118.533 102.102 120.568 104.33C123.234 97.6058 125.006 90.5895 125.304 83.0762L125.023 84.1169L122.614 85.0115L120.498 87.4029L116.586 87.8765L114.043 87.1515L111.236 87.8765L109.64 86.2218Z" fill="#D006F1" stroke="#481B92" stroke-width="0.5" stroke-miterlimit="22.9256" stroke-linecap="round" stroke-linejoin="round"/>
<path fill-rule="evenodd" clip-rule="evenodd" d="M106.109 101.132L106.571 102.132L115.212 98.4543L114.464 97.6357L106.109 101.132Z" fill="#D006F1" stroke="#481B92" stroke-width="0.5" stroke-miterlimit="22.9256" stroke-linecap="round" stroke-linejoin="round"/>
<path fill-rule="evenodd" clip-rule="evenodd" d="M126.07 80.4746C126.619 89.1397 124.403 98.3486 121.199 105.476C120.889 104.921 120.878 104.891 120.568 104.33C123.234 97.6061 125.006 90.5898 125.304 83.0765L125.97 80.6091L126.07 80.4746Z" fill="#D006F1" stroke="#481B92" stroke-width="0.5" stroke-miterlimit="22.9256" stroke-linecap="round" stroke-linejoin="round"/>
<path fill-rule="evenodd" clip-rule="evenodd" d="M111.956 61.8117L114.727 62.3262L117.504 61.4375L120.071 63.3611L123.223 64.2148L124.994 67.109L127.801 69.5062L128.374 72.7045L130.192 76.1016L129.438 78.8789L129.847 82.4864L127.935 84.2054L126.842 87.2049L123.38 89.0817L124.474 86.0822L126.38 84.3691L125.976 80.7557L126.731 77.9784L124.912 74.5872L124.339 71.3831L121.533 68.9859L119.761 66.0916L116.604 65.238L114.043 63.3202L111.26 64.2031L108.494 63.6944L111.956 61.8117Z" fill="#8145FF" stroke="#481B92" stroke-width="0.5" stroke-miterlimit="22.9256" stroke-linecap="round" stroke-linejoin="round"/>
<path fill-rule="evenodd" clip-rule="evenodd" d="M108.494 63.6945L111.26 64.2032L114.043 63.3203L116.604 65.2381L119.761 66.0917L121.533 68.986L124.339 71.3832L124.912 74.5873L126.731 77.9785L125.971 80.7558L126.38 84.3692L124.474 86.0823L123.38 89.0818L120.749 89.3449L118.411 91.0464L115.662 89.801L112.605 89.8127L110.371 87.3336L107.301 85.6555L106.097 82.5216L103.717 79.5396L103.811 76.4583L102.665 72.8508L104.039 70.5413L104.39 67.1325L106.728 66.1151L108.494 63.6945Z" fill="#BC87FF" stroke="#481B92" stroke-width="0.5" stroke-miterlimit="22.9256" stroke-linecap="round" stroke-linejoin="round"/>
<path fill-rule="evenodd" clip-rule="evenodd" d="M110.266 67.9625C110.424 67.8982 110.581 67.8456 110.739 67.7988C107.424 69.5003 106.623 74.4994 108.991 79.2763C111.464 84.2696 116.469 87.1346 120.165 85.6728C120.755 85.439 121.275 85.1115 121.72 84.7023C121.147 85.5267 120.375 86.1581 119.422 86.5382C115.727 87.9999 110.681 85.0238 108.149 79.8902C105.623 74.7683 106.57 69.4243 110.266 67.9625Z" fill="white" stroke="#481B92" stroke-width="0.5" stroke-miterlimit="22.9256" stroke-linecap="round" stroke-linejoin="round"/>
<path fill-rule="evenodd" clip-rule="evenodd" d="M111.201 67.5946C114.897 66.1329 119.901 68.9979 122.375 73.9911C124.848 78.9844 123.86 84.2174 120.165 85.6791C116.469 87.1408 111.464 84.2758 108.991 79.2826C106.518 74.2893 107.506 69.0563 111.201 67.5946Z" fill="white" stroke="#481B92" stroke-width="0.5" stroke-miterlimit="22.9256" stroke-linecap="round" stroke-linejoin="round"/>
<path fill-rule="evenodd" clip-rule="evenodd" d="M114.306 73.1902L111.347 73.2312L111.464 70.413L115.206 70.3545L117.773 70.8281L117.253 83.054L113.914 82.4401L114.306 73.1902Z" fill="#8145FF" stroke="#481B92" stroke-width="0.5" stroke-miterlimit="10" stroke-linecap="round" stroke-linejoin="round"/>
<path fill-rule="evenodd" clip-rule="evenodd" d="M152.831 108.374L150.931 109.561L148.615 109.725L147.276 111.894L145.195 113.455L144.727 116.109L143.353 118.711L143.862 121.249L143.511 124.295L144.885 126.131L145.639 128.926L147.557 129.633L149.241 131.54L152.357 131.914L150.668 130.013L148.75 129.3L147.995 126.505L146.627 124.675L146.978 121.629L146.464 119.091L147.843 116.49L148.305 113.829L150.393 112.274L151.732 110.099L154.047 109.941L155.947 108.754L152.831 108.374Z" fill="#8145FF" stroke="#481B92" stroke-width="0.5" stroke-miterlimit="22.9256" stroke-linecap="round" stroke-linejoin="round"/>
<path fill-rule="evenodd" clip-rule="evenodd" d="M155.947 108.754L154.047 109.941L151.732 110.099L150.393 112.274L148.305 113.829L147.843 116.489L146.464 119.091L146.978 121.629L146.627 124.675L147.996 126.505L148.75 129.3L150.668 130.013L152.357 131.914L154.38 131.341L156.614 131.914L158.28 130.183L160.549 129.3L161.478 126.815L163.262 124.675L163.238 121.997L164.127 119.091L163.157 116.834L162.946 113.829L161.256 112.519L159.999 110.099L157.964 110.029L155.947 108.754Z" fill="#BC87FF" stroke="#481B92" stroke-width="0.5" stroke-miterlimit="22.9256" stroke-linecap="round" stroke-linejoin="round"/>
<path fill-rule="evenodd" clip-rule="evenodd" d="M155.889 112.438C155.754 112.438 155.62 112.443 155.491 112.455C158.444 112.747 160.502 116.209 160.145 120.442C159.771 124.868 156.906 128.452 153.743 128.452C153.24 128.452 152.761 128.359 152.305 128.189C152.971 128.633 153.725 128.873 154.544 128.873C157.707 128.873 160.572 125.19 160.946 120.652C161.315 116.115 159.052 112.438 155.889 112.438Z" fill="white" stroke="#481B92" stroke-width="0.5" stroke-miterlimit="22.9256" stroke-linecap="round" stroke-linejoin="round"/>
<path fill-rule="evenodd" clip-rule="evenodd" d="M155.082 112.438C151.919 112.438 149.054 116.022 148.68 120.448C148.305 124.874 150.574 128.458 153.737 128.458C156.9 128.458 159.765 124.874 160.139 120.448C160.514 116.022 158.251 112.438 155.082 112.438Z" fill="white" stroke="#481B92" stroke-width="0.5" stroke-miterlimit="22.9256" stroke-linecap="round" stroke-linejoin="round"/>
<path fill-rule="evenodd" clip-rule="evenodd" d="M157.883 130.598C158.461 134.773 159.491 138.679 160.695 142.473C159.438 141.947 158.181 141.421 156.93 140.895C155.965 140.491 155.006 140.088 154.041 139.684C152.422 141.462 150.802 143.239 149.182 145.017C147.06 139.667 145.645 134.077 145.411 128.096L145.633 128.92L147.551 129.633L149.241 131.534L152.357 131.914L154.38 131.341L156.614 131.914L157.883 130.598Z" fill="#8145FF" stroke="#481B92" stroke-width="0.5" stroke-miterlimit="22.9256" stroke-linecap="round" stroke-linejoin="round"/>
<path fill-rule="evenodd" clip-rule="evenodd" d="M160.701 142.474L160.333 143.269L153.451 140.339L154.047 139.685L160.701 142.474Z" fill="#8145FF" stroke="#481B92" stroke-width="0.5" stroke-miterlimit="22.9256" stroke-linecap="round" stroke-linejoin="round"/>
<path fill-rule="evenodd" clip-rule="evenodd" d="M144.803 126.021C144.364 132.92 146.13 140.258 148.679 145.929C148.925 145.485 148.937 145.461 149.182 145.017C147.06 139.667 145.645 134.078 145.411 128.096L144.879 126.132L144.803 126.021Z" fill="#8145FF" stroke="#481B92" stroke-width="0.5" stroke-miterlimit="22.9256" stroke-linecap="round" stroke-linejoin="round"/>
<path fill-rule="evenodd" clip-rule="evenodd" d="M153.766 125.634C153.345 125.68 152.983 125.704 152.673 125.71C152.363 125.715 152.077 125.704 151.808 125.669L151.889 123.552C152.199 123.587 152.492 123.616 152.761 123.622C153.03 123.634 153.334 123.622 153.661 123.587C153.866 123.564 154.065 123.535 154.257 123.488C154.45 123.447 154.614 123.383 154.766 123.301C154.912 123.219 155.029 123.108 155.117 122.973C155.205 122.839 155.251 122.663 155.257 122.447C155.263 122.26 155.222 122.114 155.14 122.009C155.053 121.903 154.93 121.827 154.772 121.775C154.614 121.728 154.421 121.704 154.205 121.704C153.983 121.704 153.737 121.722 153.462 121.751L152.819 121.821L152.889 119.921L153.521 119.857C153.766 119.828 153.994 119.804 154.205 119.769C154.415 119.74 154.597 119.687 154.754 119.611C154.906 119.535 155.035 119.436 155.129 119.307C155.222 119.179 155.275 119.003 155.287 118.781C155.292 118.611 155.263 118.483 155.199 118.389C155.135 118.296 155.041 118.226 154.918 118.185C154.795 118.144 154.655 118.126 154.491 118.126C154.328 118.126 154.152 118.138 153.971 118.155C153.696 118.185 153.416 118.243 153.117 118.325C152.819 118.407 152.562 118.5 152.346 118.594L152.422 116.6C152.521 116.553 152.644 116.507 152.79 116.46C152.936 116.413 153.1 116.366 153.275 116.319C153.451 116.273 153.638 116.232 153.836 116.197C154.029 116.156 154.222 116.127 154.41 116.109C154.895 116.056 155.345 116.051 155.754 116.086C156.164 116.121 156.514 116.22 156.807 116.39C157.099 116.559 157.327 116.799 157.479 117.121C157.637 117.442 157.701 117.851 157.684 118.354C157.666 118.752 157.561 119.138 157.362 119.5C157.163 119.869 156.824 120.161 156.339 120.389L156.333 120.471C156.801 120.535 157.158 120.751 157.403 121.114C157.655 121.476 157.766 121.921 157.748 122.453C157.731 122.956 157.625 123.394 157.438 123.763C157.251 124.131 156.988 124.447 156.649 124.698C156.31 124.955 155.9 125.16 155.421 125.306C154.936 125.464 154.386 125.569 153.766 125.634Z" fill="#8145FF" stroke="#481B92" stroke-width="0.5" stroke-miterlimit="10" stroke-linecap="round" stroke-linejoin="round"/>
<path d="M21.8377 86.5819C26.0361 83.9401 32.7057 83.8543 36.7207 86.3854C36.7851 86.426 36.8496 86.4666 36.914 86.5072C36.1123 85.9298 35.3466 85.5191 34.52 84.998C30.505 82.4669 23.8354 82.5528 19.637 85.1945C15.4386 87.8363 15.2961 92.0369 19.3111 94.568C20.2236 95.1433 20.8479 95.6294 22.0271 96.2802C22.2474 96.3985 22.4652 96.5049 22.7074 96.5959C22.296 96.4086 21.8983 96.199 21.5226 95.9621C17.4887 93.4294 17.6312 89.2288 21.8377 86.5819Z" fill="#8145FF" stroke="#481B92" stroke-width="0.5" stroke-miterlimit="10"/>
<path d="M36.9142 86.5072C36.8498 86.4666 36.7854 86.426 36.7209 86.3854C32.7059 83.8542 26.0363 83.9401 21.8379 86.5819C17.6396 89.2236 17.497 93.4242 21.512 95.9553C21.8878 96.1922 22.2854 96.4017 22.6969 96.5891C26.752 98.4459 32.5887 98.1539 36.4032 95.7537C40.5281 93.1582 40.7371 89.051 36.9142 86.5072Z" fill="#BC87FF" stroke="#481B92" stroke-width="0.5" stroke-miterlimit="10"/>
<path d="M23.547 95.2842C26.7427 97.2988 32.0432 97.2269 35.3859 95.1235C38.7286 93.0202 38.8478 89.6819 35.6521 87.6673C32.4564 85.6527 27.1559 85.7246 23.8132 87.828C20.4705 89.9313 20.3513 93.2696 23.547 95.2842Z" fill="white" stroke="#5B12B7" stroke-width="0.5"/>
<path d="M25.6245 91.84C25.5755 91.8709 25.5428 91.8914 25.4621 91.8611L24.5197 91.5345L23.7055 92.0604L25.4313 92.6648L24.2413 93.4271L25.1648 93.752L26.3548 92.9898L26.9363 93.1918L25.7464 93.9541L26.6295 94.2638L27.8194 93.5015L28.4818 93.7339C28.9233 93.8888 30.8169 94.2388 32.0452 93.4389C32.7691 93.0105 32.8568 92.4279 32.2531 92.037C32.2531 92.037 33.6017 92.0538 34.2944 91.5233C34.987 90.9928 34.4752 90.5981 34.1777 90.3797C33.9389 90.2189 33.6461 90.0651 33.3231 89.9438L34.5702 89.1455L33.7357 88.8458L32.5074 89.6457L31.8262 89.4117L33.0733 88.6134L32.2117 88.3172L30.9646 89.1155L29.1687 88.4875L28.4362 88.962L29.4189 89.3037C29.5186 89.3357 29.4777 89.3614 29.4451 89.3819L25.6245 91.84ZM31.0829 89.8794L32.1357 90.2447C32.3161 90.307 33.0577 90.6922 32.4314 91.0999C32.0827 91.3328 31.4815 91.4271 31.0043 91.3217C30.9072 91.3017 30.8101 91.2816 30.7294 91.2513L29.5851 90.8489L31.0829 89.8794ZM28.8225 91.3559L30.4486 91.9283C30.9224 92.1035 30.9698 92.4523 30.5613 92.7093C30.545 92.7196 30.5368 92.7247 30.5205 92.735C30.0248 93.0604 29.2927 93.0207 28.9637 92.9573C28.9151 92.9473 28.8666 92.9373 28.8262 92.9221L27.243 92.3768L28.8225 91.3559Z" fill="#8145FF"/>
<path d="M29.8145 83.333L31.8403 84.7298" stroke="#481B92" stroke-width="0.5"/>
<path d="M25.8038 83.1508L27.9587 84.675" stroke="#481B92" stroke-width="0.5"/>
<path d="M21.887 83.9994L24.042 85.5236" stroke="#481B92" stroke-width="0.5"/>
<path d="M18.5208 85.9334L21.0416 87.2056" stroke="#481B92" stroke-width="0.5"/>
<path d="M16.6788 88.533L18.9911 89.359" stroke="#481B92" stroke-width="0.5"/>
<path d="M16.5352 91.0965L18.6279 91.6355" stroke="#481B92" stroke-width="0.5"/>
<path d="M17.8009 93.2477L19.1805 93.5636" stroke="#481B92" stroke-width="0.5"/>
<path d="M58.6934 49.8155L52.3082 32.4974L64.6446 41.1932L58.6934 49.8155Z" fill="#8145FF" stroke="#481B92" stroke-width="0.5" stroke-miterlimit="10"/>
<path d="M49.1117 48.0433L52.0572 32.6118L58.791 49.9638L49.1117 48.0433Z" fill="#BC87FF" stroke="#481B92" stroke-width="0.5" stroke-miterlimit="10"/>
<path d="M59.7415 51.9358L49.7385 50.9922L62.0056 59.2037L59.7415 51.9358Z" fill="#BC87FF" stroke="#481B92" stroke-width="0.5" stroke-miterlimit="10"/>
<path d="M62.2431 59.0015L64.7478 43.9133L59.6937 51.9334L62.2431 59.0015Z" fill="#8145FF" stroke="#481B92" stroke-width="0.5" stroke-miterlimit="10"/>
<path d="M62.8932 43.6146L64.624 44.131L59.736 51.9969L49.3956 50.6275L51.477 48.5279L58.7557 49.8486L62.8932 43.6146Z" fill="#8126F5" stroke="#481B92" stroke-width="0.5" stroke-miterlimit="10"/>
<path d="M112.99 34.0356L114.281 34.194C114.321 34.2883 114.354 34.3853 114.38 34.4843C114.551 35.4818 115.176 36.0912 116.14 36.3612C116.821 36.5505 117.527 36.6483 118.213 36.8178C120.102 37.2803 121.123 38.5402 121.53 40.3252C121.677 40.9753 121.867 41.6308 121.606 42.3461L120.424 42.2011C120.361 41.885 120.314 41.566 120.285 41.2454C120.221 39.6257 118.763 38.2442 117.071 38.0808C115.223 37.9031 114.495 37.4803 113.415 36.1641C113.289 36.1916 113.17 36.2388 113.06 36.3039C112.077 37.1314 110.92 37.3055 109.673 37.1777C108.992 37.1068 108.32 37.0212 107.637 37.2296C106.457 37.5905 105.733 38.3676 105.331 39.475C105.23 39.7534 105.145 40.0384 105.051 40.3272L103.861 40.1811C103.953 38.0323 105.669 35.7667 108.166 35.6243C108.728 35.5921 109.295 35.6712 109.863 35.6951C110.7 35.7283 111.542 35.7242 112.182 35.0979C112.475 34.8084 112.685 34.4423 112.99 34.0356Z" fill="#F9F8FA"/>
<path d="M103.551 41.2542L104.829 41.411C104.853 41.7118 104.876 41.9782 104.89 42.2466C105.003 43.9839 105.949 45.0279 107.746 45.353C108.471 45.4856 109.209 45.5496 109.94 45.6394C112.067 45.9004 114.195 46.1476 116.32 46.4224C117.821 46.6159 119.383 45.8531 119.877 44.4196C120.002 44.056 120.15 43.6998 120.301 43.3036L121.484 43.4488C121.491 43.6436 121.481 43.8385 121.454 44.0314C120.782 46.8498 118.853 48.2179 115.892 47.9325C113.286 47.6813 110.688 47.3345 108.093 46.9832C106.618 46.7835 105.277 46.2742 104.385 45.02C103.583 43.8844 103.403 42.638 103.551 41.2542Z" fill="#F9F8FA"/>
<path d="M117.553 42.3405C117.446 43.2083 116.831 43.6803 115.953 43.5598C115.774 43.5349 115.602 43.4749 115.447 43.3834C115.292 43.2919 115.157 43.1707 115.049 43.0268C114.942 42.883 114.865 42.7194 114.822 42.5457C114.779 42.372 114.771 42.1916 114.799 42.0152C114.846 41.6462 115.035 41.3098 115.327 41.0771C115.619 40.8443 115.991 40.7335 116.365 40.7679C117.144 40.8462 117.651 41.5156 117.553 42.3405Z" fill="#F9F8FA"/>
<path d="M110.421 41.5245C110.311 42.3577 109.697 42.8115 108.846 42.6867C108.666 42.6607 108.493 42.6006 108.336 42.5096C108.18 42.4186 108.043 42.2986 107.934 42.1565C107.825 42.0144 107.746 41.853 107.701 41.6816C107.656 41.5101 107.646 41.332 107.672 41.1574C107.778 40.3878 108.459 39.8046 109.15 39.8815C110.057 39.985 110.542 40.6002 110.421 41.5245Z" fill="#F9F8FA"/>
<path d="M114.017 33.2133L113.416 33.1395C113.557 32.5897 113.335 32.2174 112.947 31.8232C112.514 31.3854 112.663 30.5251 113.162 30.0724C113.363 29.8849 113.629 29.7709 113.913 29.7502C114.197 29.7295 114.482 29.8035 114.717 29.9593C114.901 30.0849 115.05 30.2494 115.154 30.4391C115.258 30.6288 115.312 30.8382 115.313 31.05C115.313 31.2618 115.26 31.4699 115.158 31.657C115.055 31.8442 114.907 32.0051 114.724 32.1263C114.309 32.3977 114.009 32.6589 114.017 33.2133Z" fill="#F9F8FA"/>
<path d="M122.64 41.0635C123.639 41.186 124.035 41.6086 123.941 42.4648C123.883 42.9316 123.841 43.3988 123.769 43.8623C123.646 44.6412 123.101 44.9558 122.182 44.7939L122.64 41.0635Z" fill="#F9F8FA"/>
<path d="M103.048 38.659L102.592 42.3754C101.805 42.3873 101.361 41.9593 101.428 41.2034C101.473 40.7083 101.549 40.2186 101.609 39.7254C101.715 38.8379 102.102 38.5553 103.048 38.659Z" fill="#F9F8FA"/>
</g>
<defs>
<radialGradient id="paint0_radial_562_683" cx="0" cy="0" r="1" gradientUnits="userSpaceOnUse" gradientTransform="translate(181.531 50.0712) rotate(-90) scale(18.7483 18.7483)">
<stop stop-color="#EAD8FD" stop-opacity="0"/>
<stop offset="0.71456" stop-color="#EAD8FD" stop-opacity="0"/>
<stop offset="1" stop-color="#EDD8FD" stop-opacity="0.63"/>
</radialGradient>
<radialGradient id="paint1_radial_562_683" cx="0" cy="0" r="1" gradientUnits="userSpaceOnUse" gradientTransform="translate(59.368 43.921) rotate(-90) scale(19.8296 19.8296)">
<stop stop-color="#E8D8FD" stop-opacity="0"/>
<stop offset="0.71456" stop-color="#EFD8FD" stop-opacity="0.17"/>
<stop offset="1" stop-color="#EFD8FD"/>
</radialGradient>
<clipPath id="clip0_562_683">
<rect width="254" height="170.312" fill="white"/>
</clipPath>
</defs>
</svg>
