<svg width="238" height="233" viewBox="0 0 238 233" fill="none" xmlns="http://www.w3.org/2000/svg">
<path d="M185.985 161.774C185.985 171.925 178.894 181.162 167.329 187.875C155.77 194.585 139.785 198.743 122.114 198.743C104.444 198.743 88.4587 194.585 76.8996 187.875C65.3342 181.162 58.2437 171.925 58.2437 161.774V152.207H185.985V161.774Z" fill="#4F1B92" stroke="#4F1B92" stroke-width="0.5"/>
<path d="M185.649 150.168L185.985 159.739C185.983 169.889 178.893 179.124 167.329 185.836C155.77 192.546 139.785 196.704 122.114 196.704C104.444 196.704 88.4587 192.546 76.8996 185.836C65.3358 179.124 58.2456 169.889 58.2437 159.739L58.5588 150.168H185.649Z" fill="#B326F5" stroke="#4F1B92" stroke-width="0.5"/>
<path d="M185.985 152.366C185.985 162.517 178.894 171.754 167.329 178.467C155.77 185.177 139.785 189.334 122.114 189.334C104.444 189.334 88.4587 185.177 76.8997 178.467C65.3342 171.754 58.2437 162.517 58.2437 152.366C58.2437 142.215 65.3342 132.978 76.8997 126.265C88.4587 119.555 104.444 115.397 122.114 115.397C139.785 115.397 155.77 119.555 167.329 126.265C178.894 132.978 185.985 142.215 185.985 152.366Z" fill="#8145FF" stroke="url(#paint0_linear_562_772)" stroke-width="0.5"/>
<path d="M69.8382 150.393H84.5614V149.893H69.8382C69.9629 142.357 75.7181 135.485 85.0853 130.465C94.491 125.424 107.481 122.288 121.85 122.252V125.828H122.35V122.252C136.719 122.288 149.71 125.424 159.115 130.465C168.483 135.485 174.238 142.357 174.362 149.893H159.708V150.393H174.362C174.238 157.93 168.483 164.802 159.115 169.822C149.71 174.863 136.719 177.999 122.35 178.035V169.408H121.85V178.035C112.451 178.011 103.64 176.661 96.0357 174.318C85.7632 171.153 77.718 166.184 73.3838 160.251C71.142 157.182 69.8955 153.86 69.8382 150.393Z" stroke="#4F1B92" stroke-width="0.5"/>
<path opacity="0.3" d="M70.097 150.393H84.8202V149.893H70.097C70.2217 142.357 75.9769 135.485 85.3441 130.465C94.7498 125.424 107.74 122.288 122.109 122.252V125.828H122.609V122.252C136.978 122.288 149.968 125.424 159.374 130.465C168.741 135.485 174.497 142.357 174.621 149.893H159.967V150.393H174.621C174.497 157.931 168.741 164.837 159.374 169.89C149.968 174.963 136.978 178.133 122.609 178.169V169.408H122.109V178.169C112.712 178.143 103.901 176.662 96.2945 174.318C86.022 171.153 77.9767 166.184 73.6426 160.251C71.4008 157.182 70.1543 153.86 70.097 150.393Z" stroke="white" stroke-width="0.5"/>
<path d="M159.809 147.489C159.809 153.445 155.649 158.883 148.82 162.847C141.998 166.807 132.556 169.264 122.114 169.264C111.672 169.264 102.231 166.807 95.4086 162.847C88.58 158.883 84.4192 153.445 84.4192 147.489C84.4192 141.533 88.58 136.095 95.4086 132.131C102.231 128.171 111.672 125.714 122.114 125.714C132.556 125.714 141.998 128.171 148.82 132.131C155.649 136.095 159.809 141.533 159.809 147.489Z" stroke="#9806F1" stroke-width="0.5"/>
<path d="M71.4203 149.918C71.4203 150.525 70.7732 151.11 69.845 151.11C68.9168 151.11 68.2698 150.525 68.2698 149.918C68.2698 149.312 68.9168 148.727 69.845 148.727C70.7732 148.727 71.4203 149.312 71.4203 149.918Z" fill="#9F87FF" stroke="#4F1B92" stroke-width="0.5"/>
<path d="M175.867 149.918C175.867 150.525 175.22 151.11 174.292 151.11C173.364 151.11 172.717 150.525 172.717 149.918C172.717 149.312 173.364 148.727 174.292 148.727C175.22 148.727 175.867 149.312 175.867 149.918Z" fill="#9F87FF" stroke="#4F1B92" stroke-width="0.5"/>
<path d="M123.675 177.847C123.675 178.453 123.028 179.039 122.1 179.039C121.172 179.039 120.525 178.453 120.525 177.847C120.525 177.241 121.172 176.655 122.1 176.655C123.028 176.655 123.675 177.241 123.675 177.847Z" fill="#9F87FF" stroke="#4F1B92" stroke-width="0.5"/>
<path d="M123.675 122.258C123.675 122.864 123.028 123.45 122.1 123.45C121.172 123.45 120.525 122.864 120.525 122.258C120.525 121.652 121.172 121.066 122.1 121.066C123.028 121.066 123.675 121.652 123.675 122.258Z" fill="#9F87FF" stroke="#4F1B92" stroke-width="0.5"/>
<path d="M106.398 36.667H110.402V96.5974C110.402 97.703 109.506 98.5993 108.4 98.5993C107.294 98.5993 106.398 97.703 106.398 96.5974V36.667Z" fill="#9F87FF" stroke="#4F1B92" stroke-width="0.5"/>
<path d="M110.402 36.6201C110.402 36.939 110.213 37.2557 109.851 37.5034C109.49 37.7503 108.978 37.911 108.4 37.911C107.822 37.911 107.31 37.7503 106.949 37.5034C106.587 37.2557 106.398 36.939 106.398 36.6201C106.398 36.3011 106.587 35.9845 106.949 35.7368C107.31 35.4899 107.822 35.3291 108.4 35.3291C108.978 35.3291 109.49 35.4899 109.851 35.7368C110.213 35.9845 110.402 36.3011 110.402 36.6201Z" fill="white" stroke="#4F1B92" stroke-width="0.5"/>
<path d="M114.772 1.58789H118.776V102.42C118.776 103.526 117.88 104.422 116.774 104.422C115.669 104.422 114.772 103.526 114.772 102.42V1.58789Z" fill="#3413B8" stroke="#4F1B92" stroke-width="0.5"/>
<path d="M118.776 1.54097C118.776 1.85993 118.588 2.17656 118.226 2.42428C117.865 2.67118 117.352 2.83194 116.774 2.83194C116.196 2.83194 115.684 2.67118 115.323 2.42428C114.961 2.17656 114.772 1.85993 114.772 1.54097C114.772 1.22201 114.961 0.905382 115.323 0.65766C115.684 0.410757 116.196 0.25 116.774 0.25C117.352 0.25 117.865 0.410757 118.226 0.65766C118.588 0.905382 118.776 1.22201 118.776 1.54097Z" stroke="#4F1B92" stroke-width="0.5"/>
<path d="M122.852 54.4258H126.856V155.258C126.856 156.364 125.959 157.26 124.854 157.26C123.748 157.26 122.852 156.364 122.852 155.258V54.4258Z" fill="#9F87FF" stroke="#4F1B92" stroke-width="0.5"/>
<path d="M126.856 54.3779C126.856 54.6968 126.667 55.0135 126.305 55.2612C125.944 55.5081 125.432 55.6689 124.854 55.6689C124.276 55.6689 123.763 55.5081 123.403 55.2612C123.041 55.0135 122.852 54.6968 122.852 54.3779C122.852 54.0589 123.041 53.7423 123.403 53.4946C123.763 53.2477 124.276 53.0869 124.854 53.0869C125.432 53.0869 125.944 53.2477 126.305 53.4946C126.667 53.7423 126.856 54.0589 126.856 54.3779Z" fill="white" stroke="#4F1B92" stroke-width="0.5"/>
<path d="M131.225 42.4883H135.229V55.5654C135.229 56.6711 134.333 57.5674 133.227 57.5674C132.121 57.5674 131.225 56.6711 131.225 55.5654V42.4883Z" fill="#3413B8" stroke="#4F1B92" stroke-width="0.5"/>
<path d="M135.229 42.4404C135.229 42.7593 135.04 43.076 134.678 43.3237C134.317 43.5706 133.805 43.7314 133.227 43.7314C132.649 43.7314 132.137 43.5706 131.776 43.3237C131.414 43.076 131.225 42.7593 131.225 42.4404C131.225 42.1214 131.414 41.8048 131.776 41.5571C132.137 41.3102 132.649 41.1494 133.227 41.1494C133.805 41.1494 134.317 41.3102 134.678 41.5571C135.04 41.8048 135.229 42.1214 135.229 42.4404Z" fill="white" stroke="#4F1B92" stroke-width="0.5"/>
<path d="M114.772 110.874H118.776V131.639C118.776 132.744 117.88 133.641 116.774 133.641C115.669 133.641 114.772 132.744 114.772 131.639V110.874Z" fill="#9F87FF" stroke="#4F1B92" stroke-width="0.5"/>
<path d="M118.776 110.827C118.776 111.146 118.588 111.463 118.226 111.71C117.865 111.957 117.352 112.118 116.774 112.118C116.196 112.118 115.684 111.957 115.323 111.71C114.961 111.463 114.772 111.146 114.772 110.827C114.772 110.508 114.961 110.192 115.323 109.944C115.684 109.697 116.196 109.536 116.774 109.536C117.352 109.536 117.865 109.697 118.226 109.944C118.588 110.192 118.776 110.508 118.776 110.827Z" fill="white" stroke="#4F1B92" stroke-width="0.5"/>
<path d="M106.398 125.96H110.402V171.907C110.402 173.012 109.506 173.909 108.4 173.909C107.295 173.909 106.398 173.012 106.398 171.907V125.96Z" fill="#3413B8" stroke="#4F1B92" stroke-width="0.5"/>
<path d="M110.402 125.913C110.402 126.232 110.213 126.549 109.851 126.796C109.491 127.043 108.978 127.204 108.4 127.204C107.822 127.204 107.31 127.043 106.949 126.796C106.587 126.549 106.398 126.232 106.398 125.913C106.398 125.594 106.587 125.277 106.949 125.03C107.31 124.783 107.822 124.622 108.4 124.622C108.978 124.622 109.491 124.783 109.851 125.03C110.213 125.277 110.402 125.594 110.402 125.913Z" fill="white" stroke="#4F1B92" stroke-width="0.5"/>
<path d="M131.225 137.458H135.229V183.405C135.229 184.51 134.333 185.407 133.227 185.407C132.121 185.407 131.225 184.51 131.225 183.405V137.458Z" fill="#3413B8" stroke="#4F1B92" stroke-width="0.5"/>
<path d="M135.229 137.411C135.229 137.73 135.04 138.047 134.678 138.294C134.317 138.541 133.805 138.702 133.227 138.702C132.649 138.702 132.137 138.541 131.776 138.294C131.414 138.047 131.225 137.73 131.225 137.411C131.225 137.092 131.414 136.775 131.776 136.528C132.137 136.281 132.649 136.12 133.227 136.12C133.805 136.12 134.317 136.281 134.678 136.528C135.04 136.775 135.229 137.092 135.229 137.411Z" fill="white" stroke="#4F1B92" stroke-width="0.5"/>
<path d="M114.772 172.354H118.776V189.964C118.776 191.069 117.88 191.966 116.774 191.966C115.669 191.966 114.772 191.069 114.772 189.964V172.354Z" fill="#9F87FF" stroke="#4F1B92" stroke-width="0.5"/>
<path d="M118.776 172.306C118.776 172.625 118.588 172.941 118.226 173.189C117.865 173.436 117.352 173.597 116.774 173.597C116.196 173.597 115.684 173.436 115.323 173.189C114.961 172.941 114.772 172.625 114.772 172.306C114.772 171.987 114.961 171.67 115.323 171.422C115.684 171.175 116.196 171.015 116.774 171.015C117.352 171.015 117.865 171.175 118.226 171.422C118.588 171.67 118.776 171.987 118.776 172.306Z" fill="white" stroke="#4F1B92" stroke-width="0.5"/>
<path d="M123.085 229.861V208.96L127.089 206.872V229.861C127.089 230.966 126.193 231.863 125.087 231.863C123.982 231.863 123.085 230.966 123.085 229.861Z" fill="#8145FF" stroke="#4F1B92" stroke-width="0.5"/>
<path d="M131.11 221.421V204.601L135.114 202.513V221.421C135.114 222.527 134.218 223.423 133.112 223.423C132.007 223.423 131.11 222.527 131.11 221.421Z" fill="#8145FF" stroke="#4F1B92" stroke-width="0.5"/>
<path d="M118.75 211.032V207.76L114.746 205.672V211.032C114.746 212.138 115.642 213.034 116.748 213.034C117.853 213.034 118.75 212.138 118.75 211.032Z" fill="#9F87FF" stroke="#4F1B92" stroke-width="0.5"/>
<g opacity="0.3" filter="url(#filter0_f_562_772)">
<path d="M51.6178 137.244L34.939 127.198L51.6178 117.266L68.6313 127.198L51.6178 137.244Z" fill="#583376"/>
</g>
<path d="M51.6147 132.237L34.6057 122.192V119.373H68.9649V122.192L51.6147 132.237Z" fill="#273CF6" stroke="#4F1B92" stroke-width="0.5"/>
<path d="M34.6057 120.831L51.6147 130.877L68.9649 120.831" stroke="#4F1B92" stroke-width="0.5"/>
<path d="M51.6178 129.085L34.939 119.039L51.6178 109.106L68.6313 119.039L51.6178 129.085Z" fill="#8145FF" stroke="#4F1B92" stroke-width="0.5"/>
<mask id="mask0_562_772" style="mask-type:alpha" maskUnits="userSpaceOnUse" x="34" y="108" width="36" height="22">
<path d="M51.6173 129.083L34.9385 119.037L51.6173 109.104L68.6308 119.037L51.6173 129.083Z" fill="#4585FF" stroke="#1B3992" stroke-width="0.5"/>
</mask>
<g mask="url(#mask0_562_772)">
<ellipse cx="50.1527" cy="118.735" rx="8.45124" ry="6.06405" transform="rotate(-4.0331 50.1527 118.735)" fill="#273CF6"/>
</g>
<path d="M58.76 116.872C58.76 120.336 55.5872 123.193 51.6092 123.193C47.6312 123.193 44.4585 120.336 44.4585 116.872C44.4585 113.407 47.6312 110.55 51.6092 110.55C55.5872 110.55 58.76 113.407 58.76 116.872Z" fill="#854DE0" stroke="#4F1B92" stroke-width="0.5"/>
<path d="M71.6951 99.9036C71.6951 111.283 62.5293 120.505 51.2261 120.505C39.9229 120.505 30.7571 111.283 30.7571 99.9036C30.7571 88.5246 39.9229 79.3027 51.2261 79.3027C62.5293 79.3027 71.6951 88.5246 71.6951 99.9036Z" fill="#9F87FF" stroke="#4F1B92" stroke-width="0.5"/>
<mask id="mask1_562_772" style="mask-type:alpha" maskUnits="userSpaceOnUse" x="30" y="79" width="42" height="42">
<path d="M71.6958 99.9046C71.6958 111.284 62.53 120.506 51.2268 120.506C39.9236 120.506 30.7578 111.284 30.7578 99.9046C30.7578 88.5255 39.9236 79.3037 51.2268 79.3037C62.53 79.3037 71.6958 88.5255 71.6958 99.9046Z" fill="#87E7FF" stroke="#1B3992" stroke-width="0.5"/>
</mask>
<g mask="url(#mask1_562_772)">
<g style="mix-blend-mode:darken" opacity="0.8">
<path d="M62.0452 89.223C58.3063 77.908 41.3384 77.1325 36.0058 86.8048C35.5009 85.91 39.7462 77.6593 44.1979 74.3755C49.7624 70.2707 56.6165 71.872 61.9967 72.8563C67.377 73.8407 75.3925 82.3455 79.1783 89.055C82.9641 95.7644 78.6489 109.779 72.4308 115.861C66.2128 121.942 63.3409 119.703 49.9057 120.69C64.8545 116.115 66.6728 103.228 62.0452 89.223Z" fill="#943FD8"/>
</g>
<path d="M48.3306 89.0849C37.8168 85.3359 30.0883 89.5271 27.3135 92.7845C27.418 91.07 28.3182 86.8277 31.0836 83.5736C34.5402 79.5059 40.2369 77.1144 49.0047 75.5787C56.0189 74.3502 61.0396 78.7015 62.6731 81.0307C58.1068 79.7034 51.9778 86.2462 48.3306 89.0849Z" stroke="#4F1B92" stroke-width="0.5"/>
<ellipse cx="47.8001" cy="86.278" rx="0.78673" ry="0.554862" transform="rotate(12.9848 47.8001 86.278)" stroke="#4F1B92" stroke-width="0.5"/>
</g>
<path d="M30.8218 99.0399C33.8295 104.621 41.4694 108.519 51.106 108.519C60.7426 108.519 68.6262 104.584 71.6339 99.0029" stroke="#4F1B92" stroke-width="0.5"/>
<path d="M67.7876 108.363C66.6818 110.739 65.0337 112.577 63.2748 113.632C61.5145 114.689 59.6696 114.95 58.1339 114.235C56.5983 113.521 55.6099 111.941 55.2846 109.914C54.9596 107.889 55.3042 105.444 56.41 103.068C57.5158 100.692 59.1639 98.854 60.9227 97.7983C62.6831 96.7417 64.528 96.4806 66.0636 97.1953C67.5993 97.9099 68.5877 99.4894 68.9129 101.517C69.2379 103.542 68.8933 105.986 67.7876 108.363Z" fill="white" stroke="#4F1B92" stroke-width="0.5"/>
<path d="M64.5772 107.802C64.1446 108.732 63.4764 109.434 62.7568 109.823C62.0371 110.213 61.2822 110.282 60.6461 109.986C60.01 109.69 59.5773 109.068 59.4115 108.267C59.2457 107.465 59.3526 106.502 59.7853 105.572C60.2179 104.643 60.8861 103.941 61.6058 103.551C62.3254 103.162 63.0803 103.093 63.7164 103.389C64.3525 103.685 64.7852 104.307 64.951 105.108C65.1168 105.909 65.0099 106.873 64.5772 107.802Z" fill="#9806F1" stroke="#4F1B92" stroke-width="0.5"/>
<ellipse opacity="0.5" cx="63.1639" cy="107.052" rx="2.89271" ry="3.88856" transform="rotate(24.9551 63.1639 107.052)" fill="#9806F1"/>
<path d="M136.061 127.53L63.6976 103.162C64.5671 110.791 63.4177 107.063 61.2793 109.961L89.3239 159.038L136.061 127.53Z" fill="url(#paint1_linear_562_772)"/>
<path d="M46.0789 120.69C48.6396 121.697 51.3763 123.199 57.1871 120.69" stroke="#4F1B92" stroke-width="0.5"/>
<g opacity="0.3" filter="url(#filter1_f_562_772)">
<path d="M189.815 137.245L206.493 127.199L189.815 117.267L172.801 127.199L189.815 137.245Z" fill="#583376"/>
</g>
<path d="M189.818 132.238L206.827 122.193V119.374H172.468V122.193L189.818 132.238Z" fill="#273CF6" stroke="#4F1B92" stroke-width="0.5"/>
<path d="M206.827 120.831L189.818 130.877L172.468 120.831" stroke="#4F1B92" stroke-width="0.5"/>
<path d="M189.815 129.085L206.493 119.039L189.815 109.106L172.801 119.039L189.815 129.085Z" fill="#8145FF" stroke="#4F1B92" stroke-width="0.5"/>
<mask id="mask2_562_772" style="mask-type:alpha" maskUnits="userSpaceOnUse" x="172" y="108" width="35" height="22">
<path d="M189.815 129.083L206.494 119.037L189.815 109.104L172.802 119.037L189.815 129.083Z" fill="#4585FF" stroke="#1B3992" stroke-width="0.5"/>
</mask>
<g mask="url(#mask2_562_772)">
<ellipse cx="8.45124" cy="6.06405" rx="8.45124" ry="6.06405" transform="matrix(-0.997524 -0.0703327 -0.0703327 0.997524 200.137 113.28)" fill="#273CF6"/>
</g>
<path d="M182.673 116.873C182.673 120.337 185.845 123.194 189.823 123.194C193.801 123.194 196.974 120.337 196.974 116.873C196.974 113.408 193.801 110.551 189.823 110.551C185.845 110.551 182.673 113.408 182.673 116.873Z" fill="#854DE0" stroke="#4F1B92" stroke-width="0.5"/>
<path d="M169.737 99.9046C169.737 111.284 178.903 120.506 190.206 120.506C201.51 120.506 210.675 111.284 210.675 99.9046C210.675 88.5255 201.51 79.3037 190.206 79.3037C178.903 79.3037 169.737 88.5255 169.737 99.9046Z" fill="#9F87FF" stroke="#4F1B92" stroke-width="0.5"/>
<mask id="mask3_562_772" style="mask-type:alpha" maskUnits="userSpaceOnUse" x="169" y="79" width="42" height="42">
<path d="M169.737 99.9046C169.737 111.284 178.903 120.506 190.206 120.506C201.509 120.506 210.675 111.284 210.675 99.9046C210.675 88.5255 201.509 79.3037 190.206 79.3037C178.903 79.3037 169.737 88.5255 169.737 99.9046Z" fill="#87E7FF" stroke="#1B3992" stroke-width="0.5"/>
</mask>
<g mask="url(#mask3_562_772)">
<g style="mix-blend-mode:darken" opacity="0.8">
<path d="M179.388 89.223C183.127 77.908 200.094 77.1325 205.427 86.8048C205.932 85.91 201.687 77.6593 197.235 74.3755C191.67 70.2707 184.816 71.872 179.436 72.8563C174.056 73.8407 166.04 82.3455 162.255 89.055C158.469 95.7644 162.784 109.779 169.002 115.861C175.22 121.942 178.092 119.703 191.527 120.69C176.578 116.115 174.76 103.228 179.388 89.223Z" fill="#943FD8"/>
</g>
<path d="M192.653 87.6998C203.166 83.9507 211.344 89.5281 214.119 92.7854C214.015 91.071 213.114 86.8287 210.349 83.5745C206.892 79.5069 201.196 77.1154 192.428 75.5797C185.414 74.3512 180.393 78.7025 178.759 81.0317C183.326 79.7044 189.005 84.8611 192.653 87.6998Z" stroke="#4F1B92" stroke-width="0.5"/>
<ellipse cx="0.78673" cy="0.554862" rx="0.78673" ry="0.554862" transform="matrix(-0.97443 0.224692 0.224692 0.97443 193.823 84.4893)" stroke="#4F1B92" stroke-width="0.5"/>
</g>
<path d="M210.611 99.0399C207.603 104.621 199.963 108.519 190.327 108.519C180.69 108.519 172.806 104.584 169.799 99.0029" stroke="#4F1B92" stroke-width="0.5"/>
<path d="M173.645 108.363C174.751 110.739 176.399 112.577 178.158 113.632C179.918 114.689 181.763 114.95 183.299 114.235C184.834 113.521 185.823 111.941 186.148 109.914C186.473 107.889 186.128 105.444 185.023 103.068C183.917 100.692 182.269 98.854 180.51 97.7983C178.75 96.7417 176.905 96.4806 175.369 97.1953C173.833 97.9099 172.845 99.4894 172.52 101.517C172.195 103.542 172.539 105.986 173.645 108.363Z" fill="white" stroke="#4F1B92" stroke-width="0.5"/>
<path d="M176.855 107.803C177.288 108.733 177.956 109.435 178.676 109.824C179.396 110.213 180.15 110.283 180.787 109.987C181.423 109.691 181.855 109.069 182.021 108.268C182.187 107.466 182.08 106.503 181.647 105.573C181.215 104.644 180.547 103.941 179.827 103.552C179.107 103.163 178.352 103.093 177.716 103.39C177.08 103.686 176.647 104.308 176.482 105.109C176.316 105.91 176.423 106.874 176.855 107.803Z" fill="#9806F1" stroke="#4F1B92" stroke-width="0.5"/>
<ellipse opacity="0.5" cx="2.89271" cy="3.88856" rx="2.89271" ry="3.88856" transform="matrix(-0.906639 0.421908 0.421908 0.906639 179.251 102.306)" fill="#9806F1"/>
<path d="M195.354 120.691C192.793 121.698 190.056 123.2 184.245 120.691" stroke="#4F1B92" stroke-width="0.5"/>
<circle cx="232.73" cy="179.753" r="5.01304" fill="#9806F1" stroke="#4F1B92" stroke-width="0.5" stroke-miterlimit="10"/>
<ellipse cx="42.8946" cy="163.594" rx="8.23571" ry="8.59378" fill="#B326F5" stroke="#4F1B92" stroke-width="0.5" stroke-miterlimit="10"/>
<ellipse cx="3.86459" cy="184.005" rx="2.86459" ry="2.50652" fill="#9806F1" stroke="#4F1B92" stroke-width="0.5" stroke-miterlimit="10"/>
<rect x="184.032" y="178.321" width="27.9298" height="2.86459" rx="1.4323" transform="rotate(90 184.032 178.321)" fill="url(#paint2_linear_562_772)" stroke="url(#paint3_linear_562_772)" stroke-width="0.5" stroke-miterlimit="10"/>
<defs>
<filter id="filter0_f_562_772" x="30.8796" y="113.206" width="41.8112" height="28.0973" filterUnits="userSpaceOnUse" color-interpolation-filters="sRGB">
<feFlood flood-opacity="0" result="BackgroundImageFix"/>
<feBlend mode="normal" in="SourceGraphic" in2="BackgroundImageFix" result="shape"/>
<feGaussianBlur stdDeviation="2.0297" result="effect1_foregroundBlur_562_772"/>
</filter>
<filter id="filter1_f_562_772" x="168.742" y="113.207" width="41.8112" height="28.0973" filterUnits="userSpaceOnUse" color-interpolation-filters="sRGB">
<feFlood flood-opacity="0" result="BackgroundImageFix"/>
<feBlend mode="normal" in="SourceGraphic" in2="BackgroundImageFix" result="shape"/>
<feGaussianBlur stdDeviation="2.0297" result="effect1_foregroundBlur_562_772"/>
</filter>
<linearGradient id="paint0_linear_562_772" x1="122.114" y1="115.147" x2="122.114" y2="189.584" gradientUnits="userSpaceOnUse">
<stop stop-color="#FBF5FF"/>
<stop stop-color="#EBF0FF"/>
<stop offset="1" stop-color="#EDD7FF"/>
</linearGradient>
<linearGradient id="paint1_linear_562_772" x1="29.1619" y1="97.7245" x2="89.0533" y2="154.61" gradientUnits="userSpaceOnUse">
<stop stop-color="#A606F1"/>
<stop offset="1" stop-color="#5F06F1" stop-opacity="0"/>
</linearGradient>
<linearGradient id="paint2_linear_562_772" x1="190.097" y1="178.805" x2="192.927" y2="185.479" gradientUnits="userSpaceOnUse">
<stop stop-color="#E4D8FD"/>
<stop offset="1" stop-color="#E1D8F3" stop-opacity="0"/>
</linearGradient>
<linearGradient id="paint3_linear_562_772" x1="183.445" y1="180.118" x2="212.557" y2="179.468" gradientUnits="userSpaceOnUse">
<stop stop-color="#AB85DB"/>
<stop offset="1" stop-color="#AB85DB" stop-opacity="0"/>
</linearGradient>
</defs>
</svg>
