<svg width="279" height="136" viewBox="0 0 279 136" fill="none" xmlns="http://www.w3.org/2000/svg">
<circle cx="127.211" cy="66.9489" r="45.0251" fill="#BC87FF" stroke="#6C1B92" stroke-width="0.5" stroke-miterlimit="10"/>
<path d="M121.435 22.6652L121.583 19.9473L131.654 34.0696L130.914 34.3658L121.435 22.6652Z" fill="#4326F5" stroke="#6C1B92" stroke-width="0.5" stroke-miterlimit="10"/>
<path d="M118.472 34.6618V33.1807L110.474 33.9212L100.699 43.9926L91.072 50.3613L81.2969 64.5797V76.4284L86.1845 88.5733L90.7758 90.6469C93.1456 88.9189 96.9075 85.8481 92.9975 87.3885C88.1099 89.3139 86.1844 83.982 84.5552 79.2425C82.926 74.503 83.3704 68.2824 85.2958 66.9495C87.2212 65.6165 89.5909 66.9495 91.072 68.2824C92.7012 60.5808 95.8115 55.6932 101.292 47.8434C105.676 41.5636 114.572 36.4391 118.472 34.6618Z" fill="#4326F5" stroke="#6C1B92" stroke-width="0.5" stroke-miterlimit="10"/>
<path d="M95.8119 81.0195L93.8865 81.612L95.8119 83.9817C96.1575 86.7958 96.8783 93.2533 96.9968 96.571C97.1152 99.8886 99.7121 103.581 100.996 105.013C101.243 104.964 101.884 104.776 102.477 104.421C99.9886 97.667 100.156 87.5857 100.551 83.3893L95.8119 81.0195Z" fill="#4326F5" stroke="#6C1B92" stroke-width="0.5" stroke-miterlimit="10"/>
<path d="M133.579 49.9169L134.024 47.6953L151.945 58.3591L163.201 77.9095L158.462 97.0155L138.171 108.716L124.249 104.273L115.362 88.4252C115.954 89.2645 118.561 92.1576 124.249 97.0155C131.358 103.088 139.652 103.532 148.687 98.3485C157.721 93.1647 159.37 85.6322 157.803 77.2178C155.907 69.0422 146.021 65.5671 141.725 65.3203L133.579 49.9169Z" fill="#4326F5" stroke="#6C1B92" stroke-width="0.5" stroke-miterlimit="10"/>
<path d="M164.682 57.4709L165.274 56.5822L164.682 53.0276L152.685 34.6621L137.43 36.4394L123.063 38.3648V40.2902C123.903 41.3764 125.907 43.9041 127.211 45.3259C131.802 42.66 147.057 39.2535 149.723 38.8092C153.515 41.2974 161.276 52.287 164.682 57.4709Z" fill="#4326F5" stroke="#6C1B92" stroke-width="0.5" stroke-miterlimit="10"/>
<path d="M170.607 55.1006L171.94 55.3968L166.164 63.2466L163.498 62.6541L163.794 61.0249L170.607 55.1006Z" fill="#4326F5" stroke="#6C1B92" stroke-width="0.5" stroke-miterlimit="10"/>
<path d="M134.912 67.3938L136.097 65.3203H126.174L116.843 71.5409L115.066 87.0923C118.176 94.1522 123.834 104.895 121.583 91.3875C119.331 77.8799 129.531 69.7636 134.912 67.3938Z" fill="#4326F5" stroke="#6C1B92" stroke-width="0.5" stroke-miterlimit="10"/>
<path d="M155.499 29.3293C145.427 20.0873 128.592 18.9617 121.434 19.5541L131.801 34.0687L123.359 38.3638C124.297 39.5981 126.381 42.3627 127.21 43.5476C135.06 39.993 145.724 38.0676 150.315 37.4752C157.187 43.9918 163.151 53.0265 165.274 56.7293L170.902 51.3974C169.964 47.8922 165.57 38.5713 155.499 29.3293Z" fill="#9745FF" stroke="#6C1B92" stroke-width="0.5" stroke-linejoin="bevel"/>
<path d="M92.1084 74.3548C96.7294 53.2641 107.166 44.0418 111.807 42.0671L119.953 51.3979C120.99 51.0523 123.744 49.9761 126.47 48.4357C131.565 52.7013 135.011 61.4693 136.097 65.3201C131.802 66.6531 118.024 75.7868 120.99 89.0175C124.544 104.877 136.837 103.68 138.911 103.532C140.984 103.384 158.757 99.5332 159.942 84.1299C161.127 68.7266 147.649 62.8023 142.613 63.6909C142.169 61.9136 134.912 48.8801 134.023 47.6952C135.06 46.9546 145.872 43.1038 149.426 41.9189C154.403 46.1845 161.571 57.2235 164.534 62.2098L171.939 55.3968C175.79 64.1353 173.716 85.9072 159.202 99.9776C135.14 123.302 107.215 108.864 104.401 107.679C101.587 97.6078 102.624 83.3894 102.624 82.6489C100.106 82.2045 94.6262 77.3169 92.1084 74.3548Z" fill="#9745FF" stroke="#6C1B92" stroke-width="0.5" stroke-linejoin="bevel"/>
<path d="M118.62 33.1801L110.03 22.3682C101.439 24.6392 83.4292 35.1351 80.1116 58.951C75.9646 88.7209 97.2922 102.643 101.143 105.013C98.7733 101.34 98.5758 89.4614 98.7733 83.9814L93.8857 81.6117C94.0832 83.0928 94.2116 86.2919 93.1452 87.2398C91.8122 88.4247 87.0728 93.016 83.222 78.0571C79.3712 63.0981 89.1464 65.0235 90.4793 66.3565C91.0718 61.1727 95.3669 53.6191 100.995 46.0656C105.498 40.0227 114.621 34.9574 118.62 33.1801Z" fill="#9745FF" stroke="#6C1B92" stroke-width="0.5" stroke-linejoin="bevel"/>
<path d="M113.584 26.8115C106.771 29.4775 91.5457 39.0453 85.1474 55.9889C83.4885 55.9889 81.494 55.6927 80.7041 55.5446" stroke="#6C1B92" stroke-width="0.5" stroke-linejoin="bevel"/>
<path d="M126.322 26.3671C131.703 25.7747 144.332 25.8932 151.796 31.1066C152.981 30.3956 154.363 29.3292 154.907 28.8849" stroke="#6C1B92" stroke-width="0.5" stroke-linejoin="bevel"/>
<path d="M141.873 44.585C143.798 47.399 147.709 53.353 147.946 54.6564C148.775 54.1824 154.018 51.398 156.536 50.065" stroke="#6C1B92" stroke-width="0.5" stroke-linejoin="bevel"/>
<path d="M158.165 73.762C159.35 73.4164 162.223 72.2513 164.238 70.3555C165.274 72.5771 171.495 90.3502 154.166 100.718C154.759 102.021 155.006 103.334 155.055 103.828" stroke="#6C1B92" stroke-width="0.5" stroke-linejoin="bevel"/>
<path d="M103.217 102.052C106.87 104.027 116.606 107.236 126.322 104.273C127.625 106.762 129.63 111.333 130.469 113.308" stroke="#6C1B92" stroke-width="0.5" stroke-linejoin="bevel"/>
<path d="M132.542 56.4336C124.198 59.9388 108.519 72.1331 112.547 92.8683C107.689 92.8683 103.809 92.4734 102.476 92.2759" stroke="#6C1B92" stroke-width="0.5" stroke-linejoin="bevel"/>
<path d="M98.4771 56.582C102.525 60.5316 111.925 68.6677 117.139 69.6156" stroke="#6C1B92" stroke-width="0.5" stroke-linejoin="bevel"/>
<ellipse cx="98.1729" cy="38.1704" rx="8.02973" ry="3.85083" transform="rotate(-41.1118 98.1729 38.1704)" fill="#4326F5" stroke="#6C1B92" stroke-width="0.5" stroke-miterlimit="10"/>
<ellipse cx="98.6848" cy="38.7565" rx="8.02973" ry="3.07209" transform="rotate(-41.1118 98.6848 38.7565)" fill="#BC87FF" stroke="#6C1B92" stroke-width="0.5" stroke-miterlimit="10"/>
<path d="M206.833 20.9464C203.145 16.9023 175.554 29.4746 161.865 35.9458L164.612 39.437C165.688 38.8977 180.071 31.1139 181.455 33.4264C182.839 35.7389 161.153 55.8445 132.775 71.5619C104.396 87.2793 70.7177 98.3696 70.0256 96.5207C69.3375 94.6826 78.7182 88.8997 83.7394 85.8043L83.8277 85.7499L82.236 81.869C77.9556 84.875 45.11 105.306 48.34 111.082C51.57 116.859 95.6281 97.6778 134.62 75.2597C173.612 52.8416 210.521 24.9906 206.833 20.9464Z" fill="#8A06F1" stroke="#6C1B92" stroke-width="0.5" stroke-miterlimit="10"/>
<path d="M83.8291 85.7505L82.2374 81.8696C78.6187 84.4109 54.5846 99.4059 49.1912 107.472C48.653 108.277 47.1327 108.627 47.0046 109.274C47.3518 109.994 47.9237 110.654 48.3414 111.083C51.5714 116.859 95.6295 97.6784 134.621 75.2603C173.613 52.8422 210.523 24.9911 206.835 20.947C206.644 20.7379 205.92 19.9243 205.68 19.656C205.287 19.5015 205.199 20.2055 204.633 20.1743C196.909 19.7482 173.961 30.2287 161.867 35.9464L164.613 39.4375C165.69 38.8983 180.072 31.1145 181.457 33.427C182.841 35.7395 161.155 55.8451 132.776 71.5625C104.397 87.2798 70.7191 98.3701 70.027 96.5212C69.3389 94.6832 78.7193 88.9005 83.7406 85.805L83.8291 85.7505Z" fill="#BC87FF" stroke="#6C1B92" stroke-width="0.5" stroke-miterlimit="10"/>
<path d="M205.551 19.3839C201.863 15.3398 174.272 27.9121 160.584 34.3833L163.33 37.8745C164.407 37.3352 178.789 29.5514 180.174 31.8639C181.558 34.1764 159.872 54.282 131.493 69.9994C103.114 85.7168 69.436 96.8071 68.7439 94.9582C68.0518 93.1093 77.9708 86.8996 82.9693 83.8181L81.4453 79.9282C77.1649 82.9342 43.8284 103.744 47.0584 109.52C50.2884 115.296 94.3465 96.1153 133.338 73.6972C172.33 51.2791 209.24 23.4281 205.551 19.3839Z" fill="#8A06F1" stroke="#6C1B92" stroke-width="0.5" stroke-miterlimit="10"/>
<path d="M136.724 80.4662L137.912 79.8689C138 79.9263 138.083 79.9902 138.161 80.0598C138.873 80.812 139.751 80.9758 140.725 80.6587C141.412 80.4339 142.068 80.1165 142.749 79.8716C144.619 79.1937 146.203 79.6871 147.562 80.9759C148.056 81.4458 148.59 81.8958 148.773 82.653L147.685 83.2001C147.452 82.967 147.231 82.7217 147.024 82.4653C146.051 81.1228 144.026 80.774 142.493 81.5949C140.819 82.4917 139.959 82.5448 138.293 82.0373C138.202 82.1317 138.127 82.2399 138.071 82.3574C137.703 83.6198 136.817 84.424 135.683 85.0229C135.063 85.3485 134.442 85.6569 133.978 86.2223C133.179 87.1986 133.003 88.2711 133.29 89.4417C133.362 89.7358 133.451 90.0269 133.535 90.3259L132.439 90.8766C131.298 88.9952 131.474 86.0929 133.518 84.5554C133.978 84.2093 134.506 83.9547 135.003 83.6529C135.735 83.2061 136.45 82.7249 136.639 81.829C136.724 81.4161 136.695 80.9852 136.724 80.4662Z" fill="#5106A8"/>
<path d="M136.724 80.4662L137.912 79.8689C138 79.9263 138.083 79.9902 138.161 80.0598C138.873 80.812 139.751 80.9758 140.725 80.6587C141.412 80.4339 142.068 80.1165 142.749 79.8716C144.619 79.1937 146.203 79.6871 147.562 80.9759C148.056 81.4458 148.59 81.8958 148.773 82.653L147.685 83.2001C147.452 82.967 147.231 82.7217 147.024 82.4653C146.051 81.1228 144.026 80.774 142.493 81.5949C140.819 82.4917 139.959 82.5448 138.293 82.0373C138.202 82.1317 138.127 82.2399 138.071 82.3574C137.703 83.6198 136.817 84.424 135.683 85.0229C135.063 85.3485 134.442 85.6569 133.978 86.2223C133.179 87.1986 133.003 88.2711 133.29 89.4417C133.362 89.7358 133.451 90.0269 133.535 90.3259L132.439 90.8766C131.298 88.9952 131.474 86.0929 133.518 84.5554C133.978 84.2093 134.506 83.9547 135.003 83.6529C135.735 83.2061 136.45 82.7249 136.639 81.829C136.724 81.4161 136.695 80.9852 136.724 80.4662Z" fill="#5106A8"/>
<path d="M132.784 91.9676L133.961 91.3761C134.152 91.6188 134.322 91.8326 134.487 92.053C135.569 93.4677 136.966 93.8201 138.681 93.0771C139.373 92.7789 140.037 92.4148 140.711 92.0763C142.669 91.0919 144.622 90.0948 146.587 89.1232C147.974 88.4368 148.871 86.9012 148.478 85.4005C148.378 85.0202 148.302 84.633 148.206 84.2098L149.296 83.6622C149.412 83.8244 149.514 83.9962 149.6 84.1756C150.627 86.9562 149.761 89.2151 147.079 90.6519C144.718 91.9165 142.309 93.0949 139.901 94.2683C138.532 94.9351 137.101 95.2622 135.63 94.7006C134.303 94.1889 133.443 93.23 132.784 91.9676Z" fill="#5106A8"/>
<path d="M132.784 91.9676L133.961 91.3761C134.152 91.6188 134.322 91.8326 134.487 92.053C135.569 93.4677 136.966 93.8201 138.681 93.0771C139.373 92.7789 140.037 92.4148 140.711 92.0763C142.669 91.0919 144.622 90.0948 146.587 89.1232C147.974 88.4368 148.871 86.9012 148.478 85.4005C148.378 85.0202 148.302 84.633 148.206 84.2098L149.296 83.6622C149.412 83.8244 149.514 83.9962 149.6 84.1756C150.627 86.9562 149.761 89.2151 147.079 90.6519C144.718 91.9165 142.309 93.0949 139.901 94.2683C138.532 94.9351 137.101 95.2622 135.63 94.7006C134.303 94.1889 133.443 93.23 132.784 91.9676Z" fill="#5106A8"/>
<path d="M145.32 84.9485C145.722 85.7477 145.466 86.4984 144.649 86.8944C144.483 86.9745 144.303 87.0209 144.119 87.031C143.935 87.041 143.751 87.0145 143.578 86.953C143.405 86.8914 143.247 86.7961 143.112 86.6726C142.976 86.5491 142.868 86.3998 142.792 86.2335C142.622 85.8931 142.592 85.4994 142.709 85.1356C142.825 84.7718 143.079 84.4663 143.417 84.2836C144.124 83.9083 144.936 84.1907 145.32 84.9485Z" fill="#5106A8"/>
<path d="M145.32 84.9485C145.722 85.7477 145.466 86.4984 144.649 86.8944C144.483 86.9745 144.303 87.0209 144.119 87.031C143.935 87.041 143.751 87.0145 143.578 86.953C143.405 86.8914 143.247 86.7961 143.112 86.6726C142.976 86.5491 142.868 86.3998 142.792 86.2335C142.622 85.8931 142.592 85.4994 142.709 85.1356C142.825 84.7718 143.079 84.4663 143.417 84.2836C144.124 83.9083 144.936 84.1907 145.32 84.9485Z" fill="#5106A8"/>
<path d="M138.786 88.2998C139.165 89.0717 138.9 89.8062 138.105 90.1826C137.937 90.2627 137.755 90.3097 137.57 90.3211C137.385 90.3324 137.201 90.3078 137.027 90.2487C136.854 90.1896 136.695 90.0972 136.559 89.9767C136.424 89.8562 136.315 89.71 136.238 89.5466C135.891 88.8314 136.14 87.9484 136.772 87.6222C137.602 87.1959 138.365 87.4441 138.786 88.2998Z" fill="#5106A8"/>
<path d="M138.786 88.2998C139.165 89.0717 138.9 89.8062 138.105 90.1826C137.937 90.2627 137.755 90.3097 137.57 90.3211C137.385 90.3324 137.201 90.3078 137.027 90.2487C136.854 90.1896 136.695 90.0972 136.559 89.9767C136.424 89.8562 136.315 89.71 136.238 89.5466C135.891 88.8314 136.14 87.9484 136.772 87.6222C137.602 87.1959 138.365 87.4441 138.786 88.2998Z" fill="#5106A8"/>
<path d="M137.133 79.1845L136.579 79.4627C136.387 78.9149 135.986 78.7239 135.432 78.6085C134.815 78.4815 134.455 77.6643 134.622 76.9962C134.687 76.7226 134.849 76.4746 135.079 76.2956C135.309 76.1167 135.594 76.0182 135.882 76.0175C136.11 76.0203 136.331 76.0753 136.526 76.178C136.722 76.2807 136.887 76.4281 137.008 76.608C137.129 76.788 137.202 76.9952 137.22 77.2127C137.239 77.4302 137.204 77.6516 137.117 77.8586C136.918 78.3248 136.811 78.7172 137.133 79.1845Z" fill="#5106A8"/>
<path d="M137.133 79.1845L136.579 79.4627C136.387 78.9149 135.986 78.7239 135.432 78.6085C134.815 78.4815 134.455 77.6643 134.622 76.9962C134.687 76.7226 134.849 76.4746 135.079 76.2956C135.309 76.1167 135.594 76.0182 135.882 76.0175C136.11 76.0203 136.331 76.0753 136.526 76.178C136.722 76.2807 136.887 76.4281 137.008 76.608C137.129 76.788 137.202 76.9952 137.22 77.2127C137.239 77.4302 137.204 77.6516 137.117 77.8586C136.918 78.3248 136.811 78.7172 137.133 79.1845Z" fill="#5106A8"/>
<path d="M148.927 80.9756C149.846 80.5134 150.424 80.6481 150.829 81.4308C151.045 81.8607 151.274 82.2823 151.476 82.7178C151.813 83.4506 151.527 84.0279 150.653 84.411L148.927 80.9756Z" fill="#5106A8"/>
<path d="M148.927 80.9756C149.846 80.5134 150.424 80.6481 150.829 81.4308C151.045 81.8607 151.274 82.2823 151.476 82.7178C151.813 83.4506 151.527 84.0279 150.653 84.411L148.927 80.9756Z" fill="#5106A8"/>
<path d="M130.884 90.044L132.604 93.4666C131.941 93.923 131.32 93.8107 130.948 93.1292C130.705 92.6823 130.492 92.2222 130.264 91.768C129.85 90.9525 130.02 90.4923 130.884 90.044Z" fill="#5106A8"/>
<path d="M130.884 90.044L132.604 93.4666C131.941 93.923 131.32 93.8107 130.948 93.1292C130.705 92.6823 130.492 92.2222 130.264 91.768C129.85 90.9525 130.02 90.4923 130.884 90.044Z" fill="#5106A8"/>
<path d="M137.133 80.8754L138.322 80.2781C138.409 80.3355 138.493 80.3993 138.571 80.469C139.282 81.2212 140.16 81.385 141.134 81.0679C141.821 80.8431 142.478 80.5257 143.158 80.2807C145.028 79.6029 146.612 80.0963 147.971 81.385C148.465 81.855 148.999 82.305 149.183 83.0622L148.094 83.6093C147.861 83.3762 147.64 83.1309 147.434 82.8745C146.46 81.532 144.435 81.1832 142.902 82.004C141.228 82.9009 140.369 82.954 138.702 82.4465C138.611 82.5409 138.536 82.649 138.48 82.7666C138.112 84.0289 137.226 84.8332 136.092 85.432C135.472 85.7577 134.852 86.0661 134.388 86.6315C133.589 87.6077 133.413 88.6802 133.699 89.8509C133.771 90.145 133.86 90.436 133.944 90.735L132.848 91.2858C131.707 89.4044 131.883 86.5021 133.928 84.9645C134.388 84.6185 134.916 84.3639 135.412 84.0621C136.144 83.6153 136.859 83.1341 137.048 82.2382C137.133 81.8253 137.105 81.3943 137.133 80.8754Z" fill="#5106A8"/>
<path d="M137.133 80.8754L138.322 80.2781C138.409 80.3355 138.493 80.3993 138.571 80.469C139.282 81.2212 140.16 81.385 141.134 81.0679C141.821 80.8431 142.478 80.5257 143.158 80.2807C145.028 79.6029 146.612 80.0963 147.971 81.385C148.465 81.855 148.999 82.305 149.183 83.0622L148.094 83.6093C147.861 83.3762 147.64 83.1309 147.434 82.8745C146.46 81.532 144.435 81.1832 142.902 82.004C141.228 82.9009 140.369 82.954 138.702 82.4465C138.611 82.5409 138.536 82.649 138.48 82.7666C138.112 84.0289 137.226 84.8332 136.092 85.432C135.472 85.7577 134.852 86.0661 134.388 86.6315C133.589 87.6077 133.413 88.6802 133.699 89.8509C133.771 90.145 133.86 90.436 133.944 90.735L132.848 91.2858C131.707 89.4044 131.883 86.5021 133.928 84.9645C134.388 84.6185 134.916 84.3639 135.412 84.0621C136.144 83.6153 136.859 83.1341 137.048 82.2382C137.133 81.8253 137.105 81.3943 137.133 80.8754Z" fill="white"/>
<path d="M137.133 80.8754L138.322 80.2781C138.409 80.3355 138.493 80.3993 138.571 80.469C139.282 81.2212 140.16 81.385 141.134 81.0679C141.821 80.8431 142.478 80.5257 143.158 80.2807C145.028 79.6029 146.612 80.0963 147.971 81.385C148.465 81.855 148.999 82.305 149.183 83.0622L148.094 83.6093C147.861 83.3762 147.64 83.1309 147.434 82.8745C146.46 81.532 144.435 81.1832 142.902 82.004C141.228 82.9009 140.369 82.954 138.702 82.4465C138.611 82.5409 138.536 82.649 138.48 82.7666C138.112 84.0289 137.226 84.8332 136.092 85.432C135.472 85.7577 134.852 86.0661 134.388 86.6315C133.589 87.6077 133.413 88.6802 133.699 89.8509C133.771 90.145 133.86 90.436 133.944 90.735L132.848 91.2858C131.707 89.4044 131.883 86.5021 133.928 84.9645C134.388 84.6185 134.916 84.3639 135.412 84.0621C136.144 83.6153 136.859 83.1341 137.048 82.2382C137.133 81.8253 137.105 81.3943 137.133 80.8754Z" stroke="#B06CFF" stroke-width="0.5"/>
<path d="M133.194 92.3768L134.37 91.7852C134.561 92.028 134.732 92.2418 134.896 92.4622C135.978 93.8769 137.375 94.2293 139.09 93.4863C139.782 93.1881 140.446 92.824 141.12 92.4855C143.079 91.5011 145.031 90.504 146.996 89.5324C148.383 88.846 149.28 87.3104 148.888 85.8097C148.787 85.4294 148.711 85.0422 148.615 84.619L149.705 84.0713C149.821 84.2336 149.923 84.4053 150.009 84.5848C151.036 87.3654 150.17 89.6243 147.488 91.0611C145.127 92.3257 142.719 93.5041 140.31 94.6775C138.941 95.3443 137.51 95.6714 136.039 95.1098C134.712 94.5981 133.852 93.6391 133.194 92.3768Z" fill="#5106A8"/>
<path d="M133.194 92.3768L134.37 91.7852C134.561 92.028 134.732 92.2418 134.896 92.4622C135.978 93.8769 137.375 94.2293 139.09 93.4863C139.782 93.1881 140.446 92.824 141.12 92.4855C143.079 91.5011 145.031 90.504 146.996 89.5324C148.383 88.846 149.28 87.3104 148.888 85.8097C148.787 85.4294 148.711 85.0422 148.615 84.619L149.705 84.0713C149.821 84.2336 149.923 84.4053 150.009 84.5848C151.036 87.3654 150.17 89.6243 147.488 91.0611C145.127 92.3257 142.719 93.5041 140.31 94.6775C138.941 95.3443 137.51 95.6714 136.039 95.1098C134.712 94.5981 133.852 93.6391 133.194 92.3768Z" fill="white"/>
<path d="M133.194 92.3768L134.37 91.7852C134.561 92.028 134.732 92.2418 134.896 92.4622C135.978 93.8769 137.375 94.2293 139.09 93.4863C139.782 93.1881 140.446 92.824 141.12 92.4855C143.079 91.5011 145.031 90.504 146.996 89.5324C148.383 88.846 149.28 87.3104 148.888 85.8097C148.787 85.4294 148.711 85.0422 148.615 84.619L149.705 84.0713C149.821 84.2336 149.923 84.4053 150.009 84.5848C151.036 87.3654 150.17 89.6243 147.488 91.0611C145.127 92.3257 142.719 93.5041 140.31 94.6775C138.941 95.3443 137.51 95.6714 136.039 95.1098C134.712 94.5981 133.852 93.6391 133.194 92.3768Z" stroke="#B06CFF" stroke-width="0.5"/>
<path d="M145.729 85.3577C146.131 86.1569 145.875 86.9076 145.059 87.3036C144.892 87.3837 144.712 87.4301 144.528 87.4401C144.344 87.4502 144.16 87.4237 143.987 87.3622C143.814 87.3006 143.656 87.2053 143.521 87.0818C143.386 86.9582 143.277 86.809 143.201 86.6427C143.031 86.3023 143.001 85.9086 143.118 85.5448C143.234 85.1809 143.488 84.8754 143.826 84.6928C144.534 84.3174 145.345 84.5999 145.729 85.3577Z" fill="#5106A8"/>
<path d="M145.729 85.3577C146.131 86.1569 145.875 86.9076 145.059 87.3036C144.892 87.3837 144.712 87.4301 144.528 87.4401C144.344 87.4502 144.16 87.4237 143.987 87.3622C143.814 87.3006 143.656 87.2053 143.521 87.0818C143.386 86.9582 143.277 86.809 143.201 86.6427C143.031 86.3023 143.001 85.9086 143.118 85.5448C143.234 85.1809 143.488 84.8754 143.826 84.6928C144.534 84.3174 145.345 84.5999 145.729 85.3577Z" fill="white"/>
<path d="M145.729 85.3577C146.131 86.1569 145.875 86.9076 145.059 87.3036C144.892 87.3837 144.712 87.4301 144.528 87.4401C144.344 87.4502 144.16 87.4237 143.987 87.3622C143.814 87.3006 143.656 87.2053 143.521 87.0818C143.386 86.9582 143.277 86.809 143.201 86.6427C143.031 86.3023 143.001 85.9086 143.118 85.5448C143.234 85.1809 143.488 84.8754 143.826 84.6928C144.534 84.3174 145.345 84.5999 145.729 85.3577Z" stroke="#B06CFF" stroke-width="0.5"/>
<path d="M139.195 88.709C139.574 89.4809 139.309 90.2154 138.514 90.5918C138.346 90.6719 138.164 90.7189 137.979 90.7302C137.794 90.7416 137.61 90.717 137.437 90.6579C137.263 90.5988 137.104 90.5064 136.969 90.3859C136.833 90.2654 136.724 90.1192 136.647 89.9557C136.3 89.2406 136.55 88.3576 137.181 88.0313C138.012 87.605 138.774 87.8532 139.195 88.709Z" fill="#5106A8"/>
<path d="M139.195 88.709C139.574 89.4809 139.309 90.2154 138.514 90.5918C138.346 90.6719 138.164 90.7189 137.979 90.7302C137.794 90.7416 137.61 90.717 137.437 90.6579C137.263 90.5988 137.104 90.5064 136.969 90.3859C136.833 90.2654 136.724 90.1192 136.647 89.9557C136.3 89.2406 136.55 88.3576 137.181 88.0313C138.012 87.605 138.774 87.8532 139.195 88.709Z" fill="white"/>
<path d="M139.195 88.709C139.574 89.4809 139.309 90.2154 138.514 90.5918C138.346 90.6719 138.164 90.7189 137.979 90.7302C137.794 90.7416 137.61 90.717 137.437 90.6579C137.263 90.5988 137.104 90.5064 136.969 90.3859C136.833 90.2654 136.724 90.1192 136.647 89.9557C136.3 89.2406 136.55 88.3576 137.181 88.0313C138.012 87.605 138.774 87.8532 139.195 88.709Z" stroke="#B06CFF" stroke-width="0.5"/>
<path d="M137.542 79.5937L136.988 79.8718C136.796 79.3241 136.396 79.1331 135.842 79.0176C135.225 78.8906 134.864 78.0735 135.031 77.4054C135.096 77.1317 135.258 76.8837 135.488 76.7048C135.718 76.5259 136.003 76.4274 136.291 76.4267C136.519 76.4295 136.74 76.4845 136.936 76.5872C137.131 76.6899 137.296 76.8373 137.417 77.0172C137.538 77.1971 137.611 77.4044 137.63 77.6219C137.649 77.8394 137.613 78.0608 137.526 78.2678C137.327 78.734 137.22 79.1264 137.542 79.5937Z" fill="#5106A8"/>
<path d="M137.542 79.5937L136.988 79.8718C136.796 79.3241 136.396 79.1331 135.842 79.0176C135.225 78.8906 134.864 78.0735 135.031 77.4054C135.096 77.1317 135.258 76.8837 135.488 76.7048C135.718 76.5259 136.003 76.4274 136.291 76.4267C136.519 76.4295 136.74 76.4845 136.936 76.5872C137.131 76.6899 137.296 76.8373 137.417 77.0172C137.538 77.1971 137.611 77.4044 137.63 77.6219C137.649 77.8394 137.613 78.0608 137.526 78.2678C137.327 78.734 137.22 79.1264 137.542 79.5937Z" fill="white"/>
<path d="M137.542 79.5937L136.988 79.8718C136.796 79.3241 136.396 79.1331 135.842 79.0176C135.225 78.8906 134.864 78.0735 135.031 77.4054C135.096 77.1317 135.258 76.8837 135.488 76.7048C135.718 76.5259 136.003 76.4274 136.291 76.4267C136.519 76.4295 136.74 76.4845 136.936 76.5872C137.131 76.6899 137.296 76.8373 137.417 77.0172C137.538 77.1971 137.611 77.4044 137.63 77.6219C137.649 77.8394 137.613 78.0608 137.526 78.2678C137.327 78.734 137.22 79.1264 137.542 79.5937Z" stroke="#B06CFF" stroke-width="0.5"/>
<path d="M149.336 81.3848C150.255 80.9226 150.833 81.0573 151.238 81.8399C151.454 82.2699 151.683 82.6914 151.885 83.127C152.222 83.8598 151.936 84.4371 151.063 84.8202L149.336 81.3848Z" fill="#5106A8"/>
<path d="M149.336 81.3848C150.255 80.9226 150.833 81.0573 151.238 81.8399C151.454 82.2699 151.683 82.6914 151.885 83.127C152.222 83.8598 151.936 84.4371 151.063 84.8202L149.336 81.3848Z" fill="white"/>
<path d="M149.336 81.3848C150.255 80.9226 150.833 81.0573 151.238 81.8399C151.454 82.2699 151.683 82.6914 151.885 83.127C152.222 83.8598 151.936 84.4371 151.063 84.8202L149.336 81.3848Z" stroke="#B06CFF" stroke-width="0.5"/>
<path d="M131.293 90.4532L133.013 93.8757C132.35 94.3322 131.729 94.2199 131.357 93.5383C131.114 93.0915 130.901 92.6314 130.673 92.1772C130.26 91.3617 130.429 90.9014 131.293 90.4532Z" fill="#5106A8"/>
<path d="M131.293 90.4532L133.013 93.8757C132.35 94.3322 131.729 94.2199 131.357 93.5383C131.114 93.0915 130.901 92.6314 130.673 92.1772C130.26 91.3617 130.429 90.9014 131.293 90.4532Z" fill="white"/>
<path d="M131.293 90.4532L133.013 93.8757C132.35 94.3322 131.729 94.2199 131.357 93.5383C131.114 93.0915 130.901 92.6314 130.673 92.1772C130.26 91.3617 130.429 90.9014 131.293 90.4532Z" stroke="#B06CFF" stroke-width="0.5"/>
<g clip-path="url(#clip0_562_783)">
<path d="M201.161 74.396C195.043 69.5985 192.929 62.0723 196.435 57.6014C196.492 57.5297 196.548 57.4579 196.604 57.3862C195.771 58.2772 195.236 59.1315 194.514 60.052C191.008 64.5229 193.121 72.0491 199.239 76.8466C205.357 81.6441 213.17 81.9022 216.676 77.4313C217.473 76.4152 218.189 75.7221 219.047 74.4069C219.202 74.1611 219.335 73.9179 219.432 73.6467C219.206 74.1065 218.935 74.5503 218.607 74.9687C215.103 79.4609 207.29 79.2028 201.161 74.396Z" fill="#9745FF" stroke="#6C1B92" stroke-width="0.5" stroke-miterlimit="10"/>
<path d="M196.604 57.3859C196.548 57.4576 196.492 57.5294 196.435 57.6011C192.929 62.072 195.043 69.5982 201.161 74.3957C207.278 79.1932 215.091 79.4512 218.597 74.9804C218.926 74.562 219.197 74.1182 219.423 73.6584C221.669 69.1266 219.419 62.5352 213.86 58.1764C207.85 53.4629 200.19 53.132 196.604 57.3859Z" fill="#BC87FF" stroke="#6C1B92" stroke-width="0.5" stroke-miterlimit="10"/>
<path d="M216.758 72.6685C219.548 69.1099 217.862 63.1286 212.991 59.3089C208.12 55.4891 201.909 55.2774 199.119 58.836C196.328 62.3945 198.015 68.3758 202.886 72.1955C207.756 76.0153 213.967 76.227 216.758 72.6685Z" fill="white" stroke="#4712B7" stroke-width="0.5"/>
<path d="M209.778 70.2458C209.849 70.3018 209.897 70.3391 209.865 70.4295L209.537 71.4851L210.748 72.4158L211.361 70.4829L213.12 71.843L213.45 70.8087L211.691 69.4486L211.894 68.7972L213.653 70.1573L213.968 69.1682L212.209 67.8081L212.444 67.0663C212.602 66.5718 212.694 64.4436 210.854 63.0395C209.85 62.2129 208.746 62.1004 208.2 62.7725C208.2 62.7725 207.836 61.2514 206.651 60.4577C205.467 59.664 204.887 60.2322 204.57 60.5629C204.342 60.8285 204.144 61.1553 204.014 61.5169L202.171 60.0915L201.861 61.026L203.701 62.4302L203.468 63.1933L201.626 61.7678L201.33 62.733L203.172 64.1584L202.537 66.1698L203.63 67.0072L203.974 65.9065C204.004 65.7948 204.063 65.8415 204.111 65.8788L209.778 70.2458ZM204.551 64.0426L204.918 62.8634C204.981 62.6613 205.476 61.8336 206.414 62.5496C206.947 62.9484 207.298 63.6287 207.243 64.1647C207.234 64.2738 207.225 64.3828 207.193 64.4732L206.784 65.7548L204.551 64.0426ZM207.945 66.6269L208.528 64.8056C208.713 64.2752 209.344 64.2298 209.939 64.6965C209.963 64.7152 209.975 64.7245 209.999 64.7432C210.746 65.3099 210.887 66.1349 210.867 66.5047C210.862 66.5592 210.858 66.6137 210.842 66.6589L210.297 68.4324L207.945 66.6269Z" fill="#9745FF"/>
<path d="M192.813 65.3211L194.804 63.0681" stroke="#6C1B92" stroke-width="0.5"/>
<path d="M193.651 69.8419L195.839 67.4462" stroke="#6C1B92" stroke-width="0.5"/>
<path d="M196.37 74.2804L198.558 71.8846" stroke="#6C1B92" stroke-width="0.5"/>
<path d="M200.933 78.1232L202.548 75.3089" stroke="#6C1B92" stroke-width="0.5"/>
<path d="M206.28 80.2606L207.131 77.6711" stroke="#6C1B92" stroke-width="0.5"/>
<path d="M211.066 80.4821L211.45 78.1337" stroke="#6C1B92" stroke-width="0.5"/>
<path d="M214.676 79.1045L214.856 77.5554" stroke="#6C1B92" stroke-width="0.5"/>
</g>
<path d="M195.238 86.8984L207.056 88.6388L206.29 90.3404L195.238 86.8984Z" fill="#9745FF" stroke="#6C1B92" stroke-width="0.5" stroke-linejoin="bevel"/>
<path d="M208.036 88.1767C208.281 88.203 211.072 88.1203 212.331 88.2256L209.962 93.439C209.136 92.9832 207.351 91.9771 206.824 91.5991C206.165 91.1266 205.993 90.0411 206.357 89.2663C206.721 88.4915 207.73 88.1437 208.036 88.1767Z" fill="white" stroke="#6C1B92" stroke-width="0.5" stroke-linejoin="bevel"/>
<path d="M270.007 85.3787L269.59 83.3426L253.255 91.6757L253.421 92.2371L270.007 85.3787Z" fill="#9745FF" stroke="#6C1B92" stroke-width="0.5" stroke-linejoin="bevel"/>
<path d="M258.783 78.2324L238.889 88.2101L253.114 91.747L270.409 83.3285L258.783 78.2324Z" fill="#BC87FF" stroke="#6C1B92" stroke-width="0.5" stroke-miterlimit="10"/>
<ellipse cx="0.81608" cy="0.681117" rx="0.81608" ry="0.681117" transform="matrix(0.874032 0.485869 -0.485868 0.874032 247.293 88.2002)" fill="white" stroke="#6C1B92" stroke-width="0.5"/>
<path d="M213.41 87.8717C214.286 87.7872 217.054 88.2724 218.328 88.5256L215.235 97.3636C214.029 96.7267 211.452 95.3127 210.792 94.7518C209.967 94.0508 209.397 92.0018 210.125 90.4056C210.852 88.8095 212.314 87.9774 213.41 87.8717Z" fill="#8A06F1" stroke="#6C1B92" stroke-width="0.5" stroke-linejoin="bevel"/>
<path d="M216.981 100.248C217.895 101.124 233.762 109.899 241.581 114.176L257.311 109.526L251.547 90.0296C242.401 89.1147 223.622 87.3057 221.68 87.3882C219.252 87.4913 216.3 89.2855 215.168 92.3853C214.036 95.4852 215.837 99.152 216.981 100.248Z" fill="#9745FF" stroke="#6C1B92" stroke-width="0.5" stroke-linejoin="bevel"/>
<g style="mix-blend-mode:darken" opacity="0.2">
<path d="M206.247 90.79L240.474 110.496L238.611 104.004L206.247 90.79Z" fill="#1D0071"/>
</g>
<g style="mix-blend-mode:lighten" opacity="0.6">
<path d="M206.44 90.0989L237.044 98.2607C237.185 97.9195 237.618 97.0728 238.221 96.4161C238.825 95.7595 240.434 94.7987 241.164 94.4004C229.657 92.5347 206.967 88.8619 206.898 88.9161C206.83 88.9703 206.567 89.8143 206.44 90.0989Z" fill="#F8CBFF"/>
</g>
<path d="M237.25 99.2921C236.801 97.7713 237.624 96.0471 239.09 95.441L251.174 90.4432C252.565 89.8684 256.473 91.6302 257.255 93.111C257.336 93.2637 257.363 93.4357 257.382 93.6074L258.666 105.547C258.684 105.718 258.722 105.887 258.756 106.057C259.031 107.413 258.344 108.87 257.128 109.526C256.95 109.622 256.77 109.714 256.604 109.828L248.873 115.149C248.707 115.263 248.531 115.366 248.333 115.406C246.552 115.765 241.725 114.431 241.302 112.997L237.25 99.2921Z" fill="#BC87FF" stroke="#6C1B92" stroke-width="0.5" stroke-miterlimit="10"/>
<path d="M241.617 100.763C241.168 99.2419 241.991 97.5177 243.457 96.9116L254.71 92.258C256.175 91.6519 257.728 92.3934 258.177 93.9143L261.957 106.7C262.407 108.221 261.583 109.946 260.117 110.552L248.865 115.205C247.399 115.811 245.847 115.07 245.397 113.549L241.617 100.763Z" fill="#8A06F1" stroke="#6C1B92" stroke-width="0.5" stroke-miterlimit="10"/>
<g style="mix-blend-mode:lighten" opacity="0.6">
<path d="M248.058 115.306L251.367 93.8834C252.385 93.4936 255.142 92.1232 256.077 92.2438C257.012 92.3645 258.109 93.3703 258.109 94.53L255.498 112.203L248.058 115.306Z" fill="#FCF8FF"/>
</g>
<path d="M246.63 103.375C246.181 101.854 247.004 100.13 248.47 99.5235L252.877 97.7011C254.342 97.095 255.895 97.8366 256.344 99.3574L257.923 104.698C258.372 106.219 257.549 107.943 256.083 108.549L251.677 110.371C250.211 110.977 248.659 110.236 248.209 108.715L246.63 103.375Z" fill="white" stroke="#6C1B92" stroke-width="0.5" stroke-linejoin="bevel"/>
<path d="M246.529 103.032C246.142 101.724 247.489 100.011 248.15 99.7195L252 98.1361C253.281 97.6095 254.631 98.2387 255.016 99.5415L256.368 104.116C256.753 105.419 256.027 106.902 254.747 107.429L250.897 109.012C249.616 109.539 248.266 108.909 247.881 107.607L246.529 103.032Z" fill="#9745FF" stroke="#6C1B92" stroke-width="0.5" stroke-linejoin="bevel"/>
<path d="M246.412 102.639C246.076 101.501 247.248 100.01 247.823 99.7564L251.174 98.3785C252.288 97.9203 253.463 98.4678 253.798 99.6015L254.975 103.582C255.31 104.716 254.678 106.007 253.564 106.465L250.214 107.843C249.099 108.301 247.924 107.753 247.589 106.62L246.412 102.639Z" fill="#9745FF" stroke="#6C1B92" stroke-width="0.5" stroke-linejoin="bevel"/>
<path d="M224.729 93.8532L224.058 91.583L233.082 94.1071L233.635 95.9769L224.729 93.8532Z" fill="#9745FF" stroke="#6C1B92" stroke-width="0.5" stroke-linejoin="bevel"/>
<path d="M242.232 87.911L233.113 94.2041L233.65 96.0191L242.832 89.9421L242.232 87.911Z" fill="#9745FF" stroke="#6C1B92" stroke-width="0.5" stroke-linejoin="bevel"/>
<path d="M233.158 94.1979L223.99 91.6369L230.963 86.772L242.104 87.8522L233.158 94.1979Z" fill="#BC87FF" stroke="#6C1B92" stroke-width="0.5" stroke-miterlimit="10"/>
<path d="M231.45 95.454L230.056 95.8662L230.5 97.3696" stroke="#6C1B92" stroke-width="0.5" stroke-linejoin="bevel"/>
<path d="M229.92 95.0888L228.526 95.501L228.971 97.0043" stroke="#6C1B92" stroke-width="0.5" stroke-linejoin="bevel"/>
<path d="M227.742 94.5409L226.347 94.9531L226.792 96.4565" stroke="#6C1B92" stroke-width="0.5" stroke-linejoin="bevel"/>
<path d="M225.935 94.1269L224.541 94.5391L224.985 96.0424" stroke="#6C1B92" stroke-width="0.5" stroke-linejoin="bevel"/>
<ellipse cx="1.94856" cy="2.14552" rx="1.94856" ry="2.14552" transform="matrix(0.868797 -0.495169 0.495165 0.868799 223.728 99.1729)" fill="#9745FF" stroke="#6C1B92" stroke-width="0.5" stroke-linejoin="bevel"/>
<ellipse cx="1.94856" cy="2.14552" rx="1.94856" ry="2.14552" transform="matrix(0.868797 -0.495168 0.495166 0.868798 222.541 99.833)" fill="#BC87FF" stroke="#6C1B92" stroke-width="0.5" stroke-linejoin="bevel"/>
<rect width="4.22234" height="1.64126" rx="0.820631" transform="matrix(0.867565 -0.497324 0.497328 0.867562 221.841 101.635)" fill="#BC87FF" stroke="#6C1B92" stroke-width="0.5" stroke-linejoin="bevel"/>
<ellipse cx="1.94856" cy="2.14552" rx="1.94856" ry="2.14552" transform="matrix(0.868799 -0.495165 0.495169 0.868796 219.519 101.656)" fill="#9745FF" stroke="#6C1B92" stroke-width="0.5" stroke-linejoin="bevel"/>
<ellipse cx="1.94856" cy="2.14552" rx="1.94856" ry="2.14552" transform="matrix(0.868797 -0.495169 0.495165 0.868799 218.57 102.317)" fill="#BC87FF" stroke="#6C1B92" stroke-width="0.5" stroke-linejoin="bevel"/>
<rect width="4.22234" height="1.64126" rx="0.820631" transform="matrix(0.867562 -0.49733 0.497323 0.867566 217.508 104.345)" fill="#BC87FF" stroke="#6C1B92" stroke-width="0.5" stroke-linejoin="bevel"/>
<path d="M224.24 109.649L223.858 108.356L198.535 123.068L199.288 125.618L224.24 109.649Z" fill="#9745FF" stroke="#6C1B92" stroke-width="0.5" stroke-linejoin="bevel"/>
<path d="M184.249 115.436L183.493 112.879L198.482 123.086L199.222 125.59L184.249 115.436Z" fill="#9745FF" stroke="#6C1B92" stroke-width="0.5" stroke-linejoin="bevel"/>
<path d="M198.472 123.008L183.697 113.243C183.305 112.984 183.373 112.388 183.814 112.225L213.116 101.385C213.834 101.119 214.637 101.229 215.258 101.677L223.345 107.515C224.026 108.006 223.967 109.037 223.236 109.448L199.07 123.03C198.883 123.135 198.652 123.127 198.472 123.008Z" fill="#BC87FF" stroke="#6C1B92" stroke-width="0.5" stroke-miterlimit="10"/>
<ellipse cx="0.81608" cy="0.681117" rx="0.81608" ry="0.681117" transform="matrix(0.874031 0.48587 -0.485866 0.874033 188.07 111.758)" fill="white" stroke="#6C1B92" stroke-width="0.5"/>
<ellipse cx="0.81608" cy="0.681117" rx="0.81608" ry="0.681117" transform="matrix(0.874031 0.48587 -0.485866 0.874033 216.744 104.577)" fill="white" stroke="#6C1B92" stroke-width="0.5"/>
<ellipse cx="0.81608" cy="0.681117" rx="0.81608" ry="0.681117" transform="matrix(0.874032 0.485869 -0.485868 0.874032 258.109 79.6895)" fill="white" stroke="#6C1B92" stroke-width="0.5"/>
<ellipse cx="0.81608" cy="0.681117" rx="0.81608" ry="0.681117" transform="matrix(0.874032 0.485868 -0.485869 0.874032 197.795 119.234)" fill="white" stroke="#6C1B92" stroke-width="0.5"/>
<path d="M3.66506 26.6701C5.68044 30.0709 17.5209 38.1641 23.1891 41.7856C31.103 47.1055 48.8544 55.3267 53.7354 55.6416C58.6165 55.9565 71.3702 54.067 75.1491 43.5177C78.9279 32.9683 70.268 27.9298 68.6935 26.6701C67.1189 25.4104 38.7773 5.88633 26.9684 1.79239C13.4274 -1.35668 5.39709 5.57158 2.56293 10.4526C-0.27123 15.3337 1.14585 22.4191 3.66506 26.6701Z" fill="#BC87FF" stroke="#6C1B92" stroke-width="0.5" stroke-miterlimit="10"/>
<mask id="mask0_562_783" style="mask-type:alpha" maskUnits="userSpaceOnUse" x="1" y="1" width="76" height="55">
<path d="M3.66506 26.6701C5.68044 30.0709 17.5209 38.1641 23.1891 41.7856C31.103 47.1055 48.8544 55.3267 53.7354 55.6416C58.6165 55.9565 71.3702 54.067 75.1491 43.5177C78.9279 32.9683 70.268 27.9298 68.6935 26.6701C67.1189 25.4104 38.7773 5.88633 26.9684 1.79239C13.4274 -1.35668 5.39709 5.57158 2.56293 10.4526C-0.27123 15.3337 1.14585 22.4191 3.66506 26.6701Z" fill="#4585FF"/>
</mask>
<g mask="url(#mask0_562_783)">
<path d="M-1.04889 17.8278C-0.603651 19.7108 -3.19804 23.2484 -3.2334 24.4361L-0.149763 30.4486L46.3683 60.4657L66.9586 55.9722L75.9654 47.3995C60.4007 37.0255 27.3469 15.6415 19.6498 13.097C10.0284 9.9164 -2.3066 12.5088 -1.04889 17.8278Z" fill="#9745FF" stroke="#6C1B92" stroke-width="0.5" stroke-linejoin="bevel"/>
<path d="M3.61292 19.7166C0.977402 21.9404 2.51479 27.5061 3.61292 30.011L10.0987 36.3936L38.7178 54.2034L53.3362 58.5272L63.8368 55.2329C66.1016 54.4779 68.7782 51.3003 61.3661 44.6294C52.1009 36.2907 24.3053 21.1575 18.9521 18.7897C13.5989 16.422 6.90732 16.9367 3.61292 19.7166Z" fill="#4326F5" stroke="#6C1B92" stroke-width="0.5" stroke-miterlimit="10"/>
<g style="mix-blend-mode:darken" opacity="0.8">
<path d="M7.29873 26.0095C5.43329 28.3587 7.21232 32.5152 8.33501 34.2998L30.8752 58.9128L55.3153 60.381L68.7876 54.3357L67.7513 47.4269C66.3983 45.3542 63.5368 41.7789 62.9151 44.0588C62.1378 46.9087 58.6834 46.8223 55.3153 46.8223C51.9472 46.8223 34.416 33.6089 25.0891 28.2545C15.7621 22.9002 9.63052 23.0729 7.29873 26.0095Z" fill="#ED00B9"/>
</g>
<g style="mix-blend-mode:lighten" opacity="0.6">
<path d="M18.6122 30.3279C8.73246 25.1463 8.79592 30.5871 10.0626 33.9553L37.6978 54.5092L56.3517 58.6545C58.8274 57.9636 63.226 56.4609 61.0152 55.9773C58.2516 55.3728 30.9618 36.8049 18.6122 30.3279Z" fill="#F8CBFF"/>
</g>
<path d="M63.726 43.2363C63.1476 49.2303 55.0092 54.9459 45.5115 54.4839" stroke="#6C1B92" stroke-width="0.5" stroke-linejoin="bevel"/>
<path d="M25.4884 22.1846C22.9589 25.5048 16.1544 32.1175 9.17236 32.0069" stroke="#6C1B92" stroke-width="0.5" stroke-linejoin="bevel"/>
<path d="M40.7312 30.6201C37.8325 34.4032 30.5463 42.1106 24.5908 42.6754" stroke="#6C1B92" stroke-width="0.5" stroke-linejoin="bevel"/>
<path d="M54.2395 39.1465C52.1861 42.8685 46.5903 50.3255 40.6348 50.3769" stroke="#6C1B92" stroke-width="0.5" stroke-linejoin="bevel"/>
<path d="M2.66504 10.4782C5.24069 8.594 14.3721 6.7715 30.2924 14.5549C46.2127 22.3383 67.0957 36.6484 75.5471 42.8305" stroke="#6C1B92" stroke-width="0.5" stroke-linejoin="bevel"/>
<path d="M16.0186 1.34325C17.3933 1.23724 20.3613 1.57512 21.2353 3.77469C22.3279 6.52414 25.4138 15.0187 18.0925 18.3656" stroke="#6C1B92" stroke-width="0.5" stroke-linejoin="bevel"/>
<path d="M3.66506 26.6701C5.68044 30.0709 17.5209 38.1641 23.1891 41.7856C31.103 47.1055 48.8544 55.3267 53.7354 55.6416C58.6165 55.9565 71.3702 54.067 75.1491 43.5177C78.9279 32.9683 70.268 27.9298 68.6935 26.6701C67.1189 25.4104 38.7773 5.88633 26.9684 1.79239C13.4274 -1.35668 5.39709 5.57158 2.56293 10.4526C-0.27123 15.3337 1.14585 22.4191 3.66506 26.6701Z" stroke="#6C1B92" stroke-width="0.5" stroke-linejoin="bevel"/>
</g>
<path d="M31.9086 38.9359C27.8214 37.914 24.514 39.6308 23.3712 40.6169C22.1614 41.8271 21.4889 44.9864 22.9006 47.8098C24.3123 50.6332 40.4461 58.1623 41.1184 58.2968C41.7906 58.4312 47.8408 55.8767 48.6475 54.9356C49.4542 53.9944 48.3786 49.356 47.8408 48.2804C47.303 47.2048 37.0177 40.2133 31.9086 38.9359Z" fill="#9745FF" stroke="#6C1B92" stroke-width="0.5" stroke-linejoin="bevel"/>
<mask id="mask1_562_783" style="mask-type:alpha" maskUnits="userSpaceOnUse" x="22" y="38" width="27" height="21">
<path d="M31.9081 38.9359C27.8209 37.914 24.5135 39.6308 23.3708 40.6169C22.1609 41.8271 21.4884 44.9864 22.9001 47.8098C24.3118 50.6332 40.4456 58.1623 41.1179 58.2968C41.7901 58.4312 47.8403 55.8767 48.647 54.9356C49.4537 53.9944 48.3781 49.356 47.8403 48.2804C47.3025 47.2048 37.0172 40.2133 31.9081 38.9359Z" fill="#D9D9D9"/>
</mask>
<g mask="url(#mask1_562_783)">
<path d="M28.1153 43.7924C24.7013 44.1635 22.9346 45.7942 22.3845 46.864C22.4458 47.039 22.6507 47.5132 22.9804 48.0102C24.4476 46.4972 25.5021 45.1676 30.3161 45.1676C34.1673 45.1676 44.1163 51.7697 48.6094 55.0707C48.747 54.8568 49.022 54.2546 49.022 53.5577C47.6008 52.2282 43.5203 49.9816 39.8066 47.6892C36.0929 45.3968 32.1161 43.3575 28.1153 43.7924Z" fill="#BC87FF" stroke="#6C1B92" stroke-width="0.5" stroke-miterlimit="10"/>
<path d="M48.5957 55.0608C48.3784 55.1852 46.4844 56.7132 41.2528 58.3045C37.5285 57.1956 25.899 51.2161 22.9807 48.0105C24.4478 46.4976 25.5024 45.168 30.3164 45.168C34.1636 45.168 44.096 51.7564 48.5957 55.0608C48.6191 55.0475 48.623 55.0503 48.6097 55.0711C48.605 55.0677 48.6004 55.0643 48.5957 55.0608Z" fill="#4326F5"/>
<path d="M26.6235 50.9365C27.1194 50.7162 28.3867 50.4077 29.4887 50.9365C30.8662 51.5976 35.3843 53.7464 35.9904 54.2423C36.4753 54.639 36.7802 55.8035 36.872 56.3361" stroke="#6C1B92" stroke-width="0.5" stroke-linejoin="bevel"/>
<path d="M35.1501 43.7584C34.9342 43.4537 35.1131 41.1975 35.2296 40.1074L37.1181 41.0759C37.1287 42.1816 37.0737 44.409 36.7689 44.4725C36.388 44.5518 35.42 44.1392 35.1501 43.7584Z" fill="#8A06F1" stroke="#6C1B92" stroke-width="0.5" stroke-miterlimit="10"/>
<path d="M39.1997 46.0416C38.9838 45.737 39.1627 43.4807 39.2791 42.3906L41.1677 43.3591C41.1782 44.4648 41.1232 46.6922 40.8185 46.7557C40.4376 46.835 39.4695 46.4224 39.1997 46.0416Z" fill="#8A06F1" stroke="#6C1B92" stroke-width="0.5" stroke-miterlimit="10"/>
<path d="M43.635 48.7476C43.4191 48.443 43.598 46.1867 43.7144 45.0967L45.603 46.0652C45.6136 47.1709 45.5585 49.3982 45.2538 49.4617C44.8729 49.5411 43.9048 49.1284 43.635 48.7476Z" fill="#8A06F1" stroke="#6C1B92" stroke-width="0.5" stroke-miterlimit="10"/>
<path d="M30.0417 38.6455V43.8726" stroke="#6C1B92" stroke-width="0.5" stroke-linejoin="bevel"/>
</g>
<path d="M39.2527 15.9963C40.1071 13.0533 40.0175 9.59087 39.8659 8.22754C42.6782 9.32967 59.2855 20.2263 67.2375 25.5369C67.5152 27.0644 67.9755 30.9763 67.5946 34.4043C67.1185 38.6892 62.8336 36.4277 62.0004 36.0111C61.1672 35.5945 41.7054 22.1277 40.7164 21.7716C39.7275 21.4156 38.1847 19.675 39.2527 15.9963Z" fill="#9745FF" stroke="#6C1B92" stroke-width="0.5" stroke-linejoin="bevel"/>
<path d="M41.2988 17.2853C41.7548 16.4149 41.6961 11.4642 41.6098 9.09766C42.6045 9.09766 57.9496 19.2887 65.4978 24.3842C65.7051 25.8869 66.0885 29.5763 65.9642 32.3123C65.8087 35.7323 63.3733 34.4368 62.4924 33.8668C61.6115 33.2968 44.2524 21.7415 42.8015 20.9643C41.3507 20.187 40.7288 18.3734 41.2988 17.2853Z" fill="#8A06F1" stroke="#6C1B92" stroke-width="0.5" stroke-miterlimit="10"/>
<ellipse cx="43.6004" cy="18.9459" rx="0.81608" ry="0.681117" transform="rotate(29.0694 43.6004 18.9459)" fill="white" stroke="#6C1B92" stroke-width="0.5"/>
<ellipse cx="0.81608" cy="0.681117" rx="0.81608" ry="0.681117" transform="matrix(0.874032 0.485869 -0.485868 0.874032 63.0769 31.0059)" fill="white" stroke="#6C1B92" stroke-width="0.5"/>
<ellipse cx="0.81608" cy="0.681117" rx="0.81608" ry="0.681117" transform="matrix(0.874032 0.485869 -0.485868 0.874032 63.0769 24.0039)" fill="white" stroke="#6C1B92" stroke-width="0.5"/>
<ellipse cx="0.81608" cy="0.681117" rx="0.81608" ry="0.681117" transform="matrix(0.874032 0.485869 -0.485868 0.874032 53.5391 24.9971)" fill="white" stroke="#6C1B92" stroke-width="0.5"/>
<ellipse cx="0.81608" cy="0.681117" rx="0.81608" ry="0.681117" transform="matrix(0.874032 0.485869 -0.485868 0.874032 44.1562 11.7881)" fill="white" stroke="#6C1B92" stroke-width="0.5"/>
<path d="M77.1057 29.4301C76.084 29.4904 71.4712 31.9592 69.2925 33.186C69.2925 35.5898 73.5748 37.0176 74.4763 37.243C75.3778 37.4684 82.2141 34.0876 82.2141 33.186C82.2141 32.2844 78.3827 29.3548 77.1057 29.4301Z" fill="#9745FF" stroke="#6C1B92" stroke-width="0.5" stroke-linejoin="bevel"/>
<path d="M71.3738 32.1963C72.5965 33.5935 75.3668 36.4193 76.6662 36.5452" stroke="#6C1B92" stroke-width="0.5" stroke-linejoin="bevel"/>
<path d="M34.5698 48.8479V46.5107C35.8786 46.8312 42.0159 50.5844 44.921 52.4209L42.0161 52.5879L34.5698 48.8479Z" fill="#4326F5" stroke="#6C1B92" stroke-width="0.5" stroke-miterlimit="10"/>
<path d="M30.3773 88.3119C34.1266 83.9263 39.7736 82.5955 42.9786 85.3355C43.03 85.3795 43.0814 85.4234 43.1329 85.4674C42.4984 84.8216 41.8817 84.3977 41.2218 83.8336C38.0168 81.0936 32.3698 82.4244 28.6205 86.81C24.8711 91.1957 24.4345 96.9809 27.6395 99.7209C28.368 100.344 28.8593 100.897 29.8077 101.574C29.9851 101.697 30.1612 101.803 30.3592 101.884C30.0254 101.702 29.7048 101.487 29.4049 101.23C26.184 98.4913 26.6206 92.7061 30.3773 88.3119Z" fill="#9745FF" stroke="#6C1B92" stroke-width="0.5" stroke-miterlimit="10"/>
<path d="M43.1334 85.4663C43.082 85.4223 43.0306 85.3784 42.9791 85.3344C39.7741 82.5944 34.1272 83.9252 30.3778 88.3108C26.6284 92.6965 26.1918 98.4817 29.3969 101.222C29.6968 101.478 30.0173 101.693 30.3512 101.875C33.6409 103.683 38.599 102.221 42.0055 98.2368C45.6892 93.9279 46.1751 88.2586 43.1334 85.4663Z" fill="#BC87FF" stroke="#6C1B92" stroke-width="0.5" stroke-miterlimit="10"/>
<path d="M31.1683 99.9308C33.7193 102.112 38.2073 101.049 41.1925 97.5572C44.1777 94.0653 44.5297 89.4667 41.9786 87.2858C39.4276 85.1049 34.9396 86.1676 31.9544 89.6594C28.9692 93.1512 28.6172 97.7499 31.1683 99.9308Z" fill="white" stroke="#4712B7" stroke-width="0.5"/>
<path d="M33.1841 94.8318C33.1403 94.883 33.1112 94.9171 33.0452 94.8902L32.2728 94.6139L31.5446 95.483L32.9586 95.9977L31.8949 97.2593L32.6515 97.5369L33.7152 96.2753L34.1918 96.4465L33.1281 97.7081L33.8516 97.9722L34.9153 96.7106L35.458 96.9087C35.8197 97.0407 37.3948 97.1763 38.4937 95.8562C39.1382 95.137 39.2562 94.3223 38.7751 93.8962C38.7751 93.8962 39.9144 93.6739 40.5401 92.8206C41.1657 91.9673 40.7626 91.5193 40.5274 91.2739C40.3376 91.0968 40.1015 90.9393 39.8375 90.8317L40.9522 89.5104L40.269 89.2512L39.1701 90.5713L38.6116 90.3744L39.7264 89.0531L39.02 88.8037L37.9052 90.125L36.4337 89.5906L35.7785 90.3744L36.5839 90.6642C36.6658 90.6899 36.6293 90.7326 36.6001 90.7667L33.1841 94.8318ZM37.9478 91.1509L38.8106 91.4602C38.9585 91.5128 39.5567 91.9061 38.9963 92.579C38.684 92.9617 38.1684 93.2004 37.7728 93.1427C37.6922 93.1328 37.6116 93.123 37.5456 93.0961L36.6082 92.7525L37.9478 91.1509ZM35.925 93.5863L37.2572 94.0754C37.6447 94.2294 37.6585 94.6991 37.2938 95.1257C37.2792 95.1427 37.2719 95.1513 37.2573 95.1683C36.8136 95.7047 36.1975 95.7834 35.924 95.7564C35.8837 95.7514 35.8434 95.7465 35.8104 95.7331L34.5125 95.2733L35.925 93.5863Z" fill="#9745FF"/>
<path d="M37.368 82.4075L38.976 83.9542" stroke="#6C1B92" stroke-width="0.5"/>
<path d="M33.9895 82.8853L35.6973 84.5831" stroke="#6C1B92" stroke-width="0.5"/>
<path d="M30.6136 84.7632L32.3213 86.461" stroke="#6C1B92" stroke-width="0.5"/>
<path d="M27.6211 88.0257L29.6572 89.3115" stroke="#6C1B92" stroke-width="0.5"/>
<path d="M25.8676 91.9236L27.761 92.6356" stroke="#6C1B92" stroke-width="0.5"/>
<path d="M25.5535 95.4653L27.2827 95.8237" stroke="#6C1B92" stroke-width="0.5"/>
<path d="M26.4618 98.1854L27.6048 98.3676" stroke="#6C1B92" stroke-width="0.5"/>
<path d="M65.5331 120.479L71.5113 100.677L77.3014 118.325L65.5331 120.479Z" fill="#9745FF" stroke="#6C1B92" stroke-width="0.5" stroke-miterlimit="10"/>
<path d="M57.5485 110.917L71.1905 100.559L65.5244 120.684L57.5485 110.917Z" fill="#BC87FF" stroke="#6C1B92" stroke-width="0.5" stroke-miterlimit="10"/>
<path d="M65.0579 123.128L56.0864 113.901L62.1489 131.088L65.0579 123.128Z" fill="#BC87FF" stroke="#6C1B92" stroke-width="0.5" stroke-miterlimit="10"/>
<path d="M62.5187 131.12L75.4959 120.676L65.0132 123.086L62.5187 131.12Z" fill="#9745FF" stroke="#6C1B92" stroke-width="0.5" stroke-miterlimit="10"/>
<path d="M73.919 118.864L75.2241 120.754L65.0093 123.176L56.011 113.31L59.4855 113.319L65.5697 120.56L73.919 118.864Z" fill="#4326F5" stroke="#6C1B92" stroke-width="0.5" stroke-miterlimit="10"/>
<defs>
<clipPath id="clip0_562_783">
<rect width="23.8659" height="28.436" fill="white" transform="translate(188.016 68.1416) rotate(-51.8968)"/>
</clipPath>
</defs>
</svg>
