<svg width="40" height="40" viewBox="0 0 40 40" fill="none" xmlns="http://www.w3.org/2000/svg">
<g clip-path="url(#clip0_548_381)">
<path d="M28.2775 14.0292C25.5568 11.9608 22.955 12.0184 22.955 12.0184L22.7171 12.3139C25.9604 13.3193 27.4487 14.7391 27.4487 14.7391C25.6972 13.7573 23.7678 13.1338 21.773 12.9049C20.4943 12.7765 19.2049 12.7995 17.9316 12.9734C17.8341 12.9977 17.7355 13.017 17.6361 13.031C16.1404 13.1895 14.6801 13.5886 13.3117 14.213C12.9271 14.3692 12.5517 14.5473 12.1874 14.7463C12.1874 14.7463 13.791 13.2617 17.2216 12.2526L17.0415 12.0148C17.0415 12.0148 14.4433 11.9572 11.7225 14.0256C9.9978 17.4611 9.07027 21.2414 9.00903 25.0851C9.00903 25.0851 10.6054 27.8635 14.8036 27.968C14.8036 27.968 15.4559 27.0815 16.0469 26.3716C13.6216 25.6508 12.7352 24.1229 12.7352 24.1229C12.9069 24.2319 13.085 24.3306 13.2685 24.4184C13.2685 24.4184 13.2685 24.4797 13.3262 24.4797C13.3838 24.5373 13.4451 24.5373 13.5027 24.5986C13.9374 24.8511 14.3917 25.068 14.8613 25.2472C15.7674 25.5904 16.6971 25.8674 17.6433 26.0761C19.2648 26.3712 20.9263 26.3712 22.5478 26.0761C23.4825 25.901 24.3949 25.6231 25.2685 25.2472C26.039 24.9734 26.7715 24.6029 27.4487 24.1445C27.4487 24.1445 26.5009 25.6833 24.018 26.3932C24.5514 27.1139 25.2613 27.9283 25.2613 27.9283C29.4595 27.813 31.0559 25.0454 30.9946 25.0923C30.9318 21.2473 30.0031 17.4659 28.2775 14.0292ZM16.4505 23.3121C15.9159 23.2681 15.4174 23.0246 15.054 22.6301C14.6906 22.2356 14.4889 21.7188 14.4889 21.1824C14.4889 20.646 14.6906 20.1292 15.054 19.7347C15.4174 19.3401 15.9159 19.0967 16.4505 19.0526C16.9851 19.0967 17.4835 19.3401 17.8469 19.7347C18.2103 20.1292 18.4121 20.646 18.4121 21.1824C18.4121 21.7188 18.2103 22.2356 17.8469 22.6301C17.4835 23.0246 16.9851 23.2681 16.4505 23.3121ZM23.3694 23.3121C22.9405 23.3499 22.5101 23.2572 22.1348 23.0461C21.7594 22.8351 21.4566 22.5156 21.2659 22.1295C21.0753 21.7435 21.0057 21.3088 21.0664 20.8825C21.127 20.4562 21.315 20.0581 21.6058 19.7405C21.8965 19.4229 22.2764 19.2005 22.6957 19.1025C23.115 19.0045 23.5541 19.0355 23.9555 19.1914C24.3569 19.3472 24.7019 19.6207 24.9452 19.976C25.1885 20.3313 25.3187 20.7518 25.3189 21.1824C25.3405 21.7227 25.1477 22.2497 24.7826 22.6486C24.4174 23.0474 23.9095 23.2859 23.3694 23.3121Z" fill="#D3CBDC"/>
<path d="M20 40C16.0444 40 12.1776 38.827 8.8886 36.6294C5.59962 34.4318 3.03617 31.3082 1.52242 27.6537C0.00866562 23.9992 -0.387401 19.9778 0.384303 16.0982C1.15601 12.2186 3.06082 8.65492 5.85787 5.85787C8.65492 3.06082 12.2186 1.15601 16.0982 0.384303C19.9778 -0.387401 23.9992 0.00866562 27.6537 1.52242C31.3082 3.03617 34.4318 5.59962 36.6294 8.8886C38.827 12.1776 40 16.0444 40 20C39.9933 25.3023 37.8841 30.3855 34.1348 34.1348C30.3855 37.8841 25.3023 39.9933 20 40ZM20 1.99641C16.4364 1.99641 12.9528 3.05314 9.98973 5.03299C7.02669 7.01283 4.71727 9.82686 3.35353 13.1192C1.98979 16.4116 1.63297 20.0344 2.3282 23.5296C3.02343 27.0247 4.73948 30.2352 7.25935 32.7551C9.77921 35.275 12.9897 36.991 16.4849 37.6862C19.98 38.3815 23.6028 38.0246 26.8952 36.6609C30.1876 35.2972 33.0016 32.9877 34.9814 30.0247C36.9613 27.0616 38.018 23.5781 38.018 20.0144C38.018 15.2357 36.1197 10.6528 32.7407 7.27376C29.3616 3.89473 24.7787 1.99641 20 1.99641Z" fill="#D3CBDC"/>
</g>
<defs>
<clipPath id="clip0_548_381">
<rect width="40" height="40" fill="white"/>
</clipPath>
</defs>
</svg>
