<svg width="40" height="40" viewBox="0 0 40 40" fill="none" xmlns="http://www.w3.org/2000/svg">
<g clip-path="url(#clip0_548_391)">
<path d="M20.0001 39.9877C8.97965 39.9877 0.0124512 31.0233 0.0124512 20.0001C0.0126512 8.97969 8.97965 0.0126953 20.0001 0.0126953C31.0231 0.0126953 39.9877 8.9797 39.9877 20.0003C39.9877 31.0231 31.0231 39.9877 20.0001 39.9877ZM20.0001 2.5507C10.3783 2.5507 2.55065 10.3783 2.55065 20.0001C2.55065 29.6221 10.3783 37.4493 20.0001 37.4493C29.6221 37.4493 37.4493 29.6221 37.4493 20.0001C37.4493 10.3783 29.6221 2.5507 20.0001 2.5507Z" fill="#D3CBDC" stroke="black"/>
<path d="M29.8385 15.4084C29.8385 15.2174 29.7889 15.0758 29.7889 14.9342L23.7669 20.3476L29.7463 25.7608C29.7959 25.6192 29.7959 25.478 29.7959 25.2866V15.4084H29.8385ZM19.9527 22.1804L29.0881 13.71C28.7557 13.4764 28.3381 13.335 27.7225 13.335H12.1827C11.6165 13.335 11.1919 13.4766 10.8169 13.7596L19.9527 22.1804Z" fill="#D3CBDC"/>
<path d="M22.7761 21.3378L20.4691 23.6448C20.3277 23.7862 20.1367 23.8358 19.9525 23.8358C19.7683 23.8358 19.5775 23.7862 19.4359 23.6448L17.1289 21.3378L10.8663 26.9846C11.1989 27.2182 11.6165 27.3596 12.1825 27.3596H27.7153C28.2815 27.3596 28.7061 27.218 29.0315 26.9846L22.7761 21.3378ZM10.1589 14.9336C10.1093 15.0752 10.0669 15.2166 10.0669 15.4078V25.2936C10.0669 25.4846 10.1165 25.6262 10.1165 25.7678L16.1385 20.3544L10.1589 14.9336Z" fill="#D3CBDC"/>
</g>
<defs>
<clipPath id="clip0_548_391">
<rect width="40" height="40" fill="white"/>
</clipPath>
</defs>
</svg>
