<svg width="166" height="46" viewBox="0 0 166 46" fill="none" xmlns="http://www.w3.org/2000/svg">
<g clip-path="url(#clip0_548_403)">
<path d="M26.1887 11.4404H29.4061C29.5332 11.6649 29.6437 11.8984 29.7366 12.1391C30.4573 14.5923 32.1774 15.9301 34.6263 16.3112C36.3544 16.5771 38.1184 16.6049 39.8545 16.8193C44.6327 17.3988 47.5196 20.249 49.0566 24.6077C49.614 26.1955 50.279 27.7834 49.8529 29.661H46.9064C46.6555 28.8865 46.4455 28.0994 46.2772 27.303C45.6322 23.254 41.6344 20.2331 37.4295 20.3443C32.8384 20.4674 30.9232 19.6298 27.873 16.6565C27.5737 16.764 27.2939 16.9196 27.0448 17.117C24.8787 19.4988 22.0914 20.2927 18.9895 20.3562C17.2972 20.388 15.6209 20.38 14.0042 21.1144C11.2169 22.3847 9.67194 24.56 9.01892 27.4658C8.85566 28.1962 8.73222 28.9385 8.58888 29.6928H5.62239C5.20031 24.2663 8.73222 18.0459 14.8205 16.9185C16.1903 16.6645 17.6078 16.6883 19.0094 16.5732C21.076 16.3985 23.1426 16.1286 24.5243 14.3581C25.1574 13.5404 25.5636 12.5559 26.1887 11.4404Z" fill="#8C29FF"/>
<path d="M5.43115 32.7532H8.59674C8.74406 33.5114 8.87945 34.1822 8.99492 34.8611C9.7913 39.2475 12.4114 41.6094 16.8949 41.8754C18.7027 41.9865 20.5224 41.919 22.3342 41.919C27.6022 41.919 32.8702 41.8833 38.1382 41.919C41.8573 41.9429 45.4409 39.5135 46.2174 35.7106C46.4125 34.7459 46.6674 33.7932 46.9182 32.7373H49.8489C49.9227 33.2313 49.956 33.7305 49.9484 34.2299C49.152 41.6134 44.8556 45.6981 37.5449 45.8966C31.1102 46.0713 24.6675 45.9998 18.2289 45.9165C14.5695 45.8688 11.1451 44.9915 8.59275 42.0778C6.29522 39.438 5.48292 36.3219 5.43115 32.7532Z" fill="#8C29FF"/>
<path d="M40.0775 31.1892C40.0775 33.4122 38.6798 34.7937 36.438 34.7619C35.9823 34.7543 35.5326 34.6561 35.1154 34.4732C34.6981 34.2903 34.3217 34.0262 34.008 33.6965C33.6943 33.3668 33.4498 32.9781 33.2886 32.553C33.1274 32.128 33.0529 31.6751 33.0694 31.221C33.072 30.2755 33.4432 29.3681 34.1044 28.6904C34.7657 28.0126 35.6653 27.6176 36.6132 27.5888C38.5922 27.5451 40.0695 29.0774 40.0775 31.1892Z" fill="#8C29FF"/>
<path d="M22.2466 31.3358C22.2267 33.4834 20.849 34.8251 18.7107 34.7735C18.2584 34.7637 17.8124 34.665 17.3985 34.483C16.9845 34.3009 16.6107 34.0392 16.2984 33.7128C15.9862 33.3864 15.7417 33.0017 15.5789 32.5809C15.4162 32.16 15.3384 31.7113 15.35 31.2604C15.3779 29.2756 16.883 27.5845 18.6112 27.5647C20.8808 27.5448 22.2665 28.954 22.2466 31.3358Z" fill="#8C29FF"/>
<path d="M28.4464 9.06617H26.9492C27.1284 7.5855 26.4714 6.6844 25.4003 5.77932C24.2057 4.77501 24.3132 2.48057 25.4003 1.13883C25.837 0.584848 26.4553 0.20172 27.1469 0.0565651C27.8385 -0.0885896 28.5593 0.0134858 29.183 0.344909C29.6717 0.614243 30.089 0.995739 30.4004 1.45782C30.7118 1.9199 30.9083 2.44927 30.9737 3.00211C31.0391 3.55496 30.9715 4.11538 30.7764 4.63699C30.5813 5.15859 30.2645 5.62637 29.852 6.00162C28.9163 6.84318 28.2592 7.62123 28.4464 9.06617Z" fill="#8C29FF"/>
<path d="M52.1187 26.2236C54.4759 26.2236 55.5192 27.1883 55.5431 29.4271C55.5431 30.6498 55.5789 31.8684 55.5431 33.0871C55.4793 35.1354 54.3007 36.1199 52.1187 35.9929V26.2236Z" fill="#8C29FF"/>
<path d="M3.273 26.251V35.913C1.32189 36.1909 0.0875106 35.2342 0.0238007 33.2772C-0.016018 31.995 0.0238007 30.7168 0.0238007 29.4346C0.015837 27.1283 0.891847 26.2827 3.273 26.251Z" fill="#8C29FF"/>
<path d="M81.2141 30.1455C81.1265 28.26 81.031 25.9973 81.0389 24.0125H80.9792C80.4974 25.7988 79.8882 27.7677 79.255 29.6096L77.1088 35.9174H75.0542L73.115 29.697C72.5456 27.8273 72.02 25.8464 71.6377 24.0125H71.5899C71.5262 25.9218 71.4386 28.252 71.3271 30.2329L71.0046 36.1H68.512L69.4875 21.5235H72.9955L74.8989 27.3668C75.4245 29.0856 75.8943 30.8164 76.2447 32.44H76.3085C76.7066 30.8521 77.2044 29.0698 77.7698 27.3549L79.8125 21.5195H83.2767L84.101 36.1H81.4968L81.2141 30.1455Z" fill="white"/>
<path d="M89.7393 22.6028C89.7438 22.7995 89.7069 22.995 89.6309 23.1767C89.555 23.3584 89.4417 23.5222 89.2984 23.6576C89.1551 23.7929 88.985 23.8969 88.7989 23.9627C88.6129 24.0285 88.4151 24.0548 88.2182 24.0398C87.9371 24.0243 87.6666 23.927 87.4403 23.76C87.2139 23.5929 87.0416 23.3635 86.9446 23.0999C86.8476 22.8363 86.8302 22.5502 86.8945 22.2769C86.9588 22.0036 87.102 21.755 87.3064 21.5619C87.5108 21.3688 87.7675 21.2396 88.0447 21.1903C88.3219 21.141 88.6075 21.1737 88.8663 21.2844C89.1251 21.3951 89.3457 21.579 89.5008 21.8133C89.656 22.0476 89.7389 22.322 89.7393 22.6028ZM86.9122 36.0995V25.5681H89.584V36.0995H86.9122Z" fill="white"/>
<path d="M92.467 28.6963C92.467 27.4816 92.4272 26.4773 92.3794 25.5683H94.7128L94.8442 27.1561H94.9039C95.2568 26.5867 95.753 26.1192 96.3433 25.8003C96.9336 25.4813 97.5974 25.322 98.2686 25.338C100.112 25.338 102.023 26.5289 102.023 29.8475V36.0997H99.3516V30.1452C99.3516 28.6368 98.7942 27.4856 97.3368 27.4856C96.8697 27.4942 96.4172 27.6497 96.044 27.9299C95.6707 28.21 95.3958 28.6005 95.2583 29.0456C95.1737 29.3194 95.1334 29.6048 95.1388 29.8912V36.0997H92.467V28.6963Z" fill="white"/>
<path d="M107.821 22.5518V25.5687H110.361V27.5535H107.821V32.1979C107.821 33.4881 108.163 34.1431 109.187 34.1431C109.535 34.149 109.883 34.1103 110.222 34.0279L110.278 36.0524C109.65 36.2499 108.993 36.3425 108.335 36.3263C107.912 36.3458 107.491 36.2787 107.095 36.1292C106.7 35.9796 106.34 35.7509 106.037 35.457C105.464 34.8536 105.205 33.8692 105.205 32.5036V27.5495H103.704V25.5647H105.213V23.1829L107.821 22.5518Z" fill="white"/>
<path d="M115.402 31.9755L114.152 36.0999H111.393L116.083 21.5234H119.484L124.234 36.0999H121.367L120.029 31.9755H115.402ZM119.603 29.9629L118.436 26.3703C118.154 25.4692 117.915 24.4768 117.692 23.6313H117.644C117.433 24.4848 117.21 25.497 116.951 26.3624L115.82 29.9629H119.603Z" fill="white"/>
<path d="M126.066 28.9542C126.066 27.545 126.034 26.5089 125.978 25.5721H128.292L128.387 27.5569H128.463C128.65 26.9296 129.03 26.3765 129.548 25.9751C130.066 25.5736 130.698 25.3438 131.354 25.318C131.563 25.3134 131.771 25.3347 131.975 25.3815V27.8903C131.713 27.8356 131.446 27.8103 131.179 27.8149C130.602 27.8003 130.04 27.9972 129.6 28.3682C129.16 28.7392 128.871 29.2585 128.789 29.8275C128.742 30.0894 128.719 30.3552 128.722 30.6214V36.0995H126.05L126.066 28.9542Z" fill="white"/>
<path d="M137.343 22.5518V25.5687H139.883V27.5535H137.343V32.1979C137.343 33.4881 137.685 34.1431 138.708 34.1431C139.057 34.1495 139.405 34.1108 139.744 34.0279L139.799 36.0524C139.171 36.2499 138.515 36.3425 137.856 36.3264C137.434 36.3462 137.013 36.2793 136.619 36.1297C136.224 35.9801 135.865 35.7511 135.563 35.457C134.989 34.8536 134.726 33.8692 134.726 32.5036V27.5495H133.217V25.5647H134.726V23.1829L137.343 22.5518Z" fill="white"/>
<path d="M149.822 32.1739L147.958 36.0999H144.375L151.908 21.5234H156.209L158.438 36.0999H154.946L154.548 32.1779L149.822 32.1739ZM154.329 29.6731L153.931 26.5609C153.839 25.767 153.72 24.7388 153.612 23.9171H153.573C153.174 24.7428 152.804 25.7193 152.378 26.5649L150.849 29.6731H154.329Z" fill="#8C29FF"/>
<path d="M165.996 21.5195L163.233 36.1H159.971L162.735 21.5235L165.996 21.5195Z" fill="#8C29FF"/>
</g>
<defs>
<clipPath id="clip0_548_403">
<rect width="166" height="46" fill="white"/>
</clipPath>
</defs>
</svg>
