<svg width="40" height="40" viewBox="0 0 40 40" fill="none" xmlns="http://www.w3.org/2000/svg">
<g clip-path="url(#clip0_548_396)">
<path d="M20.0001 39.9877C8.97965 39.9877 0.0124512 31.0233 0.0124512 20.0001C0.0126512 8.97969 8.97965 0.0126953 20.0001 0.0126953C31.0231 0.0126953 39.9877 8.9797 39.9877 20.0003C39.9877 31.0231 31.0231 39.9877 20.0001 39.9877ZM20.0001 2.5507C10.3783 2.5507 2.55065 10.3783 2.55065 20.0001C2.55065 29.6221 10.3783 37.4493 20.0001 37.4493C29.6221 37.4493 37.4493 29.6221 37.4493 20.0001C37.4493 10.3783 29.6221 2.5507 20.0001 2.5507Z" fill="#D3CBDC" stroke="black"/>
<path d="M13.6148 12.0459C9.4093 12.0459 6 15.3834 6 19.5C6 23.6166 9.40955 26.9541 13.6148 26.9541C17.8201 26.9541 21.2297 23.6169 21.2297 19.5C21.2297 15.3831 17.8206 12.0459 13.6148 12.0459ZM25.7754 12.4826C23.6726 12.4826 21.9682 15.6251 21.9682 19.5001C21.9682 23.3751 23.6728 26.5179 25.7756 26.5179C27.8785 26.5179 29.5831 23.3753 29.5831 19.5001H29.5828C29.5828 15.624 27.8784 12.4826 25.7755 12.4826H25.7754ZM31.6608 13.2135C30.9214 13.2135 30.322 16.0283 30.322 19.5001C30.322 22.9719 30.921 25.7867 31.6608 25.7867C32.4006 25.7867 33 22.9712 33 19.5C33 16.0281 32.4003 13.2135 31.6609 13.2135H31.6608Z" fill="#D3CBDC"/>
</g>
<defs>
<clipPath id="clip0_548_396">
<rect width="40" height="40" fill="white"/>
</clipPath>
</defs>
</svg>
