<svg width="40" height="40" viewBox="0 0 40 40" fill="none" xmlns="http://www.w3.org/2000/svg">
<path d="M34.125 5.875C30.375 2.0625 25.375 0 20 0C14.625 0 9.625 2.0625 5.875 5.875C2.125 9.6875 0 14.625 0 20C0 25.375 2.0625 30.375 5.875 34.125C9.6875 37.875 14.625 40 20 40C25.375 40 30.375 37.9375 34.125 34.125C37.875 30.3125 40 25.375 40 20C40 14.625 37.9375 9.625 34.125 5.875ZM20 38.0625C10 38.0625 1.9375 30 1.9375 20C1.9375 10 10 1.9375 20 1.9375C30 1.9375 38.0625 10.0625 38.0625 20C38.0625 29.9375 30 38.0625 20 38.0625Z" fill="#D3CBDC"/>
<path d="M29.9316 12.8207L26.3099 29.7927C26.0366 30.9905 25.3241 31.2887 24.3115 30.7244L18.7931 26.6837L16.1304 29.2284C15.8357 29.5212 15.5893 29.7661 15.0214 29.7661L15.4178 24.1815L25.6455 14.9981C26.0902 14.6042 25.5491 14.3859 24.9544 14.7799L12.3104 22.6909L6.86706 20.998C5.68303 20.6306 5.66159 19.8214 7.11351 19.2571L28.4047 11.1065C29.3905 10.7392 30.2531 11.3248 29.9316 12.8207Z" fill="#D3CBDC"/>
</svg>
