<svg width="40" height="40" viewBox="0 0 40 40" fill="none" xmlns="http://www.w3.org/2000/svg">
<g clip-path="url(#clip0_548_384)">
<path d="M28.5763 16.0237C28.5763 15.8219 28.5727 15.6219 28.5636 15.4237C29.4272 14.78 30.1763 13.9746 30.769 13.0528C29.9763 13.4091 29.1254 13.6473 28.2308 13.7473C29.1436 13.1855 29.8436 12.2873 30.1745 11.2091C29.3199 11.7273 28.3745 12.0982 27.369 12.2909C26.5636 11.3746 25.4145 10.7909 24.1436 10.7691C21.7036 10.7291 19.7254 12.7909 19.7254 15.3746C19.7254 15.7419 19.7636 16.0982 19.8399 16.4419C16.1654 16.2055 12.909 14.2928 10.7308 11.4091C10.3508 12.1 10.1327 12.9073 10.1327 13.7728C10.1327 15.4091 10.9127 16.8637 12.0981 17.7219C11.3727 17.6891 10.6927 17.4691 10.0963 17.1091C10.0963 17.1291 10.0963 17.1491 10.0963 17.1691C10.0963 19.4564 11.6199 21.3728 13.6418 21.82C13.2708 21.9255 12.8799 21.98 12.4781 21.9782C12.1927 21.9764 11.9163 21.9455 11.6472 21.8873C12.209 23.7619 13.8418 25.1309 15.7745 25.1764C14.2618 26.4309 12.3563 27.18 10.2872 27.1746C9.93085 27.1746 9.57812 27.1509 9.23267 27.1073C11.189 28.4491 13.5108 29.2309 16.0072 29.2309C24.1327 29.2328 28.5763 22.16 28.5763 16.0237Z" fill="#D3CBDC"/>
<path d="M40 20C40 8.95455 31.0455 0 20 0C8.95455 0 0 8.95455 0 20C0 31.0455 8.95455 40 20 40C31.0455 40 40 31.0455 40 20ZM1.81818 20C1.81818 9.95818 9.95818 1.81818 20 1.81818C30.0418 1.81818 38.1818 9.95818 38.1818 20C38.1818 30.0418 30.0418 38.1818 20 38.1818C9.95818 38.1818 1.81818 30.0418 1.81818 20Z" fill="#D3CBDC"/>
</g>
<defs>
<clipPath id="clip0_548_384">
<rect width="40" height="40" fill="white"/>
</clipPath>
</defs>
</svg>
